<svg width="29" height="32" viewBox="0 0 29 32" fill="none" xmlns="http://www.w3.org/2000/svg">
<path d="M28.0799 9.59536C28.0797 9.07366 27.9675 8.61265 27.7406 8.217C27.5177 7.82793 27.1839 7.50184 26.7362 7.24401C23.0405 5.12489 19.3412 3.01225 15.6467 0.890965C14.6507 0.31914 13.6849 0.339987 12.6963 0.92002C11.2253 1.78273 3.86051 5.97874 1.66589 7.24282C0.762088 7.76312 0.322297 8.5594 0.322079 9.59439C0.320667 13.8561 0.322079 18.1176 0.320667 22.3794C0.320885 22.8897 0.428307 23.3417 0.645216 23.7314C0.868207 24.1323 1.20666 24.4673 1.6647 24.731C3.85942 25.9951 11.2252 30.1908 12.6959 31.0537C13.6849 31.6341 14.6507 31.6548 15.647 31.0828C19.3416 28.9614 23.0411 26.8488 26.7374 24.7297C27.1954 24.4662 27.5339 24.1309 27.7569 23.7304C27.9734 23.3407 28.0811 22.8886 28.0813 22.3783C28.0813 22.3783 28.0813 13.8572 28.0799 9.59536Z" fill="#5C8DBC"/>
<path d="M14.2435 15.9454L0.645218 23.7315C0.868209 24.1323 1.20666 24.4674 1.6647 24.731C3.85942 25.9951 11.2252 30.1908 12.6959 31.0537C13.685 31.6341 14.6507 31.6548 15.647 31.0828C19.3416 28.9614 23.0412 26.8489 26.7374 24.7297C27.1954 24.4662 27.5339 24.1309 27.7569 23.7304L14.2435 15.9454Z" fill="#1A4674"/>
<path d="M10.2158 18.2517C11.0071 19.6254 12.4946 20.5519 14.201 20.5519C15.9179 20.5519 17.4139 19.6136 18.2011 18.2252L14.2435 15.9454L10.2158 18.2517Z" fill="#1A4674"/>
<path d="M28.0799 9.59538C28.0797 9.07367 27.9675 8.61267 27.7406 8.21701L14.2435 15.9454L27.7569 23.7304C27.9734 23.3407 28.0811 22.8887 28.0813 22.3783C28.0813 22.3783 28.0813 13.8572 28.0799 9.59538Z" fill="#1B598E"/>
<path d="M27.3368 16.5019H26.2808V17.5522H25.2246V16.5019H24.1688V15.4519H25.2246V14.4018H26.2808V15.4519H27.3368V16.5019ZM23.4836 16.5019H22.4278V17.5522H21.3718V16.5019H20.3158V15.4519H21.3718V14.4018H22.4278V15.4519H23.4836V16.5019Z" fill="white"/>
<path d="M18.2012 18.2252C17.4139 19.6137 15.9179 20.552 14.201 20.552C12.4946 20.552 11.0071 19.6254 10.2158 18.2517C9.81832 17.5624 9.60956 16.7815 9.61038 15.9869C9.61038 13.4657 11.6658 11.4219 14.201 11.4219C15.8964 11.4219 17.3761 12.3369 18.1713 13.6965L22.1837 11.3989C20.5889 8.66116 17.6114 6.81931 14.201 6.81931C9.10944 6.81931 4.98209 10.9238 4.98209 15.9869C4.98209 17.6479 5.42644 19.2056 6.20306 20.5492C7.79387 23.3014 10.7799 25.1546 14.201 25.1546C17.6284 25.1546 20.6191 23.2939 22.2076 20.5336L18.2012 18.2252Z" fill="white"/>
</svg>
