<svg width="24" height="32" viewBox="0 0 24 32" fill="none" xmlns="http://www.w3.org/2000/svg">
<path d="M7.91719 24.5045C7.91719 24.5045 6.72834 25.1958 8.76329 25.4297C11.2286 25.711 12.4885 25.6707 15.2054 25.1564C15.2054 25.1564 15.9197 25.6043 16.9171 25.9923C10.8269 28.6024 3.13351 25.841 7.91719 24.5045ZM7.17296 21.0983C7.17296 21.0983 5.83954 22.0853 7.87602 22.2959C10.5095 22.5676 12.5893 22.5899 16.188 21.8969C16.188 21.8969 16.6858 22.4015 17.4685 22.6775C10.1049 24.8307 1.90323 22.8473 7.17296 21.0983Z" fill="#5382A1"/>
<path d="M13.4469 15.3203C14.9476 17.048 13.0526 18.6028 13.0526 18.6028C13.0526 18.6028 16.863 16.6357 15.1131 14.1725C13.4787 11.8755 12.2253 10.734 19.0105 6.79889C19.0105 6.79889 8.35995 9.45889 13.4469 15.3202" fill="#E76F00"/>
<path d="M21.5018 27.0239C21.5018 27.0239 22.3816 27.7488 20.5328 28.3096C17.0175 29.3746 5.90133 29.6962 2.81329 28.352C1.70326 27.8692 3.78496 27.199 4.43973 27.0583C5.12261 26.9102 5.51292 26.9379 5.51292 26.9379C4.2784 26.0682 -2.46644 28.6455 2.0869 29.3835C14.5044 31.3973 24.7227 28.4768 21.5018 27.0239ZM8.48881 17.5691C8.48881 17.5691 2.83455 18.9122 6.48657 19.3998C8.02852 19.6062 11.1024 19.5596 13.9657 19.3196C16.3058 19.1223 18.6554 18.7026 18.6554 18.7026C18.6554 18.7026 17.8303 19.056 17.2334 19.4636C11.4915 20.9737 0.399116 20.2712 3.59246 18.7265C6.29308 17.421 8.4889 17.5691 8.4889 17.5691H8.48881ZM18.6321 23.2388C24.4691 20.2057 21.7703 17.291 19.8866 17.6837C19.4249 17.7797 19.219 17.863 19.219 17.863C19.219 17.863 19.3905 17.5945 19.7178 17.4783C23.4443 16.1681 26.3103 21.3424 18.5148 23.3917C18.5148 23.3918 18.6052 23.3111 18.6321 23.2388Z" fill="#5382A1"/>
<path d="M15.113 0.444535C15.113 0.444535 18.3457 3.67832 12.0471 8.6507C6.99632 12.6395 10.8953 14.9138 12.045 17.5123C9.09675 14.8523 6.93308 12.5106 8.38469 10.3313C10.5151 7.13199 16.4173 5.58094 15.113 0.444445" fill="#E76F00"/>
<path d="M9.06243 31.4577C14.6652 31.8164 23.2688 31.2588 23.4725 28.6077C23.4725 28.6077 23.0809 29.6128 18.8422 30.4109C14.0601 31.3107 8.1622 31.2057 4.66402 30.6289C4.66411 30.6289 5.38014 31.2216 9.06252 31.4577" fill="#5382A1"/>
</svg>
