<?xml version="1.0" encoding="UTF-8"?>
<!DOCTYPE svg PUBLIC "-//W3C//DTD SVG 1.1//EN" "http://www.w3.org/Graphics/SVG/1.1/DTD/svg11.dtd">
<svg xmlns="http://www.w3.org/2000/svg" version="1.1" width="900px" height="900px" style="shape-rendering:geometricPrecision; text-rendering:geometricPrecision; image-rendering:optimizeQuality; fill-rule:evenodd; clip-rule:evenodd" xmlns:xlink="http://www.w3.org/1999/xlink">
<g><path style="opacity:1" fill="#fefefe" d="M -0.5,-0.5 C 299.5,-0.5 599.5,-0.5 899.5,-0.5C 899.5,299.5 899.5,599.5 899.5,899.5C 599.5,899.5 299.5,899.5 -0.5,899.5C -0.5,599.5 -0.5,299.5 -0.5,-0.5 Z"/></g>
<g><path style="opacity:1" fill="#ffafae" d="M 254.5,133.5 C 245.191,132.683 235.857,132.35 226.5,132.5C 226.5,163.833 226.5,195.167 226.5,226.5C 231.032,226.182 235.366,226.515 239.5,227.5C 234.833,227.5 230.167,227.5 225.5,227.5C 225.5,195.5 225.5,163.5 225.5,131.5C 233.507,131.334 241.507,131.5 249.5,132C 251.382,132.198 253.048,132.698 254.5,133.5 Z"/></g>
<g><path style="opacity:1" fill="#fab4b7" d="M 255.5,133.5 C 259.697,133.429 263.863,133.763 268,134.5C 269.681,134.608 270.848,135.275 271.5,136.5C 265.953,135.981 260.62,134.981 255.5,133.5 Z"/></g>
<g><path style="opacity:1" fill="#fdaaab" d="M 277.5,137.5 C 280.01,137.054 282.01,137.72 283.5,139.5C 281.214,139.405 279.214,138.738 277.5,137.5 Z"/></g>
<g><path style="opacity:1" fill="#cc1515" d="M 451.5,132.5 C 451.5,163.5 451.5,194.5 451.5,225.5C 457.069,225.376 462.402,226.043 467.5,227.5C 464.5,227.5 461.5,227.5 458.5,227.5C 456.052,226.527 453.385,226.194 450.5,226.5C 450.168,194.996 450.502,163.662 451.5,132.5 Z"/></g>
<g><path style="opacity:1" fill="#ec1e24" d="M 254.5,133.5 C 254.833,133.5 255.167,133.5 255.5,133.5C 260.62,134.981 265.953,135.981 271.5,136.5C 273.265,137.461 275.265,137.795 277.5,137.5C 279.214,138.738 281.214,139.405 283.5,139.5C 284.568,140.434 285.901,140.768 287.5,140.5C 289.456,141.492 291.456,142.492 293.5,143.5C 299.828,144.939 306.162,146.605 312.5,148.5C 320.386,152.27 328.386,156.27 336.5,160.5C 346.699,166.447 356.366,173.113 365.5,180.5C 369.943,184.562 374.61,188.395 379.5,192C 380.721,194.034 382.055,195.867 383.5,197.5C 384.585,199.587 386.251,200.92 388.5,201.5C 390.104,202.287 390.771,203.62 390.5,205.5C 391.5,205.5 392.5,205.5 393.5,205.5C 399.966,215.611 407.133,225.278 415,234.5C 418.359,241.657 421.859,248.657 425.5,255.5C 426.371,258.564 427.538,261.564 429,264.5C 429.671,265.252 430.504,265.586 431.5,265.5C 431.5,267.5 431.5,269.5 431.5,271.5C 432.5,271.5 433.5,271.5 434.5,271.5C 436.494,278.451 438.494,285.451 440.5,292.5C 440.749,295.002 441.083,297.502 441.5,300C 441.608,301.681 442.275,302.848 443.5,303.5C 443.899,307.011 444.566,310.344 445.5,313.5C 445.721,316.067 446.388,318.401 447.5,320.5C 447.5,324.167 447.5,327.833 447.5,331.5C 447.5,332.833 447.5,334.167 447.5,335.5C 447.423,339.215 447.756,342.881 448.5,346.5C 447.539,348.265 447.205,350.265 447.5,352.5C 416.815,351.841 386.482,352.508 356.5,354.5C 355.774,348.13 354.774,341.796 353.5,335.5C 353.741,333.102 353.074,331.102 351.5,329.5C 351.663,327.143 351.497,324.81 351,322.5C 349.893,319.416 348.727,316.416 347.5,313.5C 346.669,310.341 345.669,307.341 344.5,304.5C 344.5,303.833 344.167,303.5 343.5,303.5C 343.088,300.198 341.755,297.531 339.5,295.5C 323.577,266.258 299.91,245.758 268.5,234C 266.527,233.505 264.527,233.338 262.5,233.5C 262.047,232.542 261.381,231.708 260.5,231C 253.641,228.877 246.641,227.711 239.5,227.5C 235.366,226.515 231.032,226.182 226.5,226.5C 226.5,195.167 226.5,163.833 226.5,132.5C 235.857,132.35 245.191,132.683 254.5,133.5 Z"/></g>
<g><path style="opacity:1" fill="#fe8889" d="M 463.5,131.5 C 473.056,132.187 482.389,133.521 491.5,135.5C 478.185,134.217 464.852,133.217 451.5,132.5C 450.502,163.662 450.168,194.996 450.5,226.5C 453.385,226.194 456.052,226.527 458.5,227.5C 455.287,227.81 452.287,227.477 449.5,226.5C 449.5,194.833 449.5,163.167 449.5,131.5C 454.167,131.5 458.833,131.5 463.5,131.5 Z"/></g>
<g><path style="opacity:1" fill="#ec1e24" d="M 451.5,132.5 C 464.852,133.217 478.185,134.217 491.5,135.5C 501.284,137.901 510.95,140.568 520.5,143.5C 521.67,145.279 523.336,146.279 525.5,146.5C 525.682,148.591 525.348,150.591 524.5,152.5C 526.466,153.372 528.466,153.205 530.5,152C 529.112,151.111 529.278,150.611 531,150.5C 534.335,151.084 537.169,152.584 539.5,155C 538.833,155.333 538.167,155.667 537.5,156C 539.483,155.889 541.483,155.389 543.5,154.5C 546.943,154.721 547.276,155.721 544.5,157.5C 545.167,157.833 545.833,158.167 546.5,158.5C 549.444,158.474 552.444,158.807 555.5,159.5C 566.546,163.865 576.213,170.198 584.5,178.5C 585.795,179.098 587.128,179.598 588.5,180C 622.485,208.142 646.818,242.975 661.5,284.5C 661.41,287.152 662.076,289.485 663.5,291.5C 663.975,295.084 664.975,298.417 666.5,301.5C 665.945,305.012 666.612,308.012 668.5,310.5C 669.117,318.921 670.117,327.254 671.5,335.5C 671.5,340.833 671.5,346.167 671.5,351.5C 640.833,351.5 610.167,351.5 579.5,351.5C 578.786,344.867 578.286,338.2 578,331.5C 577.794,329.064 576.627,327.398 574.5,326.5C 573.833,324.167 573.167,321.833 572.5,319.5C 572.097,316.514 571.097,313.848 569.5,311.5C 569.5,311.167 569.5,310.833 569.5,310.5C 569.294,307.762 568.294,305.428 566.5,303.5C 546.945,261.211 513.945,235.878 467.5,227.5C 462.402,226.043 457.069,225.376 451.5,225.5C 451.5,194.5 451.5,163.5 451.5,132.5 Z"/></g>
<g><path style="opacity:1" fill="#ed8984" d="M 287.5,140.5 C 289.5,140.5 291.5,140.5 293.5,140.5C 293.5,141.5 293.5,142.5 293.5,143.5C 291.456,142.492 289.456,141.492 287.5,140.5 Z"/></g>
<g><path style="opacity:1" fill="#ffc4c5" d="M 463.5,131.5 C 458.833,131.5 454.167,131.5 449.5,131.5C 449.5,163.167 449.5,194.833 449.5,226.5C 448.502,194.671 448.168,162.671 448.5,130.5C 453.695,130.179 458.695,130.513 463.5,131.5 Z"/></g>
<g><path style="opacity:1" fill="#e83532" d="M 520.5,143.5 C 522.401,143.433 524.234,143.767 526,144.5C 535.635,148.738 545.135,153.071 554.5,157.5C 555.298,157.957 555.631,158.624 555.5,159.5C 552.444,158.807 549.444,158.474 546.5,158.5C 545.833,158.167 545.167,157.833 544.5,157.5C 547.276,155.721 546.943,154.721 543.5,154.5C 541.483,155.389 539.483,155.889 537.5,156C 538.167,155.667 538.833,155.333 539.5,155C 537.169,152.584 534.335,151.084 531,150.5C 529.278,150.611 529.112,151.111 530.5,152C 528.466,153.205 526.466,153.372 524.5,152.5C 525.348,150.591 525.682,148.591 525.5,146.5C 523.336,146.279 521.67,145.279 520.5,143.5 Z"/></g>
<g><path style="opacity:1" fill="#f89fa1" d="M 383.5,197.5 C 386.063,197.731 387.73,199.065 388.5,201.5C 386.251,200.92 384.585,199.587 383.5,197.5 Z"/></g>
<g><path style="opacity:1" fill="#fccecd" d="M 239.5,227.5 C 246.641,227.711 253.641,228.877 260.5,231C 261.381,231.708 262.047,232.542 262.5,233.5C 257.91,232.349 253.243,231.516 248.5,231C 248.043,230.586 247.709,230.086 247.5,229.5C 244.694,228.832 242.028,228.166 239.5,227.5 Z"/></g>
<g><path style="opacity:1" fill="#e46863" d="M 425.5,255.5 C 428,258.494 430,261.827 431.5,265.5C 430.504,265.586 429.671,265.252 429,264.5C 427.538,261.564 426.371,258.564 425.5,255.5 Z"/></g>
<g><path style="opacity:1" fill="#fdaaad" d="M 661.5,284.5 C 663.163,286.438 663.829,288.772 663.5,291.5C 662.076,289.485 661.41,287.152 661.5,284.5 Z"/></g>
<g><path style="opacity:1" fill="#f8868c" d="M 440.5,292.5 C 442.024,295.916 443.024,299.583 443.5,303.5C 442.275,302.848 441.608,301.681 441.5,300C 441.083,297.502 440.749,295.002 440.5,292.5 Z"/></g>
<g><path style="opacity:1" fill="#fdafb3" d="M 339.5,295.5 C 341.755,297.531 343.088,300.198 343.5,303.5C 341.612,301.206 340.278,298.539 339.5,295.5 Z"/></g>
<g><path style="opacity:1" fill="#f9a2a6" d="M 666.5,301.5 C 667.475,304.311 668.142,307.311 668.5,310.5C 666.612,308.012 665.945,305.012 666.5,301.5 Z"/></g>
<g><path style="opacity:1" fill="#f6aba8" d="M 566.5,303.5 C 568.294,305.428 569.294,307.762 569.5,310.5C 567.706,308.572 566.706,306.238 566.5,303.5 Z"/></g>
<g><path style="opacity:1" fill="#fdc3c2" d="M 344.5,304.5 C 345.669,307.341 346.669,310.341 347.5,313.5C 346.504,313.586 345.671,313.252 345,312.5C 344.503,309.854 344.336,307.187 344.5,304.5 Z"/></g>
<g><path style="opacity:1" fill="#fcacb0" d="M 445.5,313.5 C 447.163,315.438 447.829,317.772 447.5,320.5C 446.388,318.401 445.721,316.067 445.5,313.5 Z"/></g>
<g><path style="opacity:1" fill="#f49d9d" d="M 569.5,311.5 C 571.097,313.848 572.097,316.514 572.5,319.5C 570.518,317.403 569.518,314.736 569.5,311.5 Z"/></g>
<g><path style="opacity:1" fill="#f2b7b5" d="M 347.5,313.5 C 348.727,316.416 349.893,319.416 351,322.5C 351.497,324.81 351.663,327.143 351.5,329.5C 349.389,324.475 348.056,319.142 347.5,313.5 Z"/></g>
<g><path style="opacity:1" fill="#fbdbdd" d="M 668.5,310.5 C 670.555,315.905 671.889,321.739 672.5,328C 673.643,337.33 673.643,346.496 672.5,355.5C 672.824,348.646 672.491,341.979 671.5,335.5C 670.117,327.254 669.117,318.921 668.5,310.5 Z"/></g>
<g><path style="opacity:1" fill="#f78788" d="M 351.5,329.5 C 353.074,331.102 353.741,333.102 353.5,335.5C 351.692,334.082 351.025,332.082 351.5,329.5 Z"/></g>
<g><path style="opacity:1" fill="#fbbfc2" d="M 447.5,331.5 C 448.5,331.5 449.5,331.5 450.5,331.5C 450.5,339.167 450.5,346.833 450.5,354.5C 450.167,354.5 449.833,354.5 449.5,354.5C 449.666,349.489 449.499,344.489 449,339.5C 448.79,337.942 448.29,336.609 447.5,335.5C 447.5,334.167 447.5,332.833 447.5,331.5 Z"/></g>
<g><path style="opacity:1" fill="#e0292c" d="M 574.5,326.5 C 576.627,327.398 577.794,329.064 578,331.5C 578.286,338.2 578.786,344.867 579.5,351.5C 610.167,351.5 640.833,351.5 671.5,351.5C 671.5,351.833 671.5,352.167 671.5,352.5C 640.482,351.841 609.815,352.508 579.5,354.5C 579.167,354.5 578.833,354.5 578.5,354.5C 578.354,350.613 577.687,346.946 576.5,343.5C 576.393,337.752 575.726,332.085 574.5,326.5 Z"/></g>
<g><path style="opacity:1" fill="#e98d8f" d="M 576.5,343.5 C 577.687,346.946 578.354,350.613 578.5,354.5C 578.5,354.833 578.5,355.167 578.5,355.5C 576.577,351.971 575.911,347.971 576.5,343.5 Z"/></g>
<g><path style="opacity:1" fill="#fb1218" d="M 671.5,352.5 C 641.185,354.492 610.518,355.159 579.5,354.5C 609.815,352.508 640.482,351.841 671.5,352.5 Z"/></g>
<g><path style="opacity:1" fill="#dc4545" d="M 353.5,335.5 C 354.774,341.796 355.774,348.13 356.5,354.5C 387.167,354.5 417.833,354.5 448.5,354.5C 448.5,351.833 448.5,349.167 448.5,346.5C 447.756,342.881 447.423,339.215 447.5,335.5C 448.29,336.609 448.79,337.942 449,339.5C 449.499,344.489 449.666,349.489 449.5,354.5C 449.5,354.833 449.5,355.167 449.5,355.5C 417.833,355.5 386.167,355.5 354.5,355.5C 353.669,348.869 353.336,342.202 353.5,335.5 Z"/></g>
<g><path style="opacity:1" fill="#fc1318" d="M 448.5,346.5 C 448.5,349.167 448.5,351.833 448.5,354.5C 417.833,354.5 387.167,354.5 356.5,354.5C 386.482,352.508 416.815,351.841 447.5,352.5C 447.205,350.265 447.539,348.265 448.5,346.5 Z"/></g>
<g><path style="opacity:1" fill="#d43d40" d="M 671.5,335.5 C 672.491,341.979 672.824,348.646 672.5,355.5C 641.167,355.5 609.833,355.5 578.5,355.5C 578.5,355.167 578.5,354.833 578.5,354.5C 578.833,354.5 579.167,354.5 579.5,354.5C 610.518,355.159 641.185,354.492 671.5,352.5C 671.5,352.167 671.5,351.833 671.5,351.5C 671.5,346.167 671.5,340.833 671.5,335.5 Z"/></g>
<g><path style="opacity:1" fill="#f2aca9" d="M 255.5,356.5 C 259.329,355.931 262.663,356.598 265.5,358.5C 261.96,358.247 258.627,357.581 255.5,356.5 Z"/></g>
<g><path style="opacity:1" fill="#f5b8ba" d="M 479.5,356.5 C 485.166,356.368 490.5,357.368 495.5,359.5C 489.9,359.284 484.567,358.284 479.5,356.5 Z"/></g>
<g><path style="opacity:1" fill="#ec1e24" d="M 473.5,356.5 C 475.5,356.5 477.5,356.5 479.5,356.5C 484.567,358.284 489.9,359.284 495.5,359.5C 504.683,361.5 513.849,363.834 523,366.5C 538.019,373.471 552.852,380.637 567.5,388C 568.167,389 568.833,390 569.5,391C 575.856,395.034 582.189,399.034 588.5,403C 593.248,408.42 598.581,413.086 604.5,417C 605.799,420.473 608.133,422.64 611.5,423.5C 615.075,428.432 618.742,433.432 622.5,438.5C 623.833,439.5 625.167,440.5 626.5,441.5C 631.224,447.895 635.557,454.562 639.5,461.5C 639.581,464.513 640.914,466.513 643.5,467.5C 646.43,472.527 648.764,477.86 650.5,483.5C 651.442,487.065 653.109,490.065 655.5,492.5C 658.343,501.696 661.343,510.696 664.5,519.5C 665.048,521.626 665.715,523.626 666.5,525.5C 666.678,530.133 667.678,534.467 669.5,538.5C 670.285,545.486 670.952,552.486 671.5,559.5C 671.5,565.5 671.5,571.5 671.5,577.5C 640.5,577.5 609.5,577.5 578.5,577.5C 578.678,573.878 578.011,570.544 576.5,567.5C 576.167,562.167 575.833,556.833 575.5,551.5C 575.195,545.919 573.529,540.919 570.5,536.5C 568.797,528.426 565.463,521.093 560.5,514.5C 559.89,512.566 558.89,510.899 557.5,509.5C 554.607,504.102 550.773,499.436 546,495.5C 544.587,492.636 543.087,489.97 541.5,487.5C 540.325,487.719 539.325,487.386 538.5,486.5C 536.394,485.103 534.727,483.27 533.5,481C 527.7,476.918 522.033,472.752 516.5,468.5C 510.244,465.535 503.911,462.869 497.5,460.5C 497.047,459.542 496.381,458.708 495.5,458C 490.404,455.748 485.071,454.581 479.5,454.5C 479.03,453.307 478.03,452.64 476.5,452.5C 467.988,450.22 459.321,449.22 450.5,449.5C 450.5,418.5 450.5,387.5 450.5,356.5C 458.167,356.5 465.833,356.5 473.5,356.5 Z"/></g>
<g><path style="opacity:1" fill="#ec1e24" d="M 251.5,356.5 C 252.833,356.5 254.167,356.5 255.5,356.5C 258.627,357.581 261.96,358.247 265.5,358.5C 268.287,359.477 271.287,359.81 274.5,359.5C 274.5,360.5 274.5,361.5 274.5,362.5C 279.33,361.971 283.663,363.138 287.5,366C 290.482,366.498 293.482,366.665 296.5,366.5C 299.834,367.806 303.334,368.806 307,369.5C 316.321,373.328 325.321,377.661 334,382.5C 345.505,389.393 356.672,396.726 367.5,404.5C 367.5,405.5 367.5,406.5 367.5,407.5C 368.978,407.238 370.311,407.571 371.5,408.5C 400.681,434.343 422.514,465.676 437,502.5C 437.621,506.25 438.454,509.916 439.5,513.5C 440.21,517.025 441.21,520.358 442.5,523.5C 442.963,526.33 443.629,528.997 444.5,531.5C 446.867,539.532 447.867,547.865 447.5,556.5C 449.159,563.385 449.826,570.385 449.5,577.5C 418.167,577.5 386.833,577.5 355.5,577.5C 355.432,572.153 355.099,566.82 354.5,561.5C 354.341,557.789 353.341,554.456 351.5,551.5C 351.5,549.833 351.5,548.167 351.5,546.5C 350.159,543.104 348.826,539.77 347.5,536.5C 344.782,529.26 341.782,522.093 338.5,515C 333.595,507.624 328.595,500.457 323.5,493.5C 322.325,493.719 321.325,493.386 320.5,492.5C 305.447,475.187 286.78,462.853 264.5,455.5C 258.012,453.334 251.345,452.001 244.5,451.5C 242.562,449.837 240.228,449.171 237.5,449.5C 234.375,448.521 231.042,448.187 227.5,448.5C 227.5,417.833 227.5,387.167 227.5,356.5C 235.5,356.5 243.5,356.5 251.5,356.5 Z"/></g>
<g><path style="opacity:1" fill="#e24542" d="M 274.5,359.5 C 282.078,361.302 289.412,363.635 296.5,366.5C 293.482,366.665 290.482,366.498 287.5,366C 283.663,363.138 279.33,361.971 274.5,362.5C 274.5,361.5 274.5,360.5 274.5,359.5 Z"/></g>
<g><path style="opacity:1" fill="#c02624" d="M 251.5,356.5 C 243.5,356.5 235.5,356.5 227.5,356.5C 227.5,387.167 227.5,417.833 227.5,448.5C 231.042,448.187 234.375,448.521 237.5,449.5C 233.833,449.5 230.167,449.5 226.5,449.5C 226.5,418.167 226.5,386.833 226.5,355.5C 235.017,355.174 243.35,355.507 251.5,356.5 Z"/></g>
<g><path style="opacity:1" fill="#ffcacc" d="M 354.5,355.5 C 386.167,355.5 417.833,355.5 449.5,355.5C 449.5,386.833 449.5,418.167 449.5,449.5C 448.502,418.671 448.169,387.671 448.5,356.5C 416.996,356.832 385.662,356.498 354.5,355.5 Z"/></g>
<g><path style="opacity:1" fill="#fc8080" d="M 449.5,354.5 C 449.833,354.5 450.167,354.5 450.5,354.5C 458.167,355.167 465.833,355.833 473.5,356.5C 465.833,356.5 458.167,356.5 450.5,356.5C 450.5,387.5 450.5,418.5 450.5,449.5C 450.167,449.5 449.833,449.5 449.5,449.5C 449.5,418.167 449.5,386.833 449.5,355.5C 449.5,355.167 449.5,354.833 449.5,354.5 Z"/></g>
<g><path style="opacity:1" fill="#fa9fa1" d="M 226.5,449.5 C 230.167,449.5 233.833,449.5 237.5,449.5C 240.228,449.171 242.562,449.837 244.5,451.5C 238.35,450.963 232.35,450.296 226.5,449.5 Z"/></g>
<g><path style="opacity:1" fill="#fcbcbc" d="M 449.5,449.5 C 449.833,449.5 450.167,449.5 450.5,449.5C 459.321,449.22 467.988,450.22 476.5,452.5C 478.03,452.64 479.03,453.307 479.5,454.5C 469.426,452.471 459.426,450.804 449.5,449.5 Z"/></g>
<g><path style="opacity:1" fill="#fdbdc0" d="M 479.5,454.5 C 485.071,454.581 490.404,455.748 495.5,458C 496.381,458.708 497.047,459.542 497.5,460.5C 491.415,458.442 485.415,456.442 479.5,454.5 Z"/></g>
<g><path style="opacity:1" fill="#f26d71" d="M 639.5,461.5 C 641.121,463.264 642.454,465.264 643.5,467.5C 640.914,466.513 639.581,464.513 639.5,461.5 Z"/></g>
<g><path style="opacity:1" fill="#ec5d5d" d="M 650.5,483.5 C 653.451,485.732 655.118,488.732 655.5,492.5C 653.109,490.065 651.442,487.065 650.5,483.5 Z"/></g>
<g><path style="opacity:1" fill="#fbb1b0" d="M 655.5,492.5 C 656.524,494.512 658.024,496.178 660,497.5C 661.801,504.713 663.301,512.046 664.5,519.5C 661.343,510.696 658.343,501.696 655.5,492.5 Z"/></g>
<g><path style="opacity:1" fill="#fcaeb9" d="M 557.5,509.5 C 558.89,510.899 559.89,512.566 560.5,514.5C 558.241,513.656 557.241,511.989 557.5,509.5 Z"/></g>
<g><path style="opacity:1" fill="#fba19f" d="M 439.5,513.5 C 441.712,516.321 442.712,519.655 442.5,523.5C 441.21,520.358 440.21,517.025 439.5,513.5 Z"/></g>
<g><path style="opacity:1" fill="#f4adad" d="M 442.5,523.5 C 444.369,525.635 445.036,528.302 444.5,531.5C 443.629,528.997 442.963,526.33 442.5,523.5 Z"/></g>
<g><path style="opacity:1" fill="#fcb9b8" d="M 666.5,525.5 C 668.876,529.393 669.876,533.727 669.5,538.5C 667.678,534.467 666.678,530.133 666.5,525.5 Z"/></g>
<g><path style="opacity:1" fill="#f69392" d="M 347.5,536.5 C 348.826,539.77 350.159,543.104 351.5,546.5C 348.433,543.985 347.099,540.651 347.5,536.5 Z"/></g>
<g><path style="opacity:1" fill="#e5676a" d="M 570.5,536.5 C 573.529,540.919 575.195,545.919 575.5,551.5C 573.691,546.74 572.024,541.74 570.5,536.5 Z"/></g>
<g><path style="opacity:1" fill="#f9b6b8" d="M 447.5,556.5 C 448.151,557.091 448.818,557.757 449.5,558.5C 450.817,564.988 450.817,571.322 449.5,577.5C 449.826,570.385 449.159,563.385 447.5,556.5 Z"/></g>
<g><path style="opacity:1" fill="#e68c8d" d="M 576.5,567.5 C 578.011,570.544 578.678,573.878 578.5,577.5C 576.598,574.663 575.931,571.329 576.5,567.5 Z"/></g>
<g><path style="opacity:1" fill="#f3858b" d="M 351.5,551.5 C 353.341,554.456 354.341,557.789 354.5,561.5C 355.099,566.82 355.432,572.153 355.5,577.5C 386.833,577.5 418.167,577.5 449.5,577.5C 434.014,578.833 418.181,579.499 402,579.5C 386.167,579.167 370.333,578.833 354.5,578.5C 353.647,569.491 352.647,560.491 351.5,551.5 Z"/></g>
<g><path style="opacity:1" fill="#e48489" d="M 671.5,559.5 C 672.491,565.979 672.824,572.646 672.5,579.5C 640.816,580.159 609.482,579.493 578.5,577.5C 609.5,577.5 640.5,577.5 671.5,577.5C 671.5,571.5 671.5,565.5 671.5,559.5 Z"/></g>
<g><path style="opacity:1" fill="#c2c2c2" d="M 555.5,607.5 C 556.167,620.167 556.833,632.833 557.5,645.5C 557.631,646.376 557.298,647.043 556.5,647.5C 555.501,634.183 555.167,620.85 555.5,607.5 Z"/></g>
<g><path style="opacity:1" fill="#2a2b2b" d="M 542.5,607.5 C 546.833,607.5 551.167,607.5 555.5,607.5C 555.167,620.85 555.501,634.183 556.5,647.5C 557.298,647.043 557.631,646.376 557.5,645.5C 560.711,645.014 563.711,644.014 566.5,642.5C 567.23,644.045 568.563,644.878 570.5,645C 568.464,646.306 566.464,646.473 564.5,645.5C 562.312,646.401 560.479,647.735 559,649.5C 557.601,649.499 556.101,649.165 554.5,648.5C 553.501,635.517 553.168,622.517 553.5,609.5C 549.351,610.08 545.684,609.414 542.5,607.5 Z"/></g>
<g><path style="opacity:1" fill="#060709" d="M 541.5,607.5 C 541.833,607.5 542.167,607.5 542.5,607.5C 545.684,609.414 549.351,610.08 553.5,609.5C 553.168,622.517 553.501,635.517 554.5,648.5C 556.101,649.165 557.601,649.499 559,649.5C 560.479,647.735 562.312,646.401 564.5,645.5C 566.464,646.473 568.464,646.306 570.5,645C 568.563,644.878 567.23,644.045 566.5,642.5C 573.5,642.5 580.5,642.5 587.5,642.5C 587.5,646.5 587.5,650.5 587.5,654.5C 581.402,653.883 575.735,654.55 570.5,656.5C 568.901,656.232 567.568,656.566 566.5,657.5C 563.69,658.48 561.024,659.813 558.5,661.5C 557.614,662.325 557.281,663.325 557.5,664.5C 554.888,671.188 554.888,678.021 557.5,685C 560.877,689.078 565.21,691.578 570.5,692.5C 575.975,693.489 581.642,693.822 587.5,693.5C 587.5,697.5 587.5,701.5 587.5,705.5C 580.159,705.666 572.826,705.5 565.5,705C 562.898,703.86 560.231,703.027 557.5,702.5C 557.44,701.957 557.107,701.624 556.5,701.5C 555.614,702.325 555.281,703.325 555.5,704.5C 550.833,704.5 546.167,704.5 541.5,704.5C 541.5,672.167 541.5,639.833 541.5,607.5 Z"/></g>
<g><path style="opacity:1" fill="#dddddd" d="M 541.5,607.5 C 541.5,639.833 541.5,672.167 541.5,704.5C 546.167,704.5 550.833,704.5 555.5,704.5C 555.281,703.325 555.614,702.325 556.5,701.5C 557.107,701.624 557.44,701.957 557.5,702.5C 556.596,703.209 556.263,704.209 556.5,705.5C 551.167,705.5 545.833,705.5 540.5,705.5C 540.168,672.662 540.502,639.996 541.5,607.5 Z"/></g>
<g><path style="opacity:1" fill="#08090a" d="M 239.5,607.5 C 239.5,620.833 239.5,634.167 239.5,647.5C 256.619,638.915 271.619,641.581 284.5,655.5C 289.766,665.696 290.766,676.363 287.5,687.5C 277.121,705.405 262.121,710.405 242.5,702.5C 241.791,701.596 240.791,701.263 239.5,701.5C 239.5,702.5 239.5,703.5 239.5,704.5C 235.167,704.5 230.833,704.5 226.5,704.5C 226.5,672.167 226.5,639.833 226.5,607.5C 230.833,607.5 235.167,607.5 239.5,607.5 Z"/></g>
<g><path style="opacity:1" fill="#8c8d8d" d="M 620.5,624.5 C 615.702,623.256 611.035,623.256 606.5,624.5C 606.5,644.167 606.5,663.833 606.5,683.5C 605.503,663.34 605.17,643.007 605.5,622.5C 610.944,621.892 615.944,622.558 620.5,624.5 Z"/></g>
<g><path style="opacity:1" fill="#050607" d="M 606.5,624.5 C 610.4,625.43 614.4,625.763 618.5,625.5C 618.333,644.503 618.5,663.503 619,682.5C 619.168,663.329 619.668,644.329 620.5,625.5C 620.5,644.833 620.5,664.167 620.5,683.5C 615.833,683.5 611.167,683.5 606.5,683.5C 606.5,663.833 606.5,644.167 606.5,624.5 Z"/></g>
<g><path style="opacity:1" fill="#333435" d="M 606.5,624.5 C 611.035,623.256 615.702,623.256 620.5,624.5C 620.5,624.833 620.5,625.167 620.5,625.5C 619.668,644.329 619.168,663.329 619,682.5C 618.5,663.503 618.333,644.503 618.5,625.5C 614.4,625.763 610.4,625.43 606.5,624.5 Z"/></g>
<g><path style="opacity:1" fill="#a6a8a7" d="M 654.5,642.5 C 653.51,636.355 653.177,630.022 653.5,623.5C 649.167,623.5 644.833,623.5 640.5,623.5C 640.5,641.167 640.5,658.833 640.5,676.5C 639.503,658.674 639.17,640.674 639.5,622.5C 644.5,622.5 649.5,622.5 654.5,622.5C 654.5,629.167 654.5,635.833 654.5,642.5 Z"/></g>
<g><path style="opacity:1" fill="#d5d6d7" d="M 239.5,607.5 C 235.167,607.5 230.833,607.5 226.5,607.5C 226.5,639.833 226.5,672.167 226.5,704.5C 230.833,704.5 235.167,704.5 239.5,704.5C 239.5,703.5 239.5,702.5 239.5,701.5C 240.791,701.263 241.791,701.596 242.5,702.5C 240.952,702.821 240.285,703.821 240.5,705.5C 235.5,705.5 230.5,705.5 225.5,705.5C 225.5,672.5 225.5,639.5 225.5,606.5C 230.363,606.181 235.03,606.514 239.5,607.5 Z"/></g>
<g><path style="opacity:1" fill="#080a0a" d="M 654.5,642.5 C 660.5,642.5 666.5,642.5 672.5,642.5C 672.5,647.167 672.5,651.833 672.5,656.5C 666.167,656.5 659.833,656.5 653.5,656.5C 653.169,664.528 653.502,672.528 654.5,680.5C 655.176,681.602 655.842,682.602 656.5,683.5C 660.025,689.416 665.358,692.416 672.5,692.5C 672.5,696.833 672.5,701.167 672.5,705.5C 669.482,705.665 666.482,705.498 663.5,705C 661.235,703.882 658.901,703.049 656.5,702.5C 646.536,696.878 641.202,688.211 640.5,676.5C 640.5,658.833 640.5,641.167 640.5,623.5C 644.833,623.5 649.167,623.5 653.5,623.5C 653.177,630.022 653.51,636.355 654.5,642.5 Z"/></g>
<g><path style="opacity:1" fill="#5a5a5a" d="M 587.5,642.5 C 588.486,646.97 588.819,651.637 588.5,656.5C 582.5,656.5 576.5,656.5 570.5,656.5C 575.735,654.55 581.402,653.883 587.5,654.5C 587.5,650.5 587.5,646.5 587.5,642.5 Z"/></g>
<g><path style="opacity:1" fill="#7a7c7b" d="M 386.5,648.5 C 386.5,667.167 386.5,685.833 386.5,704.5C 390.5,704.5 394.5,704.5 398.5,704.5C 394.03,705.486 389.363,705.819 384.5,705.5C 383.846,686.137 384.513,667.137 386.5,648.5 Z"/></g>
<g><path style="opacity:1" fill="#b1b1b1" d="M 264.5,657.5 C 260.486,657.334 256.486,657.501 252.5,658C 250.751,658.785 249.084,659.618 247.5,660.5C 248.116,658.583 249.45,657.416 251.5,657C 256.02,656.186 260.354,656.353 264.5,657.5 Z"/></g>
<g><path style="opacity:1" fill="#fbfbfb" d="M 264.5,657.5 C 271.685,658.766 275.351,663.099 275.5,670.5C 275.5,672.833 275.5,675.167 275.5,677.5C 275.141,684.828 271.474,689.494 264.5,691.5C 255.151,693.806 247.818,691.139 242.5,683.5C 241.712,680.566 241.046,677.566 240.5,674.5C 241.184,671.139 241.85,667.805 242.5,664.5C 243.76,662.633 245.427,661.3 247.5,660.5C 249.084,659.618 250.751,658.785 252.5,658C 256.486,657.501 260.486,657.334 264.5,657.5 Z"/></g>
<g><path style="opacity:1" fill="#979798" d="M 284.5,655.5 C 289.284,660.793 291.284,667.126 290.5,674.5C 290.167,678.167 289.833,681.833 289.5,685.5C 288.818,686.243 288.151,686.909 287.5,687.5C 290.766,676.363 289.766,665.696 284.5,655.5 Z"/></g>
<g><path style="opacity:1" fill="#a7a8a8" d="M 672.5,656.5 C 666.69,657.49 660.69,657.823 654.5,657.5C 654.088,666.296 654.755,674.963 656.5,683.5C 655.842,682.602 655.176,681.602 654.5,680.5C 653.502,672.528 653.169,664.528 653.5,656.5C 659.833,656.5 666.167,656.5 672.5,656.5 Z"/></g>
<g><path style="opacity:1" fill="#070809" d="M 368.5,704.5 C 364.167,704.5 359.833,704.5 355.5,704.5C 355.5,703.5 355.5,702.5 355.5,701.5C 353.901,701.232 352.568,701.566 351.5,702.5C 349.216,703.029 347.216,704.029 345.5,705.5C 338.621,705.778 331.788,705.445 325,704.5C 319.991,701.439 315.157,698.105 310.5,694.5C 309.531,691.231 308.198,688.231 306.5,685.5C 306.806,682.615 306.473,679.948 305.5,677.5C 306.003,672.141 306.67,666.807 307.5,661.5C 309.103,661.688 310.437,661.188 311.5,660C 310.62,658.644 310.286,657.144 310.5,655.5C 321.669,642.414 335.503,639.081 352,645.5C 353.394,646.613 354.561,647.947 355.5,649.5C 357.113,650.427 358.779,651.261 360.5,652C 362.556,655.291 364.723,658.457 367,661.5C 368.391,675.789 368.891,690.122 368.5,704.5 Z"/></g>
<g><path style="opacity:1" fill="#f8f9f9" d="M 342.5,657.5 C 346.378,658.266 349.378,660.266 351.5,663.5C 352.508,665.544 353.508,667.544 354.5,669.5C 355.069,675.21 354.069,680.543 351.5,685.5C 347.83,690.464 342.83,692.797 336.5,692.5C 333.833,692.333 331.167,692.167 328.5,692C 328.833,691.667 329.167,691.333 329.5,691C 318.114,684.655 315.447,675.488 321.5,663.5C 322.283,661.712 323.616,660.712 325.5,660.5C 330.794,657.89 336.461,656.89 342.5,657.5 Z"/></g>
<g><path style="opacity:1" fill="#979797" d="M 342.5,657.5 C 336.461,656.89 330.794,657.89 325.5,660.5C 325.856,659.13 326.69,658.13 328,657.5C 331.214,656.996 334.214,655.996 337,654.5C 338.859,655.675 340.692,656.675 342.5,657.5 Z"/></g>
<g><path style="opacity:1" fill="#afb0af" d="M 566.5,657.5 C 563.29,659.66 560.29,661.994 557.5,664.5C 557.281,663.325 557.614,662.325 558.5,661.5C 561.024,659.813 563.69,658.48 566.5,657.5 Z"/></g>
<g><path style="opacity:1" fill="#68686a" d="M 464.5,660.5 C 464.294,663.238 463.294,665.572 461.5,667.5C 461.273,664.562 462.273,662.229 464.5,660.5 Z"/></g>
<g><path style="opacity:1" fill="#88898c" d="M 351.5,663.5 C 353.913,664.68 354.913,666.68 354.5,669.5C 353.508,667.544 352.508,665.544 351.5,663.5 Z"/></g>
<g><path style="opacity:1" fill="#b6b6b6" d="M 447.5,664.5 C 448.5,664.5 449.5,664.5 450.5,664.5C 450.5,678.167 450.5,691.833 450.5,705.5C 445.305,705.821 440.305,705.487 435.5,704.5C 439.833,704.5 444.167,704.5 448.5,704.5C 449.166,698.509 449.5,692.343 449.5,686C 449.388,678.708 448.721,671.541 447.5,664.5 Z"/></g>
<g><path style="opacity:1" fill="#b4b4b4" d="M 242.5,664.5 C 241.85,667.805 241.184,671.139 240.5,674.5C 241.046,677.566 241.712,680.566 242.5,683.5C 238.5,677.167 238.5,670.833 242.5,664.5 Z"/></g>
<g><path style="opacity:1" fill="#404041" d="M 310.5,655.5 C 310.286,657.144 310.62,658.644 311.5,660C 310.437,661.188 309.103,661.688 307.5,661.5C 306.67,666.807 306.003,672.141 305.5,677.5C 304.41,674.319 304.41,670.985 305.5,667.5C 305.797,662.889 307.464,658.889 310.5,655.5 Z"/></g>
<g><path style="opacity:1" fill="#8b8b8d" d="M 305.5,667.5 C 304.41,670.985 304.41,674.319 305.5,677.5C 306.473,679.948 306.806,682.615 306.5,685.5C 304.718,681.999 303.718,678.166 303.5,674C 303.533,671.39 304.2,669.223 305.5,667.5 Z"/></g>
<g><path style="opacity:1" fill="#6f6f6f" d="M 275.5,670.5 C 276.725,671.152 277.392,672.319 277.5,674C 277.392,675.681 276.725,676.848 275.5,677.5C 275.5,675.167 275.5,672.833 275.5,670.5 Z"/></g>
<g><path style="opacity:1" fill="#8e908f" d="M 354.5,669.5 C 355.643,672.976 355.81,676.642 355,680.5C 354.331,682.59 353.164,684.257 351.5,685.5C 354.069,680.543 355.069,675.21 354.5,669.5 Z"/></g>
<g><path style="opacity:1" fill="#060708" d="M 447.5,664.5 C 448.721,671.541 449.388,678.708 449.5,686C 449.5,692.343 449.166,698.509 448.5,704.5C 445.316,702.586 441.649,701.92 437.5,702.5C 437.666,692.494 437.5,682.494 437,672.5C 436.83,682.675 436.33,692.675 435.5,702.5C 435.667,690.829 435.5,679.162 435,667.5C 433.788,663.907 431.621,661.24 428.5,659.5C 428.53,658.503 428.03,657.836 427,657.5C 421.006,653.641 415.172,653.641 409.5,657.5C 403.682,659.724 400.182,664.058 399,670.5C 398.5,681.828 398.333,693.162 398.5,704.5C 394.5,704.5 390.5,704.5 386.5,704.5C 386.5,685.833 386.5,667.167 386.5,648.5C 390.846,648.666 395.179,648.499 399.5,648C 414.021,639.855 427.688,641.189 440.5,652C 441.604,654.772 443.437,656.938 446,658.5C 446.813,660.436 447.313,662.436 447.5,664.5 Z"/></g>
<g><path style="opacity:1" fill="#383a39" d="M 448.5,704.5 C 444.167,704.5 439.833,704.5 435.5,704.5C 435.5,703.833 435.5,703.167 435.5,702.5C 436.33,692.675 436.83,682.675 437,672.5C 437.5,682.494 437.666,692.494 437.5,702.5C 441.649,701.92 445.316,702.586 448.5,704.5 Z"/></g>
<g><path style="opacity:1" fill="#909091" d="M 428.5,659.5 C 422.381,656.719 416.048,656.052 409.5,657.5C 415.172,653.641 421.006,653.641 427,657.5C 428.03,657.836 428.53,658.503 428.5,659.5 Z"/></g>
<g><path style="opacity:1" fill="#050605" d="M 606.5,690.5 C 611.167,690.5 615.833,690.5 620.5,690.5C 620.5,694.5 620.5,698.5 620.5,702.5C 619.677,699.023 619.177,695.356 619,691.5C 618.501,695.152 618.335,698.818 618.5,702.5C 614.4,702.237 610.4,702.57 606.5,703.5C 606.5,699.167 606.5,694.833 606.5,690.5 Z"/></g>
<g><path style="opacity:1" fill="#c0c0c0" d="M 606.5,690.5 C 606.5,694.833 606.5,699.167 606.5,703.5C 610.97,704.486 615.637,704.819 620.5,704.5C 615.36,705.488 610.026,705.821 604.5,705.5C 603.892,700.056 604.558,695.056 606.5,690.5 Z"/></g>
<g><path style="opacity:1" fill="#07080a" d="M 461.5,721.5 C 461.5,718.833 461.5,716.167 461.5,713.5C 465.833,713.5 470.167,713.5 474.5,713.5C 475.489,717.486 476.489,721.486 477.5,725.5C 478.5,725.5 479.5,725.5 480.5,725.5C 480.5,726.5 480.5,727.5 480.5,728.5C 482.784,729.029 484.784,730.029 486.5,731.5C 490.981,732.648 495.648,732.815 500.5,732C 501.416,731.722 502.082,731.222 502.5,730.5C 505.888,728.114 508.555,725.114 510.5,721.5C 511.117,721.389 511.617,721.056 512,720.5C 512.5,714.175 512.666,707.842 512.5,701.5C 511.209,701.263 510.209,701.596 509.5,702.5C 509.167,702.5 508.833,702.5 508.5,702.5C 506.216,703.029 504.216,704.029 502.5,705.5C 496.158,705.666 489.825,705.5 483.5,705C 481.58,703.878 479.58,703.044 477.5,702.5C 476.952,700.468 475.619,699.468 473.5,699.5C 463.506,691.371 459.506,680.704 461.5,667.5C 463.294,665.572 464.294,663.238 464.5,660.5C 472.665,645.637 485.332,639.971 502.5,643.5C 507.73,646.063 512.73,648.896 517.5,652C 520.592,656.977 523.092,662.144 525,667.5C 525.667,685.167 525.667,702.833 525,720.5C 523.452,728.041 519.952,734.374 514.5,739.5C 511.836,740.498 509.503,741.998 507.5,744C 498.167,744.667 488.833,744.667 479.5,744C 478.376,743.751 477.376,743.251 476.5,742.5C 472.833,738.833 469.167,735.167 465.5,731.5C 464.156,728.072 462.822,724.739 461.5,721.5 Z"/></g>
<g><path style="opacity:1" fill="#8a8b8c" d="M 509.5,666.5 C 510.15,666.804 510.817,667.137 511.5,667.5C 512.833,671.833 512.833,676.167 511.5,680.5C 510.818,681.243 510.151,681.909 509.5,682.5C 509.788,679.603 510.455,676.77 511.5,674C 510.664,671.51 509.998,669.01 509.5,666.5 Z"/></g>
<g><path style="opacity:1" fill="#a1a1a1" d="M 476.5,669.5 C 476.5,672.833 476.5,676.167 476.5,679.5C 475.223,678.306 474.556,676.64 474.5,674.5C 474.556,672.36 475.223,670.694 476.5,669.5 Z"/></g>
<g><path style="opacity:1" fill="#f8f8f8" d="M 509.5,666.5 C 509.998,669.01 510.664,671.51 511.5,674C 510.455,676.77 509.788,679.603 509.5,682.5C 509.649,683.552 509.483,684.552 509,685.5C 497.915,695.288 487.415,694.788 477.5,684C 476.852,682.56 476.519,681.06 476.5,679.5C 476.5,676.167 476.5,672.833 476.5,669.5C 477.575,663.512 480.908,659.345 486.5,657C 494.901,655.027 502.234,656.86 508.5,662.5C 509.246,663.736 509.579,665.07 509.5,666.5 Z"/></g>
<g><path style="opacity:1" fill="#6a6a6a" d="M 473.5,699.5 C 475.619,699.468 476.952,700.468 477.5,702.5C 475.381,702.532 474.048,701.532 473.5,699.5 Z"/></g>
<g><path style="opacity:1" fill="#848686" d="M 509.5,702.5 C 510.209,701.596 511.209,701.263 512.5,701.5C 512.666,707.842 512.5,714.175 512,720.5C 511.617,721.056 511.117,721.389 510.5,721.5C 511.086,718.05 511.42,714.55 511.5,711C 511.481,707.748 510.814,704.915 509.5,702.5 Z"/></g>
<g><path style="opacity:1" fill="#333433" d="M 620.5,702.5 C 620.5,703.167 620.5,703.833 620.5,704.5C 615.637,704.819 610.97,704.486 606.5,703.5C 610.4,702.57 614.4,702.237 618.5,702.5C 618.335,698.818 618.501,695.152 619,691.5C 619.177,695.356 619.677,699.023 620.5,702.5 Z"/></g>
<g><path style="opacity:1" fill="#9a9a9a" d="M 351.5,702.5 C 350.32,704.913 348.32,705.913 345.5,705.5C 347.216,704.029 349.216,703.029 351.5,702.5 Z"/></g>
<g><path style="opacity:1" fill="#989899" d="M 351.5,702.5 C 352.568,701.566 353.901,701.232 355.5,701.5C 355.5,702.5 355.5,703.5 355.5,704.5C 359.833,704.5 364.167,704.5 368.5,704.5C 364.03,705.486 359.363,705.819 354.5,705.5C 354.5,704.5 354.5,703.5 354.5,702.5C 353.5,702.5 352.5,702.5 351.5,702.5 Z"/></g>
<g><path style="opacity:1" fill="#989898" d="M 508.5,702.5 C 507.32,704.913 505.32,705.913 502.5,705.5C 504.216,704.029 506.216,703.029 508.5,702.5 Z"/></g>
<g><path style="opacity:1" fill="#939393" d="M 656.5,702.5 C 658.901,703.049 661.235,703.882 663.5,705C 666.482,705.498 669.482,705.665 672.5,705.5C 669.36,706.641 666.027,706.808 662.5,706C 659.98,705.579 657.98,704.412 656.5,702.5 Z"/></g>
<g><path style="opacity:1" fill="#717171" d="M 570.5,692.5 C 576.5,692.5 582.5,692.5 588.5,692.5C 588.5,697.167 588.5,701.833 588.5,706.5C 580.16,706.666 571.827,706.5 563.5,706C 561.294,705.023 559.294,703.857 557.5,702.5C 560.231,703.027 562.898,703.86 565.5,705C 572.826,705.5 580.159,705.666 587.5,705.5C 587.5,701.5 587.5,697.5 587.5,693.5C 581.642,693.822 575.975,693.489 570.5,692.5 Z"/></g>
<g><path style="opacity:1" fill="#b6b7b7" d="M 474.5,713.5 C 470.167,713.5 465.833,713.5 461.5,713.5C 461.5,716.167 461.5,718.833 461.5,721.5C 460.523,718.713 460.19,715.713 460.5,712.5C 465.363,712.181 470.03,712.514 474.5,713.5 Z"/></g>
<g><path style="opacity:1" fill="#808281" d="M 502.5,730.5 C 502.082,731.222 501.416,731.722 500.5,732C 495.648,732.815 490.981,732.648 486.5,731.5C 491.88,731.676 497.213,731.342 502.5,730.5 Z"/></g>
</svg>
