<?xml version="1.0" encoding="UTF-8"?>
<!DOCTYPE svg PUBLIC "-//W3C//DTD SVG 1.1//EN" "http://www.w3.org/Graphics/SVG/1.1/DTD/svg11.dtd">
<svg xmlns="http://www.w3.org/2000/svg" version="1.1" width="1903px" height="1894px" style="shape-rendering:geometricPrecision; text-rendering:geometricPrecision; image-rendering:optimizeQuality; fill-rule:evenodd; clip-rule:evenodd" xmlns:xlink="http://www.w3.org/1999/xlink">
<g><path style="opacity:0.067" fill="#000000" d="M 933.5,175.5 C 951.113,174.702 968.446,176.535 985.5,181C 1007.84,187.223 1029.5,195.223 1050.5,205C 1098.99,229.411 1147.32,254.078 1195.5,279C 1279.43,327.935 1363.09,377.268 1446.5,427C 1491.19,456.998 1531.69,492.165 1568,532.5C 1596.29,563.715 1619.62,598.381 1638,636.5C 1650.49,664.138 1657.16,693.138 1658,723.5C 1659.54,848.494 1660.54,973.494 1661,1098.5C 1659.59,1158.8 1667.59,1217.8 1685,1275.5C 1694.32,1306.14 1705.32,1336.14 1718,1365.5C 1729.51,1397.73 1736.68,1430.89 1739.5,1465C 1739.08,1481.59 1734.25,1496.76 1725,1510.5C 1701.44,1547.73 1669.94,1576.23 1630.5,1596C 1602.41,1607.01 1573.25,1612.18 1543,1611.5C 1525.12,1611.07 1507.28,1609.9 1489.5,1608C 1448.2,1601.78 1406.87,1595.78 1365.5,1590C 1341.72,1586.89 1318.72,1589.89 1296.5,1599C 1285.38,1604.06 1274.38,1609.39 1263.5,1615C 1187.23,1660.14 1108.56,1701.14 1027.5,1738C 1001.6,1749.13 974.602,1755.63 946.5,1757.5C 923.81,1756.4 901.81,1751.9 880.5,1744C 866.273,1738.89 852.273,1733.22 838.5,1727C 795.833,1705.33 753.167,1683.67 710.5,1662C 644.171,1623.84 578.171,1585.17 512.5,1546C 483.663,1529.08 455.329,1511.42 427.5,1493C 371.667,1451.83 323.167,1403.33 282,1347.5C 261.023,1317.21 245.689,1284.21 236,1248.5C 233.311,1235.63 231.644,1222.63 231,1209.5C 229.917,1159.51 229.251,1109.51 229,1059.5C 228.667,952.167 228.333,844.833 228,737.5C 227.78,723.442 226.78,709.442 225,695.5C 219.841,670.53 214.841,645.53 210,620.5C 206.105,584.263 204.771,547.929 206,511.5C 207.465,474.08 220.465,441.413 245,413.5C 264.899,391.311 288.399,374.144 315.5,362C 319.123,360.844 322.789,359.844 326.5,359C 339.452,357.433 352.452,357.1 365.5,358C 399.581,361.678 433.581,366.012 467.5,371C 485.806,373.593 504.14,373.927 522.5,372C 529.037,371.116 535.37,369.449 541.5,367C 553.785,361.191 565.785,354.858 577.5,348C 619.838,322.496 662.505,297.496 705.5,273C 745.323,252.922 784.99,232.589 824.5,212C 859.121,194.293 895.454,182.127 933.5,175.5 Z"/></g>
<g><path style="opacity:0.999" fill="#001825" d="M 915.5,274.5 C 933.083,273.458 950.417,274.958 967.5,279C 973.382,280.405 979.049,282.405 984.5,285C 1124.67,367.919 1265,450.585 1405.5,533C 1425.76,544.937 1445.76,557.27 1465.5,570C 1494.97,597.775 1511.47,631.941 1515,672.5C 1516.38,850.832 1516.72,1029.16 1516,1207.5C 1516.23,1253.86 1499.4,1292.69 1465.5,1324C 1436.11,1342.03 1406.44,1359.53 1376.5,1376.5C 1370.2,1376.26 1364.2,1374.76 1358.5,1372C 1293.4,1344.47 1229.73,1313.97 1167.5,1280.5C 1167.5,1268.5 1167.5,1256.5 1167.5,1244.5C 1157.08,1244.22 1148.08,1247.55 1140.5,1254.5C 1141.58,1257 1142.91,1259.33 1144.5,1261.5C 1148.29,1259.77 1151.96,1257.77 1155.5,1255.5C 1156.5,1261.46 1156.83,1267.46 1156.5,1273.5C 1148.64,1269.4 1140.97,1265.07 1133.5,1260.5C 1129.81,1248.14 1121.47,1243.14 1108.5,1245.5C 1100.6,1242.55 1093.26,1238.55 1086.5,1233.5C 1086.5,1230.83 1086.5,1228.17 1086.5,1225.5C 1082.5,1225.5 1078.5,1225.5 1074.5,1225.5C 1074.06,1210.17 1073.73,1194.84 1073.5,1179.5C 1063.18,1179.36 1054.18,1182.69 1046.5,1189.5C 1047.61,1191.39 1048.44,1193.39 1049,1195.5C 1049.56,1196.02 1050.23,1196.36 1051,1196.5C 1054.59,1194.96 1058.09,1193.29 1061.5,1191.5C 1062.49,1200.32 1062.83,1209.32 1062.5,1218.5C 1049.37,1212.01 1037.03,1204.35 1025.5,1195.5C 1025.5,1190.5 1025.5,1185.5 1025.5,1180.5C 1021.82,1180.33 1018.15,1180.5 1014.5,1181C 1012.42,1181.7 1010.75,1182.86 1009.5,1184.5C 1000.29,1178.73 991.291,1172.73 982.5,1166.5C 990.216,1159.87 993.549,1151.37 992.5,1141C 992.591,1123.42 983.925,1115.09 966.5,1116C 954.56,1121.71 949.227,1131.21 950.5,1144.5C 938.329,1137.66 926.996,1129.66 916.5,1120.5C 916.826,838.49 916.493,556.49 915.5,274.5 Z"/></g>
<g><path style="opacity:1" fill="#032e45" d="M 915.5,274.5 C 916.493,556.49 916.826,838.49 916.5,1120.5C 902.984,1112.32 890.318,1102.98 878.5,1092.5C 897.456,1085.46 902.623,1072.8 894,1054.5C 882.086,1040.92 868.586,1039.08 853.5,1049C 851.003,1052.24 848.336,1055.24 845.5,1058C 841.848,1058.5 838.182,1058.67 834.5,1058.5C 803.184,1033.18 772.184,1007.51 741.5,981.5C 776.663,980.502 811.996,980.168 847.5,980.5C 855.322,993.478 866.655,997.644 881.5,993C 892.652,989.214 898.319,981.381 898.5,969.5C 895.212,951.171 884.212,943.004 865.5,945C 856.85,947.312 850.183,952.312 845.5,960C 802.835,960.5 760.168,960.667 717.5,960.5C 701.242,947.578 685.909,933.578 671.5,918.5C 730.17,918.167 788.837,918.5 847.5,919.5C 858.048,933.97 871.381,937.136 887.5,929C 898.581,919.836 901.081,908.669 895,895.5C 884.48,882.816 871.647,879.982 856.5,887C 852.797,890.367 849.464,894.034 846.5,898C 781.168,898.5 715.834,898.667 650.5,898.5C 639.878,890.545 630.211,881.545 621.5,871.5C 621.333,827.165 621.5,782.832 622,738.5C 625.416,736.208 628.916,734.041 632.5,732C 633.916,729.165 635.583,726.498 637.5,724C 707.5,723.333 777.5,723.333 847.5,724C 858.037,738.549 871.371,741.549 887.5,733C 898.614,723.714 901.114,712.548 895,699.5C 891.965,696.13 888.632,693.13 885,690.5C 884.5,679.172 884.333,667.838 884.5,656.5C 811.833,656.5 739.167,656.5 666.5,656.5C 666.333,645.495 666.5,634.495 667,623.5C 672.454,620.38 676.954,616.213 680.5,611C 736.17,610.167 791.836,610.333 847.5,611.5C 852.41,621.293 860.41,625.96 871.5,625.5C 890.954,624.214 899.788,613.881 898,594.5C 894.665,585.166 888.165,579.333 878.5,577C 864.704,573.904 854.37,578.404 847.5,590.5C 792.167,591.833 736.833,591.833 681.5,590.5C 670.841,573.998 656.841,570.498 639.5,580C 628.732,589.433 626.565,600.6 633,613.5C 636.058,617.062 639.558,620.062 643.5,622.5C 644.173,640.064 644.84,657.564 645.5,675C 717.844,674.875 790.178,675.041 862.5,675.5C 862.666,679.846 862.499,684.179 862,688.5C 855.391,691.61 850.225,696.277 846.5,702.5C 776.571,703.496 706.571,703.83 636.5,703.5C 629.002,691.933 618.336,687.433 604.5,690C 586.751,697.329 581.584,709.829 589,727.5C 592.058,731.062 595.558,734.062 599.5,736.5C 600.83,774.331 600.83,811.998 599.5,849.5C 591.124,843.458 584.124,836.124 578.5,827.5C 589.943,821.273 594.443,811.606 592,798.5C 583.484,782.66 570.651,777.493 553.5,783C 550,785.669 546.667,788.502 543.5,791.5C 519.854,767.683 497.02,743.017 475,717.5C 478.832,675.686 459.998,653.186 418.5,650C 406.213,634.591 394.046,619.091 382,603.5C 378.055,598.607 374.888,593.273 372.5,587.5C 377.236,581.258 382.569,575.424 388.5,570C 400.5,562 412.5,554 424.5,546C 566.164,462.504 707.497,378.504 848.5,294C 868.965,281.348 891.298,274.848 915.5,274.5 Z"/></g>
<g><path style="opacity:0.999" fill="#f5b024" d="M 372.5,587.5 C 374.888,593.273 378.055,598.607 382,603.5C 394.046,619.091 406.213,634.591 418.5,650C 459.998,653.186 478.832,675.686 475,717.5C 497.02,743.017 519.854,767.683 543.5,791.5C 544.44,793.612 545.606,795.612 547,797.5C 555.705,804.537 563.371,812.537 570,821.5C 572.629,823.888 575.462,825.888 578.5,827.5C 584.124,836.124 591.124,843.458 599.5,849.5C 605.833,857.833 613.167,865.167 621.5,871.5C 630.211,881.545 639.878,890.545 650.5,898.5C 656.21,906.544 663.21,913.21 671.5,918.5C 685.909,933.578 701.242,947.578 717.5,960.5C 723.092,965.984 728.758,971.484 734.5,977C 736.078,978.094 737.745,978.928 739.5,979.5C 739.833,980.5 740.5,981.167 741.5,981.5C 772.184,1007.51 803.184,1033.18 834.5,1058.5C 848.305,1070.97 862.971,1082.31 878.5,1092.5C 890.318,1102.98 902.984,1112.32 916.5,1120.5C 926.996,1129.66 938.329,1137.66 950.5,1144.5C 953.746,1148.46 957.746,1151.46 962.5,1153.5C 965.774,1157.15 969.774,1159.81 974.5,1161.5C 976.484,1164.16 979.151,1165.83 982.5,1166.5C 991.291,1172.73 1000.29,1178.73 1009.5,1184.5C 1013.78,1189.65 1019.11,1193.31 1025.5,1195.5C 1037.03,1204.35 1049.37,1212.01 1062.5,1218.5C 1062.5,1219.17 1062.83,1219.5 1063.5,1219.5C 1066.4,1222.79 1070.07,1224.79 1074.5,1225.5C 1077.68,1229.34 1081.68,1232 1086.5,1233.5C 1093.26,1238.55 1100.6,1242.55 1108.5,1245.5C 1110.91,1247.89 1113.58,1250.05 1116.5,1252C 1121.91,1255.37 1127.58,1258.2 1133.5,1260.5C 1140.97,1265.07 1148.64,1269.4 1156.5,1273.5C 1159.88,1276.19 1163.54,1278.53 1167.5,1280.5C 1229.73,1313.97 1293.4,1344.47 1358.5,1372C 1364.2,1374.76 1370.2,1376.26 1376.5,1376.5C 1378.25,1378.22 1380.25,1379.72 1382.5,1381C 1416.49,1393 1450.49,1405 1484.5,1417C 1609.96,1453.9 1640.12,1415.73 1575,1302.5C 1559.75,1277.65 1543.75,1253.32 1527,1229.5C 1526.41,1228.52 1526.74,1227.85 1528,1227.5C 1532.24,1229.73 1535.9,1232.73 1539,1236.5C 1555.67,1261.17 1572.33,1285.83 1589,1310.5C 1605.67,1337.82 1617.67,1367.16 1625,1398.5C 1627.68,1414.75 1626.68,1430.75 1622,1446.5C 1620.97,1449.24 1619.47,1451.57 1617.5,1453.5C 1605.13,1464.93 1590.47,1472.09 1573.5,1475C 1542.75,1477.92 1512.41,1475.59 1482.5,1468C 1421.78,1451.54 1363.11,1429.54 1306.5,1402C 1197.29,1348.76 1092.62,1288.42 992.5,1221C 945.222,1188.06 898.222,1154.72 851.5,1121C 776.007,1062.18 701.674,1001.85 628.5,940C 582.773,894.937 536.44,850.604 489.5,807C 471.983,788.317 454.649,769.483 437.5,750.5C 417.171,751.558 400.338,744.558 387,729.5C 382.431,722.46 379.431,714.794 378,706.5C 378.127,698.091 378.793,689.758 380,681.5C 343.534,638.269 313.867,590.603 291,538.5C 286.023,526.616 282.69,514.283 281,501.5C 279.931,489.34 280.764,477.34 283.5,465.5C 283.137,464.817 282.804,464.15 282.5,463.5C 284.952,456.126 289.285,449.959 295.5,445C 313.573,432.27 333.74,426.437 356,427.5C 382.997,428.432 409.497,432.599 435.5,440C 456.017,445.395 476.351,451.395 496.5,458C 501.877,459.842 506.877,462.342 511.5,465.5C 504.819,466.641 498.153,466.474 491.5,465C 469.505,459.668 447.505,454.335 425.5,449C 403.006,443.35 380.34,442.35 357.5,446C 328.639,454.547 318.805,473.38 328,502.5C 338.164,533.503 352.997,561.837 372.5,587.5 Z"/></g>
<g><path style="opacity:0.999" fill="#b87901" d="M 282.5,463.5 C 282.804,464.15 283.137,464.817 283.5,465.5C 280.764,477.34 279.931,489.34 281,501.5C 282.69,514.283 286.023,526.616 291,538.5C 313.867,590.603 343.534,638.269 380,681.5C 378.793,689.758 378.127,698.091 378,706.5C 379.431,714.794 382.431,722.46 387,729.5C 400.338,744.558 417.171,751.558 437.5,750.5C 454.649,769.483 471.983,788.317 489.5,807C 536.44,850.604 582.773,894.937 628.5,940C 701.674,1001.85 776.007,1062.18 851.5,1121C 898.222,1154.72 945.222,1188.06 992.5,1221C 1092.62,1288.42 1197.29,1348.76 1306.5,1402C 1363.11,1429.54 1421.78,1451.54 1482.5,1468C 1512.41,1475.59 1542.75,1477.92 1573.5,1475C 1590.47,1472.09 1605.13,1464.93 1617.5,1453.5C 1610.47,1474.02 1596.47,1487.19 1575.5,1493C 1558.66,1496.33 1541.66,1497.33 1524.5,1496C 1490.71,1492.18 1457.71,1484.85 1425.5,1474C 1382.13,1458.49 1339.46,1441.32 1297.5,1422.5C 1243.42,1393.11 1189.09,1364.11 1134.5,1335.5C 1130.01,1331.75 1125.01,1328.75 1119.5,1326.5C 1115.9,1322.92 1111.57,1320.59 1106.5,1319.5C 1104.81,1316.32 1102.14,1314.65 1098.5,1314.5C 1092.74,1310.11 1086.74,1305.94 1080.5,1302C 1077.03,1299.93 1073.36,1298.43 1069.5,1297.5C 1069.49,1295.98 1068.82,1294.82 1067.5,1294C 1059.81,1289.16 1052.14,1284.32 1044.5,1279.5C 1042.53,1278.18 1040.53,1276.84 1038.5,1275.5C 1037.48,1276.19 1036.48,1276.86 1035.5,1277.5C 1035.5,1275.83 1035.5,1274.17 1035.5,1272.5C 1029.83,1269.83 1024.17,1267.17 1018.5,1264.5C 1015.51,1260.34 1011.51,1257.67 1006.5,1256.5C 1006.59,1255.5 1006.25,1254.67 1005.5,1254C 1003.51,1253.06 1001.51,1252.23 999.5,1251.5C 990.993,1246.08 982.66,1240.41 974.5,1234.5C 970.857,1230.01 966.19,1227.01 960.5,1225.5C 957.358,1222.53 954.025,1219.7 950.5,1217C 939.31,1209.24 927.976,1201.74 916.5,1194.5C 906.334,1185.67 895.334,1178.01 883.5,1171.5C 883.5,1170.83 883.167,1170.5 882.5,1170.5C 881.04,1168.54 879.373,1166.7 877.5,1165C 863.144,1155.15 849.144,1144.82 835.5,1134C 831.434,1130.97 827.1,1128.47 822.5,1126.5C 820.706,1124.2 818.706,1122.04 816.5,1120C 797.649,1105.97 778.982,1091.8 760.5,1077.5C 753.024,1070.02 744.691,1063.69 735.5,1058.5C 716.277,1040.78 696.277,1023.95 675.5,1008C 668.167,1001.33 660.833,994.667 653.5,988C 650.208,984.862 646.542,982.362 642.5,980.5C 641.206,978.093 639.539,975.926 637.5,974C 631.646,969.636 625.979,965.136 620.5,960.5C 605.5,947.167 590.5,933.833 575.5,920.5C 575.013,919.527 574.513,918.527 574,917.5C 568.265,911.36 562.098,905.694 555.5,900.5C 555.158,899.662 554.492,899.328 553.5,899.5C 523.868,869.368 494.035,839.368 464,809.5C 462.333,807.167 460.667,804.833 459,802.5C 446.167,789 433.333,775.5 420.5,762C 378.763,760.341 360.597,738.841 366,697.5C 356.794,682.397 346.627,668.064 335.5,654.5C 323.756,633.348 312.256,612.015 301,590.5C 289.051,565.32 280.718,538.987 276,511.5C 275.113,499.784 275.446,488.117 277,476.5C 277.784,471.627 279.617,467.294 282.5,463.5 Z"/></g>
<g><path style="opacity:0.999" fill="#fcfdfd" d="M 751.5,531.5 C 766.819,532.833 782.485,533.499 798.5,533.5C 814.337,533.5 830.004,533.167 845.5,532.5C 857.095,514.547 872.095,511.047 890.5,522C 900.154,533.177 900.988,545.01 893,557.5C 875.942,570.978 860.775,569.145 847.5,552C 815.162,551.167 782.828,551.333 750.5,552.5C 745.206,561.902 737.039,566.568 726,566.5C 710.265,565.097 701.432,556.597 699.5,541C 701.261,525.241 710.094,517.074 726,516.5C 737.353,516.692 745.853,521.692 751.5,531.5 Z"/></g>
<g><path style="opacity:0.999" fill="#f7f8f8" d="M 1070.5,528.5 C 1070.5,543.833 1070.5,559.167 1070.5,574.5C 1073.17,574.5 1075.83,574.5 1078.5,574.5C 1080.17,574.5 1081.83,574.5 1083.5,574.5C 1083.78,577.448 1083.44,580.281 1082.5,583C 1070.15,583.833 1057.82,583.666 1045.5,582.5C 1044.63,580.253 1044.29,577.92 1044.5,575.5C 1046.5,575.167 1048.5,574.833 1050.5,574.5C 1053.5,574.5 1056.5,574.5 1059.5,574.5C 1059.83,562.814 1059.5,551.148 1058.5,539.5C 1057.89,539.624 1057.56,539.957 1057.5,540.5C 1054.19,542.153 1050.86,543.82 1047.5,545.5C 1045.25,542.727 1044.58,539.727 1045.5,536.5C 1053.02,531.236 1061.36,528.569 1070.5,528.5 Z"/></g>
<g><path style="opacity:0.999" fill="#f6f6f7" d="M 976.5,574.5 C 979.962,575.482 983.629,575.815 987.5,575.5C 987.5,577.833 987.5,580.167 987.5,582.5C 975.833,582.5 964.167,582.5 952.5,582.5C 952.5,580.5 952.5,578.5 952.5,576.5C 956.833,576.5 961.167,576.5 965.5,576.5C 965.828,564.322 965.495,552.322 964.5,540.5C 960.82,542.451 956.986,544.118 953,545.5C 950.425,543.281 949.592,540.614 950.5,537.5C 955.5,535 960.5,532.5 965.5,530C 969.152,529.501 972.818,529.335 976.5,529.5C 976.5,544.5 976.5,559.5 976.5,574.5 Z"/></g>
<g><path style="opacity:0.999" fill="#f5f6f6" d="M 1012.5,529.5 C 1025.9,528.408 1034.07,534.408 1037,547.5C 1039.33,560.034 1036.16,570.867 1027.5,580C 1009.56,587.447 998.729,581.614 995,562.5C 991.997,546.494 997.83,535.494 1012.5,529.5 Z"/></g>
<g><path style="opacity:0.97" fill="#d1d8dc" d="M 751.5,531.5 C 782.76,532.492 814.093,532.825 845.5,532.5C 830.004,533.167 814.337,533.5 798.5,533.5C 782.485,533.499 766.819,532.833 751.5,531.5 Z"/></g>
<g><path style="opacity:0.999" fill="#071a27" d="M 1013.5,537.5 C 1018.99,537.248 1022.99,539.581 1025.5,544.5C 1019.79,550.352 1013.12,554.685 1005.5,557.5C 1003.95,548.924 1006.62,542.258 1013.5,537.5 Z"/></g>
<g><path style="opacity:0.999" fill="#081b27" d="M 1025.5,554.5 C 1026.65,554.791 1027.32,555.624 1027.5,557C 1027.08,564.062 1024.41,570.062 1019.5,575C 1012.91,576.31 1009.08,573.81 1008,567.5C 1013.73,562.918 1019.57,558.585 1025.5,554.5 Z"/></g>
<g><path style="opacity:0.968" fill="#2d404b" d="M 1070.5,528.5 C 1071.5,543.324 1071.83,558.324 1071.5,573.5C 1074.06,573.198 1076.39,573.532 1078.5,574.5C 1075.83,574.5 1073.17,574.5 1070.5,574.5C 1070.5,559.167 1070.5,543.833 1070.5,528.5 Z"/></g>
<g><path style="opacity:0.947" fill="#5b6a72" d="M 1057.5,540.5 C 1057.56,539.957 1057.89,539.624 1058.5,539.5C 1059.5,551.148 1059.83,562.814 1059.5,574.5C 1056.5,574.5 1053.5,574.5 1050.5,574.5C 1052.95,573.527 1055.61,573.194 1058.5,573.5C 1058.83,562.321 1058.49,551.321 1057.5,540.5 Z"/></g>
<g><path style="opacity:0.999" fill="#fcfdfd" d="M 621.5,871.5 C 613.167,865.167 605.833,857.833 599.5,849.5C 600.83,811.998 600.83,774.331 599.5,736.5C 595.558,734.062 592.058,731.062 589,727.5C 581.584,709.829 586.751,697.329 604.5,690C 618.336,687.433 629.002,691.933 636.5,703.5C 671.332,704.167 706.332,704.5 741.5,704.5C 776.84,704.5 811.84,703.833 846.5,702.5C 850.225,696.277 855.391,691.61 862,688.5C 862.499,684.179 862.666,679.846 862.5,675.5C 790.178,675.041 717.844,674.875 645.5,675C 644.84,657.564 644.173,640.064 643.5,622.5C 639.558,620.062 636.058,617.062 633,613.5C 626.565,600.6 628.732,589.433 639.5,580C 656.841,570.498 670.841,573.998 681.5,590.5C 736.833,591.833 792.167,591.833 847.5,590.5C 854.37,578.404 864.704,573.904 878.5,577C 888.165,579.333 894.665,585.166 898,594.5C 899.788,613.881 890.954,624.214 871.5,625.5C 860.41,625.96 852.41,621.293 847.5,611.5C 791.836,610.333 736.17,610.167 680.5,611C 676.954,616.213 672.454,620.38 667,623.5C 666.5,634.495 666.333,645.495 666.5,656.5C 739.167,656.5 811.833,656.5 884.5,656.5C 884.333,667.838 884.5,679.172 885,690.5C 888.632,693.13 891.965,696.13 895,699.5C 901.114,712.548 898.614,723.714 887.5,733C 871.371,741.549 858.037,738.549 847.5,724C 777.5,723.333 707.5,723.333 637.5,724C 635.583,726.498 633.916,729.165 632.5,732C 628.916,734.041 625.416,736.208 622,738.5C 621.5,782.832 621.333,827.165 621.5,871.5 Z"/></g>
<g><path style="opacity:0.937" fill="#bdc2c5" d="M 964.5,540.5 C 965.495,552.322 965.828,564.322 965.5,576.5C 961.167,576.5 956.833,576.5 952.5,576.5C 952.5,578.5 952.5,580.5 952.5,582.5C 964.167,582.5 975.833,582.5 987.5,582.5C 976.012,583.495 964.345,583.828 952.5,583.5C 950.612,581.012 949.945,578.012 950.5,574.5C 955.167,574.5 959.833,574.5 964.5,574.5C 964.5,563.167 964.5,551.833 964.5,540.5 Z"/></g>
<g><path style="opacity:0.949" fill="#9fa7ab" d="M 976.5,574.5 C 980.5,574.5 984.5,574.5 988.5,574.5C 988.5,577.833 988.5,581.167 988.5,584.5C 976.322,584.828 964.322,584.495 952.5,583.5C 964.345,583.828 976.012,583.495 987.5,582.5C 987.5,580.167 987.5,577.833 987.5,575.5C 983.629,575.815 979.962,575.482 976.5,574.5 Z"/></g>
<g><path style="opacity:0.998" fill="#f7f8f8" d="M 967.5,594.5 C 970.167,594.5 972.833,594.5 975.5,594.5C 975.171,609.676 975.504,624.676 976.5,639.5C 980.5,639.5 984.5,639.5 988.5,639.5C 988.5,642.5 988.5,645.5 988.5,648.5C 975.833,648.5 963.167,648.5 950.5,648.5C 950.5,645.5 950.5,642.5 950.5,639.5C 955.167,639.5 959.833,639.5 964.5,639.5C 965.824,627.993 965.824,616.327 964.5,604.5C 963.893,604.624 963.56,604.957 963.5,605.5C 959.476,607.211 955.476,608.878 951.5,610.5C 951.145,607.933 950.479,605.433 949.5,603C 955.111,599.361 961.111,596.528 967.5,594.5 Z"/></g>
<g><path style="opacity:0.999" fill="#f5f6f6" d="M 1012.5,594.5 C 1026.33,593.496 1034.5,599.83 1037,613.5C 1038.56,622.661 1037.22,631.328 1033,639.5C 1023.12,650.088 1012.45,651.088 1001,642.5C 992.423,628.74 992.423,615.073 1001,601.5C 1004.51,598.5 1008.35,596.167 1012.5,594.5 Z"/></g>
<g><path style="opacity:0.998" fill="#fdfdfd" d="M 1131.5,640.5 C 1131.5,643.167 1131.5,645.833 1131.5,648.5C 1118.83,648.5 1106.17,648.5 1093.5,648.5C 1093.5,645.833 1093.5,643.167 1093.5,640.5C 1098.17,640.5 1102.83,640.5 1107.5,640.5C 1108.82,628.993 1108.82,617.327 1107.5,605.5C 1106.89,605.624 1106.56,605.957 1106.5,606.5C 1102.74,607.881 1099.07,609.547 1095.5,611.5C 1094.17,608.842 1092.84,606.176 1091.5,603.5C 1096.39,600.886 1101.39,598.553 1106.5,596.5C 1110.47,595.838 1114.47,595.505 1118.5,595.5C 1118.5,610.5 1118.5,625.5 1118.5,640.5C 1122.83,640.5 1127.17,640.5 1131.5,640.5 Z"/></g>
<g><path style="opacity:0.999" fill="#f5f6f6" d="M 1059.5,596.5 C 1072.92,594.752 1081.42,600.419 1085,613.5C 1087.18,624.423 1085.18,634.423 1079,643.5C 1071.76,649.631 1063.59,651.131 1054.5,648C 1045.79,641.406 1041.79,632.573 1042.5,621.5C 1042.98,609.51 1048.65,601.176 1059.5,596.5 Z"/></g>
<g><path style="opacity:0.999" fill="#f5f6f6" d="M 1142.5,649.5 C 1142.5,646.833 1142.5,644.167 1142.5,641.5C 1147.03,641.818 1151.37,641.485 1155.5,640.5C 1156.49,629.679 1156.83,618.679 1156.5,607.5C 1152,609.419 1147.33,610.752 1142.5,611.5C 1142.24,609.063 1141.58,606.729 1140.5,604.5C 1146.17,601.667 1151.83,598.833 1157.5,596C 1160.82,595.502 1164.15,595.335 1167.5,595.5C 1167.5,610.833 1167.5,626.167 1167.5,641.5C 1171.5,641.5 1175.5,641.5 1179.5,641.5C 1179.5,644.5 1179.5,647.5 1179.5,650.5C 1167.09,650.813 1154.75,650.479 1142.5,649.5 Z"/></g>
<g><path style="opacity:0.999" fill="#081a27" d="M 1013.5,602.5 C 1020.28,601.942 1023.78,604.942 1024,611.5C 1018.52,616.244 1012.52,620.244 1006,623.5C 1004.47,614.882 1006.97,607.882 1013.5,602.5 Z"/></g>
<g><path style="opacity:1" fill="#071a26" d="M 1059.5,604.5 C 1065.59,603.097 1069.92,605.097 1072.5,610.5C 1072.12,612.383 1071.12,613.883 1069.5,615C 1064.84,618.666 1059.84,621.833 1054.5,624.5C 1052.13,616.742 1053.8,610.075 1059.5,604.5 Z"/></g>
<g><path style="opacity:0.918" fill="#abb2b5" d="M 967.5,594.5 C 970.287,593.523 973.287,593.19 976.5,593.5C 976.5,608.833 976.5,624.167 976.5,639.5C 975.504,624.676 975.171,609.676 975.5,594.5C 972.833,594.5 970.167,594.5 967.5,594.5 Z"/></g>
<g><path style="opacity:0.999" fill="#091b28" d="M 1025.5,619.5 C 1026.73,620.152 1027.39,621.319 1027.5,623C 1026.88,627.651 1025.71,632.151 1024,636.5C 1018.33,642.102 1012.99,641.768 1008,635.5C 1007.33,634.5 1007.33,633.5 1008,632.5C 1013.73,627.918 1019.57,623.585 1025.5,619.5 Z"/></g>
<g><path style="opacity:0.971" fill="#77848a" d="M 1131.5,640.5 C 1127.17,640.5 1122.83,640.5 1118.5,640.5C 1118.5,625.5 1118.5,610.5 1118.5,595.5C 1114.47,595.505 1110.47,595.838 1106.5,596.5C 1107.26,595.732 1108.26,595.232 1109.5,595C 1112.82,594.502 1116.15,594.335 1119.5,594.5C 1119.5,609.5 1119.5,624.5 1119.5,639.5C 1123.7,639.183 1127.7,639.517 1131.5,640.5 Z"/></g>
<g><path style="opacity:0.999" fill="#061925" d="M 1072.5,621.5 C 1075.07,626.63 1074.9,631.964 1072,637.5C 1068.15,641.671 1063.65,642.504 1058.5,640C 1056.38,638.263 1055.54,636.096 1056,633.5C 1061.4,629.25 1066.9,625.25 1072.5,621.5 Z"/></g>
<g><path style="opacity:0.945" fill="#bfc4c7" d="M 1106.5,606.5 C 1106.56,605.957 1106.89,605.624 1107.5,605.5C 1108.82,617.327 1108.82,628.993 1107.5,640.5C 1107.83,628.988 1107.49,617.654 1106.5,606.5 Z"/></g>
<g><path style="opacity:0.949" fill="#6d7a81" d="M 963.5,605.5 C 963.56,604.957 963.893,604.624 964.5,604.5C 965.824,616.327 965.824,627.993 964.5,639.5C 964.828,627.988 964.495,616.654 963.5,605.5 Z"/></g>
<g><path style="opacity:0.95" fill="#7e8a90" d="M 1155.5,640.5 C 1151.37,641.485 1147.03,641.818 1142.5,641.5C 1142.5,644.167 1142.5,646.833 1142.5,649.5C 1141.52,646.713 1141.19,643.713 1141.5,640.5C 1146.17,640.5 1150.83,640.5 1155.5,640.5 Z"/></g>
<g><path style="opacity:0.937" fill="#c2c8ca" d="M 1093.5,640.5 C 1093.5,643.167 1093.5,645.833 1093.5,648.5C 1106.17,648.5 1118.83,648.5 1131.5,648.5C 1118.68,649.495 1105.68,649.829 1092.5,649.5C 1092.19,646.287 1092.52,643.287 1093.5,640.5 Z"/></g>
<g><path style="opacity:1" fill="#032e45" d="M 335.5,654.5 C 346.627,668.064 356.794,682.397 366,697.5C 360.597,738.841 378.763,760.341 420.5,762C 433.333,775.5 446.167,789 459,802.5C 460.667,804.833 462.333,807.167 464,809.5C 494.035,839.368 523.868,869.368 553.5,899.5C 553.825,928.907 553.491,958.24 552.5,987.5C 538.862,994.794 534.695,1005.79 540,1020.5C 547.145,1032.48 557.645,1036.98 571.5,1034C 586.932,1029.2 593.432,1018.7 591,1002.5C 589.92,1000 588.586,997.67 587,995.5C 583.034,992.536 579.367,989.203 576,985.5C 575.5,963.836 575.333,942.169 575.5,920.5C 590.5,933.833 605.5,947.167 620.5,960.5C 620.832,972.186 620.499,983.852 619.5,995.5C 606.16,1002.85 601.66,1013.85 606,1028.5C 615.735,1043.56 628.902,1047.4 645.5,1040C 660.022,1029.93 662.189,1017.76 652,1003.5C 648.667,1000.83 645.333,998.167 642,995.5C 641.337,990.463 641.504,985.463 642.5,980.5C 646.542,982.362 650.208,984.862 653.5,988C 660.833,994.667 668.167,1001.33 675.5,1008C 696.277,1023.95 716.277,1040.78 735.5,1058.5C 688.499,1058.67 641.499,1058.5 594.5,1058C 582.527,1042.11 568.194,1039.44 551.5,1050C 538.422,1065.89 540.422,1079.72 557.5,1091.5C 558.833,1116.83 558.833,1142.17 557.5,1167.5C 542.954,1176.06 539.12,1188.06 546,1203.5C 555.744,1215.76 567.91,1218.92 582.5,1213C 585.797,1210.7 588.797,1208.04 591.5,1205C 651.833,1204.33 712.167,1204.33 772.5,1205C 780.515,1218.6 792.182,1222.94 807.5,1218C 820.623,1212 825.79,1201.84 823,1187.5C 816.314,1173.4 805.148,1167.57 789.5,1170C 781.569,1172.43 775.569,1177.26 771.5,1184.5C 712.837,1185.5 654.17,1185.83 595.5,1185.5C 593.45,1177.11 588.45,1171.11 580.5,1167.5C 579.334,1142.51 579.167,1117.51 580,1092.5C 586.859,1089.64 591.692,1084.81 594.5,1078C 649.832,1077.5 705.166,1077.33 760.5,1077.5C 778.982,1091.8 797.649,1105.97 816.5,1120C 818.706,1122.04 820.706,1124.2 822.5,1126.5C 776.499,1126.67 730.499,1126.5 684.5,1126C 673.94,1109.62 659.94,1105.95 642.5,1115C 627.839,1128.62 627.839,1142.29 642.5,1156C 658.755,1164.59 672.088,1161.43 682.5,1146.5C 736.83,1145.33 791.164,1145.17 845.5,1146C 849.055,1152.55 854.221,1157.39 861,1160.5C 861.5,1185.83 861.667,1211.16 861.5,1236.5C 798.163,1236.83 734.83,1236.5 671.5,1235.5C 661.709,1219.64 648.376,1215.8 631.5,1224C 618.664,1233.19 616.164,1244.69 624,1258.5C 634.378,1271.4 646.878,1273.9 661.5,1266C 664.704,1262.96 667.704,1259.8 670.5,1256.5C 741.5,1256.5 812.5,1256.5 883.5,1256.5C 883.5,1228.17 883.5,1199.83 883.5,1171.5C 895.334,1178.01 906.334,1185.67 916.5,1194.5C 916.667,1331.83 916.5,1469.17 916,1606.5C 915.667,1609.17 915.333,1611.83 915,1614.5C 914.764,1616.12 913.931,1617.12 912.5,1617.5C 891.403,1617.1 871.736,1611.6 853.5,1601C 713.332,1517.41 572.998,1434.08 432.5,1351C 416.984,1341.74 401.984,1331.74 387.5,1321C 372.546,1306.55 359.379,1290.72 348,1273.5C 339.447,1255.5 334.78,1236.5 334,1216.5C 333.43,1206.34 332.93,1196.17 332.5,1186C 333.08,1167.34 333.414,1148.67 333.5,1130C 331.847,1003.17 331.347,876.337 332,749.5C 332.052,717.76 333.219,686.093 335.5,654.5 Z"/></g>
<g><path style="opacity:0.999" fill="#f6f7f7" d="M 1061.5,660.5 C 1064.17,660.5 1066.83,660.5 1069.5,660.5C 1069.5,675.5 1069.5,690.5 1069.5,705.5C 1073.83,705.5 1078.17,705.5 1082.5,705.5C 1082.5,708.5 1082.5,711.5 1082.5,714.5C 1069.83,714.5 1057.17,714.5 1044.5,714.5C 1044.5,711.5 1044.5,708.5 1044.5,705.5C 1049.17,705.5 1053.83,705.5 1058.5,705.5C 1058.83,694.147 1058.5,682.814 1057.5,671.5C 1053.95,673.441 1050.29,675.107 1046.5,676.5C 1043.85,674.451 1043.02,671.784 1044,668.5C 1049.26,664.366 1055.1,661.7 1061.5,660.5 Z"/></g>
<g><path style="opacity:0.999" fill="#fafbfb" d="M 1169.5,659.5 C 1169.5,674.833 1169.5,690.167 1169.5,705.5C 1173.5,705.5 1177.5,705.5 1181.5,705.5C 1181.5,708.167 1181.5,710.833 1181.5,713.5C 1169.17,713.5 1156.83,713.5 1144.5,713.5C 1144.5,710.833 1144.5,708.167 1144.5,705.5C 1149.17,705.5 1153.83,705.5 1158.5,705.5C 1158.5,694.167 1158.5,682.833 1158.5,671.5C 1154.62,672.577 1150.95,674.244 1147.5,676.5C 1144.97,674.606 1143.3,672.106 1142.5,669C 1150.53,662.981 1159.53,659.814 1169.5,659.5 Z"/></g>
<g><path style="opacity:0.999" fill="#f6f7f7" d="M 967.5,660.5 C 981.057,659.712 989.223,666.045 992,679.5C 994.276,691.744 991.109,702.244 982.5,711C 964.841,718.92 954.007,713.42 950,694.5C 947.192,678.443 953.026,667.109 967.5,660.5 Z"/></g>
<g><path style="opacity:0.999" fill="#f5f7f7" d="M 1037.5,714.5 C 1025.17,714.5 1012.83,714.5 1000.5,714.5C 1000.5,711.833 1000.5,709.167 1000.5,706.5C 1005.29,707.097 1009.63,706.43 1013.5,704.5C 1014.82,693.66 1014.82,682.66 1013.5,671.5C 1012.89,671.624 1012.56,671.957 1012.5,672.5C 1008.71,673.898 1005.04,675.564 1001.5,677.5C 1000.31,675.258 999.308,672.925 998.5,670.5C 1006.11,663.531 1015.11,660.198 1025.5,660.5C 1025.5,675.833 1025.5,691.167 1025.5,706.5C 1029.5,706.5 1033.5,706.5 1037.5,706.5C 1037.5,709.167 1037.5,711.833 1037.5,714.5 Z"/></g>
<g><path style="opacity:0.999" fill="#f6f7f8" d="M 1106.5,661.5 C 1121.31,659.471 1130.14,665.804 1133,680.5C 1134.68,692.787 1131.18,703.287 1122.5,712C 1105.66,718.498 1095.16,712.998 1091,695.5C 1087.35,679.825 1092.51,668.492 1106.5,661.5 Z"/></g>
<g><path style="opacity:0.999" fill="#f7f7f8" d="M 1206.5,661.5 C 1221.74,659.568 1230.58,666.234 1233,681.5C 1234.52,692.918 1231.36,702.751 1223.5,711C 1207.6,718.59 1196.76,714.09 1191,697.5C 1187.2,681.323 1192.37,669.323 1206.5,661.5 Z"/></g>
<g><path style="opacity:0.999" fill="#071b28" d="M 1107.5,669.5 C 1122.55,670.988 1123.88,675.822 1111.5,684C 1108.14,686.546 1104.47,688.379 1100.5,689.5C 1100.09,681.739 1102.42,675.072 1107.5,669.5 Z"/></g>
<g><path style="opacity:0.999" fill="#071b28" d="M 1207.5,669.5 C 1212.74,668.538 1216.91,670.205 1220,674.5C 1220.67,675.5 1220.67,676.5 1220,677.5C 1214.59,681.457 1209.09,685.29 1203.5,689C 1202.55,689.483 1201.55,689.649 1200.5,689.5C 1199.68,681.622 1202.01,674.955 1207.5,669.5 Z"/></g>
<g><path style="opacity:1" fill="#0b1d29" d="M 968.5,668.5 C 981.694,670.907 982.694,675.74 971.5,683C 967.964,685.366 964.297,687.533 960.5,689.5C 958.452,680.637 961.119,673.637 968.5,668.5 Z"/></g>
<g><path style="opacity:0.947" fill="#30424c" d="M 1169.5,659.5 C 1170.5,674.324 1170.83,689.324 1170.5,704.5C 1174.7,704.183 1178.7,704.517 1182.5,705.5C 1182.17,705.5 1181.83,705.5 1181.5,705.5C 1177.5,705.5 1173.5,705.5 1169.5,705.5C 1169.5,690.167 1169.5,674.833 1169.5,659.5 Z"/></g>
<g><path style="opacity:0.999" fill="#071a27" d="M 1119.5,686.5 C 1120.5,686.5 1121.5,686.5 1122.5,686.5C 1122.63,693.165 1120.96,699.332 1117.5,705C 1112.28,708.691 1107.78,707.857 1104,702.5C 1103.33,701.167 1103.33,699.833 1104,698.5C 1109.35,694.636 1114.52,690.636 1119.5,686.5 Z"/></g>
<g><path style="opacity:0.999" fill="#081a27" d="M 979.5,686.5 C 980.748,687.334 981.415,688.667 981.5,690.5C 981.399,697.678 978.399,703.178 972.5,707C 966.506,707.262 963.34,704.428 963,698.5C 968.402,694.25 973.902,690.25 979.5,686.5 Z"/></g>
<g><path style="opacity:0.969" fill="#7c898f" d="M 1012.5,672.5 C 1012.56,671.957 1012.89,671.624 1013.5,671.5C 1014.82,682.66 1014.82,693.66 1013.5,704.5C 1013.83,693.654 1013.49,682.987 1012.5,672.5 Z"/></g>
<g><path style="opacity:0.999" fill="#061926" d="M 1219.5,686.5 C 1220.5,686.5 1221.5,686.5 1222.5,686.5C 1222.51,692.114 1221.34,697.447 1219,702.5C 1214,709.167 1209,709.167 1204,702.5C 1203.33,701.167 1203.33,699.833 1204,698.5C 1208.78,693.875 1213.95,689.875 1219.5,686.5 Z"/></g>
<g><path style="opacity:0.92" fill="#9ba9b2" d="M 846.5,702.5 C 811.84,703.833 776.84,704.5 741.5,704.5C 706.332,704.5 671.332,704.167 636.5,703.5C 706.571,703.83 776.571,703.496 846.5,702.5 Z"/></g>
<g><path style="opacity:0.978" fill="#c1c7ca" d="M 1144.5,705.5 C 1144.5,708.167 1144.5,710.833 1144.5,713.5C 1156.83,713.5 1169.17,713.5 1181.5,713.5C 1181.5,710.833 1181.5,708.167 1181.5,705.5C 1181.83,705.5 1182.17,705.5 1182.5,705.5C 1182.5,708.5 1182.5,711.5 1182.5,714.5C 1169.5,714.5 1156.5,714.5 1143.5,714.5C 1143.19,711.287 1143.52,708.287 1144.5,705.5 Z"/></g>
<g><path style="opacity:0.959" fill="#869198" d="M 1013.5,704.5 C 1009.63,706.43 1005.29,707.097 1000.5,706.5C 1000.5,709.167 1000.5,711.833 1000.5,714.5C 1012.83,714.5 1025.17,714.5 1037.5,714.5C 1025.01,715.66 1012.34,715.827 999.5,715C 998.167,712 998.167,709 999.5,706C 1004.18,705.565 1008.85,705.065 1013.5,704.5 Z"/></g>
<g><path style="opacity:1" fill="#f6f7f7" d="M 1244.5,767.5 C 1247.5,767.5 1250.5,767.5 1253.5,767.5C 1253.83,756.147 1253.5,744.814 1252.5,733.5C 1251.89,733.624 1251.56,733.957 1251.5,734.5C 1247.72,736.383 1243.72,737.716 1239.5,738.5C 1239.45,735.687 1238.79,733.021 1237.5,730.5C 1242.49,728.004 1247.49,725.504 1252.5,723C 1256.49,722.501 1260.49,722.334 1264.5,722.5C 1264.5,737.5 1264.5,752.5 1264.5,767.5C 1268.5,767.5 1272.5,767.5 1276.5,767.5C 1276.5,770.5 1276.5,773.5 1276.5,776.5C 1263.83,776.5 1251.17,776.5 1238.5,776.5C 1238.5,773.5 1238.5,770.5 1238.5,767.5C 1240.5,767.5 1242.5,767.5 1244.5,767.5 Z"/></g>
<g><path style="opacity:0.999" fill="#f6f7f7" d="M 966.5,723.5 C 969.5,723.5 972.5,723.5 975.5,723.5C 975.5,738.5 975.5,753.5 975.5,768.5C 979.81,769.08 984.143,769.414 988.5,769.5C 988.5,771.833 988.5,774.167 988.5,776.5C 976.2,777.607 963.866,777.773 951.5,777C 950.167,774.333 950.167,771.667 951.5,769C 955.821,768.501 960.154,768.334 964.5,768.5C 964.832,757.147 964.499,745.814 963.5,734.5C 960.008,736.27 956.508,737.937 953,739.5C 951.09,737.799 949.923,735.633 949.5,733C 954.362,728.286 960.028,725.119 966.5,723.5 Z"/></g>
<g><path style="opacity:0.999" fill="#f3f4f5" d="M 1015.5,722.5 C 1018.83,722.5 1022.17,722.5 1025.5,722.5C 1025.5,737.5 1025.5,752.5 1025.5,767.5C 1029.5,767.5 1033.5,767.5 1037.5,767.5C 1037.66,770.518 1037.5,773.518 1037,776.5C 1036.28,777.059 1035.44,777.392 1034.5,777.5C 1022.87,776.541 1011.2,776.208 999.5,776.5C 999.5,773.5 999.5,770.5 999.5,767.5C 1004.17,767.5 1008.83,767.5 1013.5,767.5C 1013.5,756.5 1013.5,745.5 1013.5,734.5C 1009.3,735.596 1005.3,737.262 1001.5,739.5C 997.045,734.568 997.712,730.734 1003.5,728C 1007.48,725.854 1011.48,724.02 1015.5,722.5 Z"/></g>
<g><path style="opacity:0.999" fill="#f6f7f7" d="M 1061.5,722.5 C 1075.7,721.864 1084.2,728.531 1087,742.5C 1088.32,754.405 1084.82,764.572 1076.5,773C 1059.87,779.934 1049.37,774.767 1045,757.5C 1044.16,750.433 1044.49,743.433 1046,736.5C 1048.87,729.124 1054.04,724.457 1061.5,722.5 Z"/></g>
<g><path style="opacity:0.998" fill="#fafafa" d="M 1228.5,769.5 C 1228.5,771.833 1228.5,774.167 1228.5,776.5C 1215.83,776.5 1203.17,776.5 1190.5,776.5C 1190.5,773.833 1190.5,771.167 1190.5,768.5C 1195.5,768.5 1200.5,768.5 1205.5,768.5C 1205.83,756.988 1205.49,745.654 1204.5,734.5C 1200.74,735.881 1197.07,737.547 1193.5,739.5C 1191.45,737.185 1190.29,734.519 1190,731.5C 1197.78,725.407 1206.61,722.407 1216.5,722.5C 1216.5,737.833 1216.5,753.167 1216.5,768.5C 1220.6,768.237 1224.6,768.57 1228.5,769.5 Z"/></g>
<g><path style="opacity:0.999" fill="#f7f7f8" d="M 1109.5,723.5 C 1122.4,722.366 1130.57,728.033 1134,740.5C 1136.22,752.767 1133.39,763.6 1125.5,773C 1110.3,780.914 1099.47,777.081 1093,761.5C 1088.68,748.087 1091.51,736.587 1101.5,727C 1104.16,725.522 1106.82,724.355 1109.5,723.5 Z"/></g>
<g><path style="opacity:0.999" fill="#f8f8f9" d="M 1159.5,723.5 C 1171.51,722.672 1179.34,728.005 1183,739.5C 1184.07,747.994 1183.4,756.328 1181,764.5C 1178.31,770.529 1173.81,774.362 1167.5,776C 1153.88,778.441 1145.38,772.941 1142,759.5C 1140.84,750.962 1141.51,742.629 1144,734.5C 1147.75,728.72 1152.91,725.054 1159.5,723.5 Z"/></g>
<g><path style="opacity:0.999" fill="#061926" d="M 1060.5,731.5 C 1064.91,731.021 1069.08,731.688 1073,733.5C 1073.64,734.609 1074.14,735.775 1074.5,737C 1069.2,742.78 1062.86,747.28 1055.5,750.5C 1053.87,743.226 1055.54,736.892 1060.5,731.5 Z"/></g>
<g><path style="opacity:0.999" fill="#0a1c29" d="M 1159.5,731.5 C 1162.25,731.187 1164.91,731.52 1167.5,732.5C 1168.96,734.583 1170.29,736.75 1171.5,739C 1165.57,744.458 1158.91,748.624 1151.5,751.5C 1150.09,743.027 1152.76,736.36 1159.5,731.5 Z"/></g>
<g><path style="opacity:1" fill="#081a27" d="M 1110.5,731.5 C 1116.45,730.441 1120.45,732.774 1122.5,738.5C 1116.45,743.853 1109.78,748.187 1102.5,751.5C 1100.4,742.654 1103.07,735.988 1110.5,731.5 Z"/></g>
<g><path style="opacity:0.999" fill="#fcfcfc" d="M 703.5,782.5 C 702.503,802.993 702.169,823.66 702.5,844.5C 750.003,844.832 797.336,844.499 844.5,843.5C 848.45,835.049 854.617,828.716 863,824.5C 863.499,819.511 863.666,814.511 863.5,809.5C 826.167,809.5 788.833,809.5 751.5,809.5C 751.666,800.827 751.5,792.16 751,783.5C 734.817,774.507 730.817,761.841 739,745.5C 753.027,731.61 767.694,730.943 783,743.5C 792.454,758.734 789.787,771.4 775,781.5C 774.209,782.745 773.709,784.078 773.5,785.5C 772.549,786.919 772.216,788.585 772.5,790.5C 809.833,790.5 847.167,790.5 884.5,790.5C 884.333,802.505 884.5,814.505 885,826.5C 898.889,835.506 902.222,847.506 895,862.5C 887.284,871.775 877.451,875.608 865.5,874C 859.325,870.412 852.991,867.078 846.5,864C 791.501,863.857 736.501,864.024 681.5,864.5C 681.5,836.833 681.5,809.167 681.5,781.5C 668.371,776.832 662.871,767.499 665,753.5C 674.086,733.705 688.253,728.871 707.5,739C 720.001,749.169 721.834,761.002 713,774.5C 709.855,777.304 706.688,779.97 703.5,782.5 Z"/></g>
<g><path style="opacity:0.999" fill="#081a27" d="M 1074.5,747.5 C 1077.07,754.704 1075.41,761.204 1069.5,767C 1065.91,769.149 1062.58,768.816 1059.5,766C 1057.67,764.511 1056.83,762.678 1057,760.5C 1062.46,755.536 1068.29,751.203 1074.5,747.5 Z"/></g>
<g><path style="opacity:0.999" fill="#071a26" d="M 1122.5,749.5 C 1123.46,751.265 1123.79,753.265 1123.5,755.5C 1123.16,764.677 1118.49,769.177 1109.5,769C 1103.47,765.651 1103.14,761.985 1108.5,758C 1112.81,754.517 1117.47,751.683 1122.5,749.5 Z"/></g>
<g><path style="opacity:1" fill="#081b27" d="M 1171.5,748.5 C 1172.78,749.694 1173.44,751.36 1173.5,753.5C 1173.07,758.697 1171.24,763.364 1168,767.5C 1162.59,769.567 1157.92,768.567 1154,764.5C 1153.33,763.5 1153.33,762.5 1154,761.5C 1159.46,756.536 1165.29,752.203 1171.5,748.5 Z"/></g>
<g><path style="opacity:0.969" fill="#7f898f" d="M 1122.5,749.5 C 1122.56,748.957 1122.89,748.624 1123.5,748.5C 1124.8,750.973 1124.8,753.307 1123.5,755.5C 1123.79,753.265 1123.46,751.265 1122.5,749.5 Z"/></g>
<g><path style="opacity:0.965" fill="#2f424d" d="M 1251.5,734.5 C 1251.56,733.957 1251.89,733.624 1252.5,733.5C 1253.5,744.814 1253.83,756.147 1253.5,767.5C 1250.5,767.5 1247.5,767.5 1244.5,767.5C 1246.95,766.527 1249.61,766.194 1252.5,766.5C 1252.83,755.654 1252.49,744.987 1251.5,734.5 Z"/></g>
<g><path style="opacity:0.929" fill="#57666e" d="M 1204.5,734.5 C 1205.49,745.654 1205.83,756.988 1205.5,768.5C 1200.5,768.5 1195.5,768.5 1190.5,768.5C 1194.97,767.514 1199.64,767.181 1204.5,767.5C 1204.5,756.5 1204.5,745.5 1204.5,734.5 Z"/></g>
<g><path style="opacity:0.943" fill="#afb6ba" d="M 1228.5,769.5 C 1229.47,771.948 1229.81,774.615 1229.5,777.5C 1216.32,777.829 1203.32,777.495 1190.5,776.5C 1203.17,776.5 1215.83,776.5 1228.5,776.5C 1228.5,774.167 1228.5,771.833 1228.5,769.5 Z"/></g>
<g><path style="opacity:0.999" fill="#fcfcfb" d="M 578.5,827.5 C 575.462,825.888 572.629,823.888 570,821.5C 563.371,812.537 555.705,804.537 547,797.5C 545.606,795.612 544.44,793.612 543.5,791.5C 546.667,788.502 550,785.669 553.5,783C 570.651,777.493 583.484,782.66 592,798.5C 594.443,811.606 589.943,821.273 578.5,827.5 Z"/></g>
<g><path style="opacity:0.999" fill="#f4f4f5" d="M 1205.5,786.5 C 1209.17,786.5 1212.83,786.5 1216.5,786.5C 1216.5,801.5 1216.5,816.5 1216.5,831.5C 1220.5,831.5 1224.5,831.5 1228.5,831.5C 1228.5,834.5 1228.5,837.5 1228.5,840.5C 1215.83,840.5 1203.17,840.5 1190.5,840.5C 1190.5,837.5 1190.5,834.5 1190.5,831.5C 1195.17,831.5 1199.83,831.5 1204.5,831.5C 1204.83,820.147 1204.5,808.814 1203.5,797.5C 1200.06,799.303 1196.56,800.97 1193,802.5C 1190.32,800.129 1189.48,797.296 1190.5,794C 1195.59,791.454 1200.59,788.954 1205.5,786.5 Z"/></g>
<g><path style="opacity:0.999" fill="#f7f8f8" d="M 1013.5,787.5 C 1030.56,787.558 1038.89,796.225 1038.5,813.5C 1038.13,835.393 1027.47,843.893 1006.5,839C 994.656,826.754 992.489,812.92 1000,797.5C 1003.06,792.069 1007.56,788.735 1013.5,787.5 Z"/></g>
<g><path style="opacity:0.998" fill="#f9fafa" d="M 1074.5,832.5 C 1076.95,833.473 1079.61,833.806 1082.5,833.5C 1082.5,835.833 1082.5,838.167 1082.5,840.5C 1070.5,840.5 1058.5,840.5 1046.5,840.5C 1046.5,837.833 1046.5,835.167 1046.5,832.5C 1047.83,832.5 1049.17,832.5 1050.5,832.5C 1053.83,832.5 1057.17,832.5 1060.5,832.5C 1060.83,821.147 1060.5,809.814 1059.5,798.5C 1058.89,798.624 1058.56,798.957 1058.5,799.5C 1054.96,800.267 1051.63,801.6 1048.5,803.5C 1046.9,801.573 1045.56,799.406 1044.5,797C 1052.07,789.888 1061.07,786.721 1071.5,787.5C 1071.5,802.5 1071.5,817.5 1071.5,832.5C 1072.5,832.5 1073.5,832.5 1074.5,832.5 Z"/></g>
<g><path style="opacity:0.998" fill="#fbfdfd" d="M 1107.5,787.5 C 1110.17,787.5 1112.83,787.5 1115.5,787.5C 1115.5,802.5 1115.5,817.5 1115.5,832.5C 1119.5,832.5 1123.5,832.5 1127.5,832.5C 1127.5,835.167 1127.5,837.833 1127.5,840.5C 1115.17,840.5 1102.83,840.5 1090.5,840.5C 1090.5,837.833 1090.5,835.167 1090.5,832.5C 1095.5,832.5 1100.5,832.5 1105.5,832.5C 1105.83,820.814 1105.5,809.148 1104.5,797.5C 1103.89,797.624 1103.56,797.957 1103.5,798.5C 1099.78,799.966 1096.11,801.633 1092.5,803.5C 1090.97,801.249 1089.97,798.749 1089.5,796C 1094.86,791.823 1100.86,788.989 1107.5,787.5 Z"/></g>
<g><path style="opacity:0.999" fill="#fcfcfc" d="M 978.5,832.5 C 981.962,833.482 985.629,833.815 989.5,833.5C 989.5,836.167 989.5,838.833 989.5,841.5C 977.167,841.5 964.833,841.5 952.5,841.5C 952.5,838.833 952.5,836.167 952.5,833.5C 957.363,833.819 962.03,833.486 966.5,832.5C 966.832,821.147 966.499,809.814 965.5,798.5C 961.993,800.754 958.327,802.754 954.5,804.5C 953.209,802.129 952.209,799.629 951.5,797C 959,790.755 967.666,787.588 977.5,787.5C 977.171,802.676 977.504,817.676 978.5,832.5 Z"/></g>
<g><path style="opacity:0.999" fill="#f5f6f6" d="M 1155.5,787.5 C 1172.28,788.156 1180.28,796.989 1179.5,814C 1179.53,832.973 1170.2,841.973 1151.5,841C 1144.06,837.964 1139.56,832.464 1138,824.5C 1135.11,814.19 1136.44,804.524 1142,795.5C 1145.9,791.641 1150.4,788.975 1155.5,787.5 Z"/></g>
<g><path style="opacity:0.999" fill="#f6f6f7" d="M 1255.5,787.5 C 1271.78,787.954 1279.78,796.454 1279.5,813C 1280,832.497 1270.67,841.83 1251.5,841C 1244.34,838.192 1239.84,833.026 1238,825.5C 1233.87,811.907 1237.03,800.407 1247.5,791C 1250.16,789.522 1252.82,788.355 1255.5,787.5 Z"/></g>
<g><path style="opacity:0.978" fill="#3d5d6f" d="M 773.5,785.5 C 773.5,786.833 773.5,788.167 773.5,789.5C 810.67,789.168 847.67,789.502 884.5,790.5C 847.167,790.5 809.833,790.5 772.5,790.5C 772.216,788.585 772.549,786.919 773.5,785.5 Z"/></g>
<g><path style="opacity:0.999" fill="#081b27" d="M 1015.5,794.5 C 1020.82,794.806 1024.48,797.472 1026.5,802.5C 1020.69,807.575 1014.35,811.908 1007.5,815.5C 1005.99,806.869 1008.65,799.869 1015.5,794.5 Z"/></g>
<g><path style="opacity:0.999" fill="#061925" d="M 1155.5,795.5 C 1157.53,795.338 1159.53,795.505 1161.5,796C 1163.5,798 1165.5,800 1167.5,802C 1161.94,808.27 1155.27,812.77 1147.5,815.5C 1146.25,807.068 1148.92,800.401 1155.5,795.5 Z"/></g>
<g><path style="opacity:0.999" fill="#061926" d="M 1248.5,815.5 C 1247.53,813.393 1247.2,811.059 1247.5,808.5C 1247.5,802.662 1250.16,798.496 1255.5,796C 1260.71,795.105 1264.38,797.105 1266.5,802C 1261.79,808.193 1255.79,812.693 1248.5,815.5 Z"/></g>
<g><path style="opacity:0.953" fill="#455660" d="M 1058.5,799.5 C 1058.56,798.957 1058.89,798.624 1059.5,798.5C 1060.5,809.814 1060.83,821.147 1060.5,832.5C 1057.17,832.5 1053.83,832.5 1050.5,832.5C 1053.29,831.523 1056.29,831.19 1059.5,831.5C 1059.83,820.654 1059.49,809.987 1058.5,799.5 Z"/></g>
<g><path style="opacity:0.999" fill="#091c28" d="M 1026.5,812.5 C 1027.69,812.97 1028.36,813.97 1028.5,815.5C 1027.55,820.856 1025.72,825.856 1023,830.5C 1018.37,834.646 1014.04,834.313 1010,829.5C 1009.02,828.241 1008.68,826.908 1009,825.5C 1014.46,820.536 1020.29,816.203 1026.5,812.5 Z"/></g>
<g><path style="opacity:0.999" fill="#051825" d="M 1165.5,813.5 C 1166.5,813.5 1167.5,813.5 1168.5,813.5C 1169.21,821.167 1166.88,827.667 1161.5,833C 1154.93,834.4 1151.1,831.9 1150,825.5C 1155.35,821.636 1160.52,817.636 1165.5,813.5 Z"/></g>
<g><path style="opacity:0.951" fill="#6e7980" d="M 1247.5,808.5 C 1247.2,811.059 1247.53,813.393 1248.5,815.5C 1248.44,816.043 1248.11,816.376 1247.5,816.5C 1246.2,813.691 1246.2,811.024 1247.5,808.5 Z"/></g>
<g><path style="opacity:0.999" fill="#071926" d="M 1266.5,813.5 C 1267.76,814.514 1268.43,816.014 1268.5,818C 1268.27,824.391 1265.6,829.391 1260.5,833C 1253.91,834.476 1250.41,831.976 1250,825.5C 1255.4,821.25 1260.9,817.25 1266.5,813.5 Z"/></g>
<g><path style="opacity:0.936" fill="#7b878e" d="M 1103.5,798.5 C 1103.56,797.957 1103.89,797.624 1104.5,797.5C 1105.5,809.148 1105.83,820.814 1105.5,832.5C 1100.5,832.5 1095.5,832.5 1090.5,832.5C 1094.97,831.514 1099.64,831.181 1104.5,831.5C 1104.83,820.321 1104.49,809.321 1103.5,798.5 Z"/></g>
<g><path style="opacity:0.925" fill="#889399" d="M 1107.5,787.5 C 1110.29,786.523 1113.29,786.19 1116.5,786.5C 1116.5,801.5 1116.5,816.5 1116.5,831.5C 1120.7,831.183 1124.7,831.517 1128.5,832.5C 1128.17,832.5 1127.83,832.5 1127.5,832.5C 1123.5,832.5 1119.5,832.5 1115.5,832.5C 1115.5,817.5 1115.5,802.5 1115.5,787.5C 1112.83,787.5 1110.17,787.5 1107.5,787.5 Z"/></g>
<g><path style="opacity:0.988" fill="#bdc3c6" d="M 1046.5,832.5 C 1046.5,835.167 1046.5,837.833 1046.5,840.5C 1058.5,840.5 1070.5,840.5 1082.5,840.5C 1082.5,838.167 1082.5,835.833 1082.5,833.5C 1079.61,833.806 1076.95,833.473 1074.5,832.5C 1077.83,832.5 1081.17,832.5 1084.5,832.5C 1084.78,835.448 1084.44,838.281 1083.5,841C 1070.84,841.5 1058.17,841.667 1045.5,841.5C 1045.19,838.287 1045.52,835.287 1046.5,832.5 Z"/></g>
<g><path style="opacity:0.946" fill="#c0c7ca" d="M 1127.5,832.5 C 1127.83,832.5 1128.17,832.5 1128.5,832.5C 1128.5,835.5 1128.5,838.5 1128.5,841.5C 1115.66,841.829 1102.99,841.495 1090.5,840.5C 1102.83,840.5 1115.17,840.5 1127.5,840.5C 1127.5,837.833 1127.5,835.167 1127.5,832.5 Z"/></g>
<g><path style="opacity:0.989" fill="#8e989e" d="M 966.5,832.5 C 962.03,833.486 957.363,833.819 952.5,833.5C 952.5,836.167 952.5,838.833 952.5,841.5C 964.833,841.5 977.167,841.5 989.5,841.5C 989.5,838.833 989.5,836.167 989.5,833.5C 985.629,833.815 981.962,833.482 978.5,832.5C 982.5,832.5 986.5,832.5 990.5,832.5C 990.5,835.833 990.5,839.167 990.5,842.5C 977.5,842.5 964.5,842.5 951.5,842.5C 951.5,839.167 951.5,835.833 951.5,832.5C 956.5,832.5 961.5,832.5 966.5,832.5 Z"/></g>
<g><path style="opacity:0.953" fill="#204559" d="M 703.5,782.5 C 703.5,802.833 703.5,823.167 703.5,843.5C 750.5,843.5 797.5,843.5 844.5,843.5C 797.336,844.499 750.003,844.832 702.5,844.5C 702.169,823.66 702.503,802.993 703.5,782.5 Z"/></g>
<g><path style="opacity:0.999" fill="#f5f6f6" d="M 1255.5,853.5 C 1269.37,851.011 1278.54,856.345 1283,869.5C 1284.66,879.336 1283.33,888.669 1279,897.5C 1270.59,906.782 1260.75,908.616 1249.5,903C 1241.39,894.002 1238.56,883.502 1241,871.5C 1242.77,862.923 1247.6,856.923 1255.5,853.5 Z"/></g>
<g><path style="opacity:0.999" fill="#f7f8f8" d="M 1207.5,853.5 C 1224.03,854.041 1232.03,862.708 1231.5,879.5C 1232.57,895.915 1225.07,905.248 1209,907.5C 1199.39,906.235 1193.06,900.902 1190,891.5C 1189.33,884.167 1189.33,876.833 1190,869.5C 1192.92,860.818 1198.75,855.485 1207.5,853.5 Z"/></g>
<g><path style="opacity:0.999" fill="#f7f7f8" d="M 963.5,855.5 C 979.718,853.214 988.884,860.214 991,876.5C 991.774,884.19 990.44,891.524 987,898.5C 980.721,907.209 972.221,910.376 961.5,908C 954.81,904.47 950.643,898.97 949,891.5C 945.098,875.62 949.932,863.62 963.5,855.5 Z"/></g>
<g><path style="opacity:0.999" fill="#f6f7f7" d="M 1010.5,855.5 C 1024.51,853.249 1033.35,858.916 1037,872.5C 1039.28,884.226 1036.78,894.726 1029.5,904C 1010.78,913.726 999.284,908.226 995,887.5C 992.529,872.781 997.695,862.114 1010.5,855.5 Z"/></g>
<g><path style="opacity:0.999" fill="#fcfcfc" d="M 1061.5,855.5 C 1064.17,855.5 1066.83,855.5 1069.5,855.5C 1069.17,867.678 1069.5,879.678 1070.5,891.5C 1070.22,894.448 1070.56,897.281 1071.5,900C 1075.15,900.499 1078.82,900.665 1082.5,900.5C 1082.5,903.167 1082.5,905.833 1082.5,908.5C 1070.17,908.5 1057.83,908.5 1045.5,908.5C 1045.5,905.833 1045.5,903.167 1045.5,900.5C 1050.17,900.5 1054.83,900.5 1059.5,900.5C 1059.83,888.814 1059.5,877.148 1058.5,865.5C 1054.62,867.685 1050.62,869.685 1046.5,871.5C 1045.65,869.106 1044.65,866.773 1043.5,864.5C 1048.4,859.384 1054.4,856.384 1061.5,855.5 Z"/></g>
<g><path style="opacity:0.999" fill="#f6f6f7" d="M 1105.5,855.5 C 1108.17,855.5 1110.83,855.5 1113.5,855.5C 1113.27,870.522 1113.6,885.522 1114.5,900.5C 1118.17,900.5 1121.83,900.5 1125.5,900.5C 1126.75,901.334 1127.41,902.667 1127.5,904.5C 1127.41,906.333 1126.75,907.666 1125.5,908.5C 1113.5,908.5 1101.5,908.5 1089.5,908.5C 1089.5,905.833 1089.5,903.167 1089.5,900.5C 1094.62,901.103 1099.29,900.436 1103.5,898.5C 1103.67,887.495 1103.5,876.495 1103,865.5C 1099.25,867.628 1095.41,869.628 1091.5,871.5C 1090.31,869.258 1089.31,866.925 1088.5,864.5C 1093.15,859.673 1098.82,856.673 1105.5,855.5 Z"/></g>
<g><path style="opacity:0.999" fill="#f5f6f6" d="M 1151.5,855.5 C 1165.87,853.373 1174.7,859.373 1178,873.5C 1179.55,883.426 1177.88,892.76 1173,901.5C 1170.44,904.531 1167.27,906.698 1163.5,908C 1148.62,911.116 1139.45,905.282 1136,890.5C 1132.54,874.766 1137.71,863.099 1151.5,855.5 Z"/></g>
<g><path style="opacity:0.998" fill="#071a26" d="M 1258.5,861.5 C 1264.64,859.959 1268.98,861.959 1271.5,867.5C 1265.75,872.907 1259.42,877.573 1252.5,881.5C 1249.72,873.208 1251.72,866.541 1258.5,861.5 Z"/></g>
<g><path style="opacity:0.999" fill="#081b27" d="M 1207.5,861.5 C 1213.33,860.745 1217.33,863.078 1219.5,868.5C 1213.66,874.013 1207.16,878.679 1200,882.5C 1198.59,874.005 1201.09,867.005 1207.5,861.5 Z"/></g>
<g><path style="opacity:0.999" fill="#071a26" d="M 1014.5,862.5 C 1019.43,862.749 1023.1,865.083 1025.5,869.5C 1020.09,875.375 1013.76,880.042 1006.5,883.5C 1004.17,874.4 1006.84,867.4 1014.5,862.5 Z"/></g>
<g><path style="opacity:0.999" fill="#081b27" d="M 967.5,862.5 C 972.611,862.556 976.278,864.889 978.5,869.5C 973.094,875.375 966.761,880.042 959.5,883.5C 957.16,874.486 959.827,867.486 967.5,862.5 Z"/></g>
<g><path style="opacity:0.999" fill="#071926" d="M 1152.5,863.5 C 1157.39,862.784 1161.56,864.117 1165,867.5C 1165.67,868.833 1165.67,870.167 1165,871.5C 1159.33,876.41 1153.16,880.41 1146.5,883.5C 1145.49,875.856 1147.49,869.189 1152.5,863.5 Z"/></g>
<g><path style="opacity:0.977" fill="#9da6ab" d="M 1061.5,855.5 C 1064.29,854.523 1067.29,854.19 1070.5,854.5C 1070.5,866.833 1070.5,879.167 1070.5,891.5C 1069.5,879.678 1069.17,867.678 1069.5,855.5C 1066.83,855.5 1064.17,855.5 1061.5,855.5 Z"/></g>
<g><path style="opacity:0.999" fill="#081a26" d="M 1270.5,878.5 C 1271.5,878.5 1272.5,878.5 1273.5,878.5C 1273.62,885.971 1271.29,892.471 1266.5,898C 1260.77,899.467 1256.43,897.633 1253.5,892.5C 1254.13,890.742 1255.13,889.242 1256.5,888C 1261.62,885.361 1266.28,882.195 1270.5,878.5 Z"/></g>
<g><path style="opacity:1" fill="#081a27" d="M 1220.5,878.5 C 1221.41,885.204 1219.91,891.538 1216,897.5C 1209.42,901.107 1204.58,899.44 1201.5,892.5C 1207.88,887.777 1214.21,883.11 1220.5,878.5 Z"/></g>
<g><path style="opacity:1" fill="#081b27" d="M 978.5,880.5 C 979.586,880.62 980.253,881.287 980.5,882.5C 980.233,887.886 978.733,892.886 976,897.5C 969.553,903.233 964.386,902.066 960.5,894C 966.747,889.723 972.747,885.223 978.5,880.5 Z"/></g>
<g><path style="opacity:0.999" fill="#071a26" d="M 1024.5,880.5 C 1025.5,880.5 1026.5,880.5 1027.5,880.5C 1027.68,887.996 1025.34,894.496 1020.5,900C 1014.27,902.021 1009.94,900.021 1007.5,894C 1012.76,888.9 1018.43,884.4 1024.5,880.5 Z"/></g>
<g><path style="opacity:1" fill="#071a26" d="M 1165.5,880.5 C 1168.09,885.966 1167.92,891.633 1165,897.5C 1159.77,901.521 1154.6,901.354 1149.5,897C 1148.45,895.612 1148.28,894.112 1149,892.5C 1154.96,889.024 1160.46,885.024 1165.5,880.5 Z"/></g>
<g><path style="opacity:1" fill="#f7f8f9" d="M 671.5,918.5 C 663.21,913.21 656.21,906.544 650.5,898.5C 715.834,898.667 781.168,898.5 846.5,898C 849.464,894.034 852.797,890.367 856.5,887C 871.647,879.982 884.48,882.816 895,895.5C 901.081,908.669 898.581,919.836 887.5,929C 871.381,937.136 858.048,933.97 847.5,919.5C 788.837,918.5 730.17,918.167 671.5,918.5 Z"/></g>
<g><path style="opacity:0.922" fill="#8a969b" d="M 1105.5,855.5 C 1108.62,854.521 1111.96,854.187 1115.5,854.5C 1115.5,869.5 1115.5,884.5 1115.5,899.5C 1119.04,899.187 1122.38,899.521 1125.5,900.5C 1121.83,900.5 1118.17,900.5 1114.5,900.5C 1113.6,885.522 1113.27,870.522 1113.5,855.5C 1110.83,855.5 1108.17,855.5 1105.5,855.5 Z"/></g>
<g><path style="opacity:0.955" fill="#88959b" d="M 1103.5,898.5 C 1099.29,900.436 1094.62,901.103 1089.5,900.5C 1089.92,899.778 1090.58,899.278 1091.5,899C 1095.49,898.501 1099.49,898.334 1103.5,898.5 Z"/></g>
<g><path style="opacity:1" fill="#fbfcfc" d="M 555.5,900.5 C 562.098,905.694 568.265,911.36 574,917.5C 574.513,918.527 575.013,919.527 575.5,920.5C 575.333,942.169 575.5,963.836 576,985.5C 579.367,989.203 583.034,992.536 587,995.5C 588.586,997.67 589.92,1000 591,1002.5C 593.432,1018.7 586.932,1029.2 571.5,1034C 557.645,1036.98 547.145,1032.48 540,1020.5C 534.695,1005.79 538.862,994.794 552.5,987.5C 554.164,958.681 555.164,929.681 555.5,900.5 Z"/></g>
<g><path style="opacity:0.916" fill="#aab1b5" d="M 1045.5,900.5 C 1045.5,903.167 1045.5,905.833 1045.5,908.5C 1057.83,908.5 1070.17,908.5 1082.5,908.5C 1082.5,905.833 1082.5,903.167 1082.5,900.5C 1083.48,903.287 1083.81,906.287 1083.5,909.5C 1070.5,909.5 1057.5,909.5 1044.5,909.5C 1044.19,906.287 1044.52,903.287 1045.5,900.5 Z"/></g>
<g><path style="opacity:0.942" fill="#67767d" d="M 1089.5,908.5 C 1101.5,908.5 1113.5,908.5 1125.5,908.5C 1119.4,909.972 1113.07,910.639 1106.5,910.5C 1100.58,910.695 1094.92,910.029 1089.5,908.5 Z"/></g>
<g><path style="opacity:0.999" fill="#f6f8f8" d="M 1209.5,919.5 C 1211.5,919.5 1213.5,919.5 1215.5,919.5C 1215.17,934.676 1215.5,949.676 1216.5,964.5C 1220.5,964.5 1224.5,964.5 1228.5,964.5C 1228.5,967.5 1228.5,970.5 1228.5,973.5C 1215.83,973.5 1203.17,973.5 1190.5,973.5C 1190.5,970.5 1190.5,967.5 1190.5,964.5C 1195.17,964.5 1199.83,964.5 1204.5,964.5C 1204.83,953.147 1204.5,941.814 1203.5,930.5C 1199.95,932.441 1196.29,934.107 1192.5,935.5C 1190.51,932.85 1189.51,929.85 1189.5,926.5C 1193.86,925.489 1197.86,923.656 1201.5,921C 1204.12,920.178 1206.78,919.678 1209.5,919.5 Z"/></g>
<g><path style="opacity:0.999" fill="#f6f7f7" d="M 1011.5,921.5 C 1026.73,919.552 1035.56,926.219 1038,941.5C 1039.63,953.491 1036.13,963.657 1027.5,972C 1010.72,978.527 1000.22,973.027 996,955.5C 992.374,939.771 997.541,928.437 1011.5,921.5 Z"/></g>
<g><path style="opacity:0.999" fill="#fafbfb" d="M 1063.5,921.5 C 1065.83,921.5 1068.17,921.5 1070.5,921.5C 1070.17,930.349 1070.51,939.016 1071.5,947.5C 1071.5,953.833 1071.5,960.167 1071.5,966.5C 1075.5,966.5 1079.5,966.5 1083.5,966.5C 1083.5,969.5 1083.5,972.5 1083.5,975.5C 1070.83,975.5 1058.17,975.5 1045.5,975.5C 1045.5,972.5 1045.5,969.5 1045.5,966.5C 1050.17,966.5 1054.83,966.5 1059.5,966.5C 1060.82,954.993 1060.82,943.327 1059.5,931.5C 1058.89,931.624 1058.56,931.957 1058.5,932.5C 1054.74,933.881 1051.07,935.547 1047.5,937.5C 1045.75,935.036 1044.92,932.37 1045,929.5C 1050.43,925.188 1056.59,922.522 1063.5,921.5 Z"/></g>
<g><path style="opacity:0.999" fill="#f6f7f7" d="M 1091.5,974.5 C 1091.71,972.08 1091.37,969.747 1090.5,967.5C 1094.31,966.833 1097.98,966.166 1101.5,965.5C 1102.17,965.5 1102.83,965.5 1103.5,965.5C 1104.49,954.679 1104.83,943.679 1104.5,932.5C 1103.21,932.263 1102.21,932.596 1101.5,933.5C 1098.06,934.149 1094.89,935.482 1092,937.5C 1090.84,934.875 1089.67,932.209 1088.5,929.5C 1094.35,926.41 1100.35,923.577 1106.5,921C 1109.48,920.502 1112.48,920.335 1115.5,920.5C 1115.5,935.833 1115.5,951.167 1115.5,966.5C 1119.5,966.5 1123.5,966.5 1127.5,966.5C 1127.5,969.5 1127.5,972.5 1127.5,975.5C 1115.32,975.828 1103.32,975.495 1091.5,974.5 Z"/></g>
<g><path style="opacity:0.999" fill="#f6f6f7" d="M 1259.5,920.5 C 1274.12,919.945 1282.62,926.945 1285,941.5C 1286.05,950.036 1284.38,958.036 1280,965.5C 1272.74,973.579 1263.9,975.745 1253.5,972C 1247.31,967.802 1243.48,961.968 1242,954.5C 1239.72,938.724 1245.55,927.39 1259.5,920.5 Z"/></g>
<g><path style="opacity:0.999" fill="#f8f9f9" d="M 977.5,940.5 C 977.5,949.5 977.5,958.5 977.5,967.5C 981.5,967.5 985.5,967.5 989.5,967.5C 989.5,970.167 989.5,972.833 989.5,975.5C 976.833,975.5 964.167,975.5 951.5,975.5C 951.5,972.5 951.5,969.5 951.5,966.5C 956.167,966.5 960.833,966.5 965.5,966.5C 966.824,955.326 966.824,943.993 965.5,932.5C 964.893,932.624 964.56,932.957 964.5,933.5C 960.698,935.399 956.698,936.733 952.5,937.5C 952.414,935.323 951.747,933.323 950.5,931.5C 957.955,924.235 966.955,920.901 977.5,921.5C 977.5,927.833 977.5,934.167 977.5,940.5 Z"/></g>
<g><path style="opacity:0.999" fill="#f7f7f8" d="M 1154.5,921.5 C 1171.25,921.279 1179.25,929.612 1178.5,946.5C 1179.72,956.883 1176.38,965.383 1168.5,972C 1153.11,978.89 1142.61,974.39 1137,958.5C 1133.75,945.328 1136.91,934.161 1146.5,925C 1149.16,923.522 1151.82,922.355 1154.5,921.5 Z"/></g>
<g><path style="opacity:0.999" fill="#071a26" d="M 1259.5,928.5 C 1265.23,927.535 1269.57,929.535 1272.5,934.5C 1267.48,941.176 1261.14,946.176 1253.5,949.5C 1251.47,941.261 1253.47,934.261 1259.5,928.5 Z"/></g>
<g><path style="opacity:0.999" fill="#061926" d="M 1012.5,929.5 C 1018.49,928.494 1022.82,930.661 1025.5,936C 1019.64,941.003 1013.31,945.503 1006.5,949.5C 1005.11,941.815 1007.11,935.149 1012.5,929.5 Z"/></g>
<g><path style="opacity:1" fill="#081b27" d="M 1154.5,929.5 C 1161.54,928.728 1165.37,931.728 1166,938.5C 1159.67,942.5 1153.33,946.5 1147,950.5C 1145.39,941.867 1147.89,934.867 1154.5,929.5 Z"/></g>
<g><path style="opacity:0.949" fill="#c5ced2" d="M 553.5,899.5 C 554.492,899.328 555.158,899.662 555.5,900.5C 555.164,929.681 554.164,958.681 552.5,987.5C 553.491,958.24 553.825,928.907 553.5,899.5 Z"/></g>
<g><path style="opacity:0.922" fill="#5f6d75" d="M 964.5,933.5 C 964.56,932.957 964.893,932.624 965.5,932.5C 966.824,943.993 966.824,955.326 965.5,966.5C 965.828,955.321 965.495,944.321 964.5,933.5 Z"/></g>
<g><path style="opacity:0.999" fill="#fdfdfd" d="M 847.5,980.5 C 811.671,979.502 775.671,979.168 739.5,979.5C 737.745,978.928 736.078,978.094 734.5,977C 728.758,971.484 723.092,965.984 717.5,960.5C 760.168,960.667 802.835,960.5 845.5,960C 850.183,952.312 856.85,947.312 865.5,945C 884.212,943.004 895.212,951.171 898.5,969.5C 898.319,981.381 892.652,989.214 881.5,993C 866.655,997.644 855.322,993.478 847.5,980.5 Z"/></g>
<g><path style="opacity:0.922" fill="#a5acb1" d="M 1063.5,921.5 C 1065.95,920.527 1068.61,920.194 1071.5,920.5C 1071.5,929.5 1071.5,938.5 1071.5,947.5C 1070.51,939.016 1070.17,930.349 1070.5,921.5C 1068.17,921.5 1065.83,921.5 1063.5,921.5 Z"/></g>
<g><path style="opacity:0.999" fill="#081a27" d="M 1167.5,946.5 C 1168.61,952.79 1167.45,958.79 1164,964.5C 1156.48,969.549 1151.48,967.882 1149,959.5C 1154.97,954.775 1161.14,950.442 1167.5,946.5 Z"/></g>
<g><path style="opacity:0.999" fill="#061926" d="M 1272.5,945.5 C 1275.07,950.63 1274.9,955.964 1272,961.5C 1268.21,965.128 1263.71,966.294 1258.5,965C 1256.74,962.971 1255.57,960.804 1255,958.5C 1260.73,953.918 1266.57,949.585 1272.5,945.5 Z"/></g>
<g><path style="opacity:1" fill="#071a26" d="M 1025.5,946.5 C 1028.17,953.723 1026.51,960.223 1020.5,966C 1015.52,968.629 1011.68,967.463 1009,962.5C 1008.33,961.167 1008.33,959.833 1009,958.5C 1014.4,954.25 1019.9,950.25 1025.5,946.5 Z"/></g>
<g><path style="opacity:0.931" fill="#aeb4b8" d="M 1058.5,932.5 C 1058.56,931.957 1058.89,931.624 1059.5,931.5C 1060.82,943.327 1060.82,954.993 1059.5,966.5C 1059.83,954.988 1059.49,943.654 1058.5,932.5 Z"/></g>
<g><path style="opacity:0.916" fill="#738086" d="M 1209.5,919.5 C 1211.61,918.532 1213.94,918.198 1216.5,918.5C 1216.5,933.833 1216.5,949.167 1216.5,964.5C 1215.5,949.676 1215.17,934.676 1215.5,919.5C 1213.5,919.5 1211.5,919.5 1209.5,919.5 Z"/></g>
<g><path style="opacity:0.949" fill="#344650" d="M 1101.5,933.5 C 1102.21,932.596 1103.21,932.263 1104.5,932.5C 1104.83,943.679 1104.49,954.679 1103.5,965.5C 1104.14,954.448 1103.48,943.781 1101.5,933.5 Z"/></g>
<g><path style="opacity:0.961" fill="#2e404b" d="M 977.5,940.5 C 978.493,948.984 978.826,957.651 978.5,966.5C 982.371,966.185 986.038,966.518 989.5,967.5C 985.5,967.5 981.5,967.5 977.5,967.5C 977.5,958.5 977.5,949.5 977.5,940.5 Z"/></g>
<g><path style="opacity:0.999" fill="#fcfdfd" d="M 620.5,960.5 C 625.979,965.136 631.646,969.636 637.5,974C 639.539,975.926 641.206,978.093 642.5,980.5C 641.504,985.463 641.337,990.463 642,995.5C 645.333,998.167 648.667,1000.83 652,1003.5C 662.189,1017.76 660.022,1029.93 645.5,1040C 628.902,1047.4 615.735,1043.56 606,1028.5C 601.66,1013.85 606.16,1002.85 619.5,995.5C 620.499,983.852 620.832,972.186 620.5,960.5 Z"/></g>
<g><path style="opacity:0.953" fill="#838f95" d="M 1101.5,965.5 C 1097.98,966.166 1094.31,966.833 1090.5,967.5C 1091.37,969.747 1091.71,972.08 1091.5,974.5C 1090.88,974.389 1090.38,974.056 1090,973.5C 1089.5,970.854 1089.34,968.187 1089.5,965.5C 1093.5,965.5 1097.5,965.5 1101.5,965.5 Z"/></g>
<g><path style="opacity:0.988" fill="#305365" d="M 739.5,979.5 C 775.671,979.168 811.671,979.502 847.5,980.5C 811.996,980.168 776.663,980.502 741.5,981.5C 740.5,981.167 739.833,980.5 739.5,979.5 Z"/></g>
<g><path style="opacity:0.945" fill="#8c969c" d="M 1072.5,986.5 C 1068.47,986.505 1064.47,986.838 1060.5,987.5C 1062.68,986.074 1065.18,985.408 1068,985.5C 1069.71,985.508 1071.21,985.842 1072.5,986.5 Z"/></g>
<g><path style="opacity:0.999" fill="#f8f9f9" d="M 1263.5,985.5 C 1264.83,985.5 1266.17,985.5 1267.5,985.5C 1267.17,1000.68 1267.5,1015.68 1268.5,1030.5C 1272.5,1030.5 1276.5,1030.5 1280.5,1030.5C 1280.5,1033.5 1280.5,1036.5 1280.5,1039.5C 1267.83,1039.5 1255.17,1039.5 1242.5,1039.5C 1242.5,1036.5 1242.5,1033.5 1242.5,1030.5C 1247.5,1030.5 1252.5,1030.5 1257.5,1030.5C 1257.83,1019.15 1257.5,1007.81 1256.5,996.5C 1253.06,998.303 1249.56,999.97 1246,1001.5C 1243.25,1000.29 1241.75,998.124 1241.5,995C 1247.74,989.38 1255.08,986.214 1263.5,985.5 Z"/></g>
<g><path style="opacity:0.999" fill="#f6f8f8" d="M 991.5,1031.5 C 991.5,1034.17 991.5,1036.83 991.5,1039.5C 979.167,1039.5 966.833,1039.5 954.5,1039.5C 954.5,1036.83 954.5,1034.17 954.5,1031.5C 959.167,1031.5 963.833,1031.5 968.5,1031.5C 968.832,1019.81 968.499,1008.15 967.5,996.5C 966.893,996.624 966.56,996.957 966.5,997.5C 962.736,998.881 959.069,1000.55 955.5,1002.5C 954.368,1000.4 953.368,998.235 952.5,996C 959.726,988.307 968.726,984.807 979.5,985.5C 979.5,1000.5 979.5,1015.5 979.5,1030.5C 983.702,1030.18 987.702,1030.52 991.5,1031.5 Z"/></g>
<g><path style="opacity:0.999" fill="#f6f7f7" d="M 1011.5,986.5 C 1024.62,984.635 1033.12,989.968 1037,1002.5C 1038.07,1010.99 1037.4,1019.33 1035,1027.5C 1029.48,1037.67 1020.98,1041.51 1009.5,1039C 1004.09,1037.26 1000.26,1033.76 998,1028.5C 991.753,1014.16 993.919,1001.32 1004.5,990C 1006.93,988.787 1009.26,987.621 1011.5,986.5 Z"/></g>
<g><path style="opacity:0.999" fill="#f8f9f9" d="M 1072.5,986.5 C 1072.5,1001.5 1072.5,1016.5 1072.5,1031.5C 1076.83,1031.5 1081.17,1031.5 1085.5,1031.5C 1085.5,1034.5 1085.5,1037.5 1085.5,1040.5C 1072.83,1040.5 1060.17,1040.5 1047.5,1040.5C 1047.5,1037.5 1047.5,1034.5 1047.5,1031.5C 1052.17,1031.5 1056.83,1031.5 1061.5,1031.5C 1061.5,1020.17 1061.5,1008.83 1061.5,997.5C 1057.3,998.596 1053.3,1000.26 1049.5,1002.5C 1048.37,1000.4 1047.37,998.235 1046.5,996C 1050.24,991.777 1054.91,988.944 1060.5,987.5C 1064.47,986.838 1068.47,986.505 1072.5,986.5 Z"/></g>
<g><path style="opacity:0.998" fill="#fafbfb" d="M 1092.5,1040.5 C 1092.5,1037.83 1092.5,1035.17 1092.5,1032.5C 1097.36,1032.82 1102.03,1032.49 1106.5,1031.5C 1106.83,1020.15 1106.5,1008.81 1105.5,997.5C 1102.06,999.303 1098.56,1000.97 1095,1002.5C 1093.01,1000.54 1091.51,998.203 1090.5,995.5C 1098.49,989.335 1107.49,986.335 1117.5,986.5C 1117.5,1001.5 1117.5,1016.5 1117.5,1031.5C 1121.18,1031.33 1124.85,1031.5 1128.5,1032C 1130.31,1034.48 1130.98,1037.31 1130.5,1040.5C 1117.83,1040.5 1105.17,1040.5 1092.5,1040.5 Z"/></g>
<g><path style="opacity:0.999" fill="#fbfbfb" d="M 1159.5,986.5 C 1162.17,986.5 1164.83,986.5 1167.5,986.5C 1167.17,1001.34 1167.5,1016.01 1168.5,1030.5C 1172.3,1031.48 1176.3,1031.82 1180.5,1031.5C 1180.5,1034.17 1180.5,1036.83 1180.5,1039.5C 1167.83,1039.5 1155.17,1039.5 1142.5,1039.5C 1142.5,1036.83 1142.5,1034.17 1142.5,1031.5C 1147.17,1031.5 1151.83,1031.5 1156.5,1031.5C 1156.5,1020.17 1156.5,1008.83 1156.5,997.5C 1152.3,998.596 1148.3,1000.26 1144.5,1002.5C 1143.02,1000.58 1142.02,998.413 1141.5,996C 1146.15,990.507 1152.15,987.34 1159.5,986.5 Z"/></g>
<g><path style="opacity:0.999" fill="#f6f7f7" d="M 1205.5,987.5 C 1222.59,987.597 1230.93,996.263 1230.5,1013.5C 1230.5,1034.01 1220.5,1042.84 1200.5,1040C 1191.91,1033.78 1187.58,1025.28 1187.5,1014.5C 1187.35,1001.07 1193.35,992.068 1205.5,987.5 Z"/></g>
<g><path style="opacity:0.947" fill="#899399" d="M 1159.5,986.5 C 1162.29,985.523 1165.29,985.19 1168.5,985.5C 1168.5,1000.5 1168.5,1015.5 1168.5,1030.5C 1167.5,1016.01 1167.17,1001.34 1167.5,986.5C 1164.83,986.5 1162.17,986.5 1159.5,986.5 Z"/></g>
<g><path style="opacity:0.999" fill="#071a26" d="M 1012.5,994.5 C 1018.54,993.101 1022.87,995.101 1025.5,1000.5C 1020.32,1006.68 1013.98,1011.35 1006.5,1014.5C 1004.69,1006.62 1006.69,999.956 1012.5,994.5 Z"/></g>
<g><path style="opacity:1" fill="#071a26" d="M 1206.5,995.5 C 1212.03,994.948 1216.03,997.114 1218.5,1002C 1217.55,1003.96 1216.21,1005.62 1214.5,1007C 1209.42,1010.29 1204.25,1013.46 1199,1016.5C 1197.22,1007.76 1199.72,1000.76 1206.5,995.5 Z"/></g>
<g><path style="opacity:0.97" fill="#b6bcc0" d="M 1263.5,985.5 C 1264.92,984.549 1266.59,984.216 1268.5,984.5C 1268.5,999.833 1268.5,1015.17 1268.5,1030.5C 1267.5,1015.68 1267.17,1000.68 1267.5,985.5C 1266.17,985.5 1264.83,985.5 1263.5,985.5 Z"/></g>
<g><path style="opacity:0.918" fill="#606f76" d="M 966.5,997.5 C 966.56,996.957 966.893,996.624 967.5,996.5C 968.499,1008.15 968.832,1019.81 968.5,1031.5C 963.833,1031.5 959.167,1031.5 954.5,1031.5C 958.634,1030.52 962.968,1030.18 967.5,1030.5C 967.828,1019.32 967.495,1008.32 966.5,997.5 Z"/></g>
<g><path style="opacity:0.999" fill="#071a26" d="M 1025.5,1011.5 C 1026.75,1012.33 1027.41,1013.67 1027.5,1015.5C 1027.04,1019.7 1025.88,1023.7 1024,1027.5C 1020.15,1031.67 1015.65,1032.5 1010.5,1030C 1009.5,1028.33 1008.5,1026.67 1007.5,1025C 1013.03,1019.75 1019.03,1015.25 1025.5,1011.5 Z"/></g>
<g><path style="opacity:0.999" fill="#081b27" d="M 1218.5,1012.5 C 1219.73,1013.15 1220.39,1014.32 1220.5,1016C 1220.86,1023.95 1217.53,1029.61 1210.5,1033C 1204.93,1033.42 1201.76,1030.92 1201,1025.5C 1206.73,1020.92 1212.57,1016.58 1218.5,1012.5 Z"/></g>
<g><path style="opacity:0.991" fill="#818d93" d="M 954.5,1031.5 C 954.5,1034.17 954.5,1036.83 954.5,1039.5C 966.833,1039.5 979.167,1039.5 991.5,1039.5C 991.5,1036.83 991.5,1034.17 991.5,1031.5C 992.477,1034.29 992.81,1037.29 992.5,1040.5C 979.5,1040.5 966.5,1040.5 953.5,1040.5C 953.19,1037.29 953.523,1034.29 954.5,1031.5 Z"/></g>
<g><path style="opacity:0.925" fill="#a6aeb2" d="M 1106.5,1031.5 C 1102.03,1032.49 1097.36,1032.82 1092.5,1032.5C 1092.5,1035.17 1092.5,1037.83 1092.5,1040.5C 1091.52,1037.71 1091.19,1034.71 1091.5,1031.5C 1096.5,1031.5 1101.5,1031.5 1106.5,1031.5 Z"/></g>
<g><path style="opacity:0.941" fill="#b4babd" d="M 1142.5,1031.5 C 1142.5,1034.17 1142.5,1036.83 1142.5,1039.5C 1155.17,1039.5 1167.83,1039.5 1180.5,1039.5C 1167.68,1040.5 1154.68,1040.83 1141.5,1040.5C 1141.19,1037.29 1141.52,1034.29 1142.5,1031.5 Z"/></g>
<g><path style="opacity:1" fill="#fcfcfc" d="M 878.5,1092.5 C 862.971,1082.31 848.305,1070.97 834.5,1058.5C 838.182,1058.67 841.848,1058.5 845.5,1058C 848.336,1055.24 851.003,1052.24 853.5,1049C 868.586,1039.08 882.086,1040.92 894,1054.5C 902.623,1072.8 897.456,1085.46 878.5,1092.5 Z"/></g>
<g><path style="opacity:0.999" fill="#fdfdfd" d="M 735.5,1058.5 C 744.691,1063.69 753.024,1070.02 760.5,1077.5C 705.166,1077.33 649.832,1077.5 594.5,1078C 591.692,1084.81 586.859,1089.64 580,1092.5C 579.167,1117.51 579.334,1142.51 580.5,1167.5C 588.45,1171.11 593.45,1177.11 595.5,1185.5C 654.17,1185.83 712.837,1185.5 771.5,1184.5C 775.569,1177.26 781.569,1172.43 789.5,1170C 805.148,1167.57 816.314,1173.4 823,1187.5C 825.79,1201.84 820.623,1212 807.5,1218C 792.182,1222.94 780.515,1218.6 772.5,1205C 712.167,1204.33 651.833,1204.33 591.5,1205C 588.797,1208.04 585.797,1210.7 582.5,1213C 567.91,1218.92 555.744,1215.76 546,1203.5C 539.12,1188.06 542.954,1176.06 557.5,1167.5C 558.833,1142.17 558.833,1116.83 557.5,1091.5C 540.422,1079.72 538.422,1065.89 551.5,1050C 568.194,1039.44 582.527,1042.11 594.5,1058C 641.499,1058.5 688.499,1058.67 735.5,1058.5 Z"/></g>
<g><path style="opacity:0.999" fill="#f6f7f7" d="M 964.5,1050.5 C 978.861,1048.36 987.694,1054.36 991,1068.5C 992.67,1078.13 991.004,1087.13 986,1095.5C 978.215,1103.92 969.049,1105.75 958.5,1101C 952.851,1096.54 949.685,1090.7 949,1083.5C 947.041,1072.73 949.541,1063.23 956.5,1055C 959.099,1053.2 961.766,1051.7 964.5,1050.5 Z"/></g>
<g><path style="opacity:0.999" fill="#f6f6f7" d="M 1257.5,1050.5 C 1274.77,1049.93 1283.44,1058.43 1283.5,1076C 1283.39,1084.34 1280.89,1091.84 1276,1098.5C 1260.96,1108.96 1249.63,1105.96 1242,1089.5C 1239.42,1078.79 1240.42,1068.46 1245,1058.5C 1248.67,1054.92 1252.84,1052.26 1257.5,1050.5 Z"/></g>
<g><path style="opacity:0.999" fill="#f6f7f7" d="M 1012.5,1050.5 C 1026.88,1048.38 1035.71,1054.38 1039,1068.5C 1040.75,1079.02 1038.75,1088.68 1033,1097.5C 1015.92,1108.7 1003.92,1104.7 997,1085.5C 993.807,1069.85 998.973,1058.18 1012.5,1050.5 Z"/></g>
<g><path style="opacity:0.998" fill="#f9f9fa" d="M 1123.5,1051.5 C 1123.5,1066.5 1123.5,1081.5 1123.5,1096.5C 1125.17,1096.5 1126.83,1096.5 1128.5,1096.5C 1131.17,1096.5 1133.83,1096.5 1136.5,1096.5C 1136.5,1099.17 1136.5,1101.83 1136.5,1104.5C 1123.69,1105.78 1111.03,1105.78 1098.5,1104.5C 1098.5,1101.83 1098.5,1099.17 1098.5,1096.5C 1103.36,1096.82 1108.03,1096.49 1112.5,1095.5C 1112.5,1090.83 1112.5,1086.17 1112.5,1081.5C 1112.83,1074.8 1112.5,1068.13 1111.5,1061.5C 1110.89,1061.62 1110.56,1061.96 1110.5,1062.5C 1106.85,1063.88 1103.35,1065.55 1100,1067.5C 1098.83,1065.17 1097.67,1062.83 1096.5,1060.5C 1104.28,1053.32 1113.28,1050.32 1123.5,1051.5 Z"/></g>
<g><path style="opacity:0.997" fill="#f6f8f8" d="M 1233.5,1105.5 C 1221.17,1105.5 1208.83,1105.5 1196.5,1105.5C 1196.5,1102.83 1196.5,1100.17 1196.5,1097.5C 1201.17,1097.5 1205.83,1097.5 1210.5,1097.5C 1210.83,1085.81 1210.5,1074.15 1209.5,1062.5C 1208.89,1062.62 1208.56,1062.96 1208.5,1063.5C 1204.71,1064.9 1201.04,1066.56 1197.5,1068.5C 1195.68,1065.56 1195.01,1062.56 1195.5,1059.5C 1200.5,1057 1205.5,1054.5 1210.5,1052C 1214.15,1051.5 1217.82,1051.33 1221.5,1051.5C 1221.5,1066.5 1221.5,1081.5 1221.5,1096.5C 1225.5,1096.5 1229.5,1096.5 1233.5,1096.5C 1233.5,1099.5 1233.5,1102.5 1233.5,1105.5 Z"/></g>
<g><path style="opacity:0.999" fill="#f6f7f7" d="M 1064.5,1051.5 C 1081.82,1051.65 1090.15,1060.49 1089.5,1078C 1089.46,1100.32 1078.8,1108.66 1057.5,1103C 1045.41,1090.2 1043.58,1076.04 1052,1060.5C 1055.3,1056.12 1059.47,1053.12 1064.5,1051.5 Z"/></g>
<g><path style="opacity:0.999" fill="#f7f8f8" d="M 1163.5,1052.5 C 1165.83,1052.5 1168.17,1052.5 1170.5,1052.5C 1170.18,1058.03 1170.51,1063.36 1171.5,1068.5C 1171.5,1078.17 1171.5,1087.83 1171.5,1097.5C 1175.5,1097.5 1179.5,1097.5 1183.5,1097.5C 1183.5,1100.5 1183.5,1103.5 1183.5,1106.5C 1170.83,1106.5 1158.17,1106.5 1145.5,1106.5C 1145.5,1103.5 1145.5,1100.5 1145.5,1097.5C 1150.17,1097.5 1154.83,1097.5 1159.5,1097.5C 1159.83,1086.15 1159.5,1074.81 1158.5,1063.5C 1155.06,1065.3 1151.56,1066.97 1148,1068.5C 1147.23,1068.36 1146.56,1068.02 1146,1067.5C 1143.2,1063.25 1144.03,1060.09 1148.5,1058C 1153.19,1055.27 1158.19,1053.44 1163.5,1052.5 Z"/></g>
<g><path style="opacity:0.996" fill="#6c7980" d="M 1163.5,1052.5 C 1165.95,1051.53 1168.61,1051.19 1171.5,1051.5C 1171.5,1057.17 1171.5,1062.83 1171.5,1068.5C 1170.51,1063.36 1170.18,1058.03 1170.5,1052.5C 1168.17,1052.5 1165.83,1052.5 1163.5,1052.5 Z"/></g>
<g><path style="opacity:1" fill="#081a27" d="M 1259.5,1057.5 C 1264.49,1058 1268.15,1060.5 1270.5,1065C 1264.63,1069.86 1258.47,1074.36 1252,1078.5C 1249.88,1069.67 1252.38,1062.67 1259.5,1057.5 Z"/></g>
<g><path style="opacity:1" fill="#091b28" d="M 965.5,1058.5 C 970.447,1057.63 974.613,1058.96 978,1062.5C 978.667,1063.83 978.667,1065.17 978,1066.5C 972.152,1071.67 965.652,1075.67 958.5,1078.5C 957.85,1070.69 960.183,1064.03 965.5,1058.5 Z"/></g>
<g><path style="opacity:1" fill="#071a26" d="M 1015.5,1057.5 C 1021.2,1057.03 1024.86,1059.53 1026.5,1065C 1021.27,1070.38 1015.27,1074.88 1008.5,1078.5C 1005.88,1069.7 1008.21,1062.7 1015.5,1057.5 Z"/></g>
<g><path style="opacity:1" fill="#081a27" d="M 1065.5,1059.5 C 1070.96,1059.23 1074.96,1061.56 1077.5,1066.5C 1071.3,1071.52 1064.8,1076.19 1058,1080.5C 1056.55,1072.08 1059.05,1065.08 1065.5,1059.5 Z"/></g>
<g><path style="opacity:0.999" fill="#051825" d="M 978.5,1075.5 C 981.09,1081.1 980.59,1086.77 977,1092.5C 969.642,1097.65 964.142,1096.15 960.5,1088C 966.741,1084.06 972.741,1079.89 978.5,1075.5 Z"/></g>
<g><path style="opacity:0.999" fill="#071a26" d="M 1026.5,1075.5 C 1027.5,1075.5 1028.5,1075.5 1029.5,1075.5C 1029.63,1082.94 1027.3,1089.44 1022.5,1095C 1016.57,1096.89 1012.23,1095.05 1009.5,1089.5C 1010.04,1088.25 1010.71,1087.09 1011.5,1086C 1016.92,1082.97 1021.92,1079.47 1026.5,1075.5 Z"/></g>
<g><path style="opacity:0.933" fill="#3f505a" d="M 1110.5,1062.5 C 1110.56,1061.96 1110.89,1061.62 1111.5,1061.5C 1112.5,1068.13 1112.83,1074.8 1112.5,1081.5C 1111.83,1075.17 1111.17,1068.83 1110.5,1062.5 Z"/></g>
<g><path style="opacity:0.999" fill="#081a27" d="M 1271.5,1075.5 C 1272.93,1080.85 1272.43,1086.18 1270,1091.5C 1263.43,1098.49 1257.6,1097.83 1252.5,1089.5C 1258.31,1084.01 1264.65,1079.34 1271.5,1075.5 Z"/></g>
<g><path style="opacity:1" fill="#071a27" d="M 1077.5,1076.5 C 1078.73,1077.15 1079.39,1078.32 1079.5,1080C 1079.06,1085.99 1077.06,1091.33 1073.5,1096C 1067.28,1098.8 1062.62,1097.14 1059.5,1091C 1065.11,1085.54 1071.11,1080.71 1077.5,1076.5 Z"/></g>
<g><path style="opacity:0.949" fill="#55646c" d="M 1123.5,1051.5 C 1124.5,1065.99 1124.83,1080.66 1124.5,1095.5C 1126.1,1095.23 1127.43,1095.57 1128.5,1096.5C 1126.83,1096.5 1125.17,1096.5 1123.5,1096.5C 1123.5,1081.5 1123.5,1066.5 1123.5,1051.5 Z"/></g>
<g><path style="opacity:0.976" fill="#727f86" d="M 1112.5,1095.5 C 1108.03,1096.49 1103.36,1096.82 1098.5,1096.5C 1098.5,1099.17 1098.5,1101.83 1098.5,1104.5C 1097.52,1101.71 1097.19,1098.71 1097.5,1095.5C 1102.5,1095.5 1107.5,1095.5 1112.5,1095.5 Z"/></g>
<g><path style="opacity:0.949" fill="#717f86" d="M 1208.5,1063.5 C 1208.56,1062.96 1208.89,1062.62 1209.5,1062.5C 1210.5,1074.15 1210.83,1085.81 1210.5,1097.5C 1205.83,1097.5 1201.17,1097.5 1196.5,1097.5C 1196.5,1100.17 1196.5,1102.83 1196.5,1105.5C 1208.83,1105.5 1221.17,1105.5 1233.5,1105.5C 1221.01,1106.5 1208.34,1106.83 1195.5,1106.5C 1195.5,1103.17 1195.5,1099.83 1195.5,1096.5C 1200.17,1096.5 1204.83,1096.5 1209.5,1096.5C 1209.83,1085.32 1209.49,1074.32 1208.5,1063.5 Z"/></g>
<g><path style="opacity:1" fill="#fafbfb" d="M 822.5,1126.5 C 827.1,1128.47 831.434,1130.97 835.5,1134C 849.144,1144.82 863.144,1155.15 877.5,1165C 879.373,1166.7 881.04,1168.54 882.5,1170.5C 882.5,1198.83 882.5,1227.17 882.5,1255.5C 811.665,1255.17 740.998,1255.5 670.5,1256.5C 667.704,1259.8 664.704,1262.96 661.5,1266C 646.878,1273.9 634.378,1271.4 624,1258.5C 616.164,1244.69 618.664,1233.19 631.5,1224C 648.376,1215.8 661.709,1219.64 671.5,1235.5C 734.83,1236.5 798.163,1236.83 861.5,1236.5C 861.667,1211.16 861.5,1185.83 861,1160.5C 854.221,1157.39 849.055,1152.55 845.5,1146C 791.164,1145.17 736.83,1145.33 682.5,1146.5C 672.088,1161.43 658.755,1164.59 642.5,1156C 627.839,1142.29 627.839,1128.62 642.5,1115C 659.94,1105.95 673.94,1109.62 684.5,1126C 730.499,1126.5 776.499,1126.67 822.5,1126.5 Z"/></g>
<g><path style="opacity:0.999" fill="#f7f8f8" d="M 982.5,1166.5 C 979.151,1165.83 976.484,1164.16 974.5,1161.5C 977.529,1159.63 979.695,1156.96 981,1153.5C 982.092,1149.2 982.425,1144.87 982,1140.5C 975.213,1144.47 968.713,1148.8 962.5,1153.5C 957.746,1151.46 953.746,1148.46 950.5,1144.5C 949.227,1131.21 954.56,1121.71 966.5,1116C 983.925,1115.09 992.591,1123.42 992.5,1141C 993.549,1151.37 990.216,1159.87 982.5,1166.5 Z"/></g>
<g><path style="opacity:0.999" fill="#f7f7f8" d="M 1013.5,1116.5 C 1025.61,1114.81 1033.45,1119.81 1037,1131.5C 1039.87,1142.39 1038.53,1152.72 1033,1162.5C 1017.95,1175.17 1005.95,1172.83 997,1155.5C 995.109,1147.49 995.109,1139.49 997,1131.5C 1000.19,1123.84 1005.69,1118.84 1013.5,1116.5 Z"/></g>
<g><path style="opacity:0.999" fill="#fafafa" d="M 1083.5,1161.5 C 1083.5,1164.17 1083.5,1166.83 1083.5,1169.5C 1071.17,1169.5 1058.83,1169.5 1046.5,1169.5C 1046.5,1166.83 1046.5,1164.17 1046.5,1161.5C 1051.17,1161.5 1055.83,1161.5 1060.5,1161.5C 1061.82,1149.99 1061.82,1138.33 1060.5,1126.5C 1059.89,1126.62 1059.56,1126.96 1059.5,1127.5C 1055.74,1128.88 1052.07,1130.55 1048.5,1132.5C 1046.14,1129.79 1045.48,1126.79 1046.5,1123.5C 1051.71,1120.73 1057.05,1118.23 1062.5,1116C 1065.48,1115.5 1068.48,1115.34 1071.5,1115.5C 1071.5,1130.83 1071.5,1146.17 1071.5,1161.5C 1075.5,1161.5 1079.5,1161.5 1083.5,1161.5 Z"/></g>
<g><path style="opacity:1" fill="#fafbfb" d="M 1166.5,1115.5 C 1166.5,1130.83 1166.5,1146.17 1166.5,1161.5C 1170.5,1161.5 1174.5,1161.5 1178.5,1161.5C 1178.5,1164.17 1178.5,1166.83 1178.5,1169.5C 1166.17,1169.5 1153.83,1169.5 1141.5,1169.5C 1141.5,1166.83 1141.5,1164.17 1141.5,1161.5C 1146.17,1161.5 1150.83,1161.5 1155.5,1161.5C 1155.5,1150.17 1155.5,1138.83 1155.5,1127.5C 1151.3,1128.6 1147.3,1130.26 1143.5,1132.5C 1141.72,1129.74 1140.39,1126.74 1139.5,1123.5C 1145.77,1121.04 1152.1,1118.54 1158.5,1116C 1161.15,1115.5 1163.81,1115.34 1166.5,1115.5 Z"/></g>
<g><path style="opacity:0.999" fill="#f9f9f9" d="M 1215.5,1161.5 C 1218.96,1162.48 1222.63,1162.81 1226.5,1162.5C 1226.5,1164.83 1226.5,1167.17 1226.5,1169.5C 1214.5,1169.5 1202.5,1169.5 1190.5,1169.5C 1190.5,1167.17 1190.5,1164.83 1190.5,1162.5C 1195.03,1162.82 1199.37,1162.48 1203.5,1161.5C 1204.49,1150.35 1204.83,1139.01 1204.5,1127.5C 1203.21,1127.26 1202.21,1127.6 1201.5,1128.5C 1197.93,1130.12 1194.26,1131.45 1190.5,1132.5C 1190.13,1129.43 1189.46,1126.43 1188.5,1123.5C 1193.88,1121.65 1199.22,1119.48 1204.5,1117C 1208.15,1116.5 1211.82,1116.33 1215.5,1116.5C 1215.5,1131.5 1215.5,1146.5 1215.5,1161.5 Z"/></g>
<g><path style="opacity:0.999" fill="#f7f7f8" d="M 1256.5,1115.5 C 1269.84,1114.33 1278.01,1120.33 1281,1133.5C 1281.97,1141.32 1281.3,1148.99 1279,1156.5C 1273.87,1166.55 1265.7,1170.71 1254.5,1169C 1245.37,1165.28 1240.21,1158.45 1239,1148.5C 1236.51,1132.81 1242.34,1121.81 1256.5,1115.5 Z"/></g>
<g><path style="opacity:0.998" fill="#f8f8f8" d="M 1113.5,1116.5 C 1115.17,1116.5 1116.83,1116.5 1118.5,1116.5C 1118.5,1131.83 1118.5,1147.17 1118.5,1162.5C 1122.83,1162.5 1127.17,1162.5 1131.5,1162.5C 1131.5,1165.5 1131.5,1168.5 1131.5,1171.5C 1118.5,1171.5 1105.5,1171.5 1092.5,1171.5C 1092.5,1168.5 1092.5,1165.5 1092.5,1162.5C 1097.5,1162.5 1102.5,1162.5 1107.5,1162.5C 1107.83,1151.15 1107.5,1139.81 1106.5,1128.5C 1102.95,1130.44 1099.29,1132.11 1095.5,1133.5C 1093.91,1131.33 1092.58,1129 1091.5,1126.5C 1098.39,1122.05 1105.73,1118.72 1113.5,1116.5 Z"/></g>
<g><path style="opacity:0.999" fill="#071a26" d="M 1013.5,1124.5 C 1019.1,1123.8 1023.1,1125.96 1025.5,1131C 1024.56,1132.94 1023.23,1134.61 1021.5,1136C 1016.58,1139.04 1011.75,1142.21 1007,1145.5C 1005.08,1137.1 1007.25,1130.1 1013.5,1124.5 Z"/></g>
<g><path style="opacity:0.999" fill="#091b28" d="M 1257.5,1123.5 C 1262.99,1123.25 1266.99,1125.58 1269.5,1130.5C 1263.72,1136.1 1257.22,1140.77 1250,1144.5C 1248.27,1135.84 1250.77,1128.84 1257.5,1123.5 Z"/></g>
<g><path style="opacity:1" fill="#081a27" d="M 968.5,1123.5 C 974.594,1122.71 978.594,1125.21 980.5,1131C 974.611,1135.96 968.277,1140.46 961.5,1144.5C 959.268,1135.86 961.602,1128.86 968.5,1123.5 Z"/></g>
<g><path style="opacity:0.982" fill="#b9bfc3" d="M 1059.5,1127.5 C 1059.56,1126.96 1059.89,1126.62 1060.5,1126.5C 1061.82,1138.33 1061.82,1149.99 1060.5,1161.5C 1060.83,1149.99 1060.49,1138.65 1059.5,1127.5 Z"/></g>
<g><path style="opacity:0.974" fill="#2e414c" d="M 1166.5,1115.5 C 1167.5,1130.32 1167.83,1145.32 1167.5,1160.5C 1171.7,1160.18 1175.7,1160.52 1179.5,1161.5C 1179.17,1161.5 1178.83,1161.5 1178.5,1161.5C 1174.5,1161.5 1170.5,1161.5 1166.5,1161.5C 1166.5,1146.17 1166.5,1130.83 1166.5,1115.5 Z"/></g>
<g><path style="opacity:0.999" fill="#081b27" d="M 1270.5,1140.5 C 1271.71,1146.83 1270.54,1152.83 1267,1158.5C 1259.48,1163.55 1254.48,1161.88 1252,1153.5C 1257.79,1148.53 1263.96,1144.19 1270.5,1140.5 Z"/></g>
<g><path style="opacity:0.999" fill="#081a26" d="M 974.5,1161.5 C 969.774,1159.81 965.774,1157.15 962.5,1153.5C 968.713,1148.8 975.213,1144.47 982,1140.5C 982.425,1144.87 982.092,1149.2 981,1153.5C 979.695,1156.96 977.529,1159.63 974.5,1161.5 Z"/></g>
<g><path style="opacity:0.999" fill="#081a27" d="M 1026.5,1142.5 C 1027.46,1144.26 1027.79,1146.26 1027.5,1148.5C 1027.13,1157.71 1022.46,1162.21 1013.5,1162C 1009.74,1159.67 1008.41,1156.51 1009.5,1152.5C 1015.2,1149.11 1020.87,1145.78 1026.5,1142.5 Z"/></g>
<g><path style="opacity:0.949" fill="#6b777e" d="M 1026.5,1142.5 C 1026.56,1141.96 1026.89,1141.62 1027.5,1141.5C 1028.8,1143.97 1028.8,1146.31 1027.5,1148.5C 1027.79,1146.26 1027.46,1144.26 1026.5,1142.5 Z"/></g>
<g><path style="opacity:0.973" fill="#57676f" d="M 1201.5,1128.5 C 1202.21,1127.6 1203.21,1127.26 1204.5,1127.5C 1204.83,1139.01 1204.49,1150.35 1203.5,1161.5C 1200.17,1161.5 1196.83,1161.5 1193.5,1161.5C 1196.62,1160.52 1199.96,1160.19 1203.5,1160.5C 1204.14,1149.45 1203.48,1138.78 1201.5,1128.5 Z"/></g>
<g><path style="opacity:0.922" fill="#b0b6ba" d="M 1083.5,1161.5 C 1084.48,1164.29 1084.81,1167.29 1084.5,1170.5C 1071.66,1170.83 1058.99,1170.5 1046.5,1169.5C 1058.83,1169.5 1071.17,1169.5 1083.5,1169.5C 1083.5,1166.83 1083.5,1164.17 1083.5,1161.5 Z"/></g>
<g><path style="opacity:0.925" fill="#d1d5d7" d="M 1141.5,1161.5 C 1141.5,1164.17 1141.5,1166.83 1141.5,1169.5C 1153.83,1169.5 1166.17,1169.5 1178.5,1169.5C 1178.5,1166.83 1178.5,1164.17 1178.5,1161.5C 1178.83,1161.5 1179.17,1161.5 1179.5,1161.5C 1179.5,1164.5 1179.5,1167.5 1179.5,1170.5C 1166.5,1170.5 1153.5,1170.5 1140.5,1170.5C 1140.19,1167.29 1140.52,1164.29 1141.5,1161.5 Z"/></g>
<g><path style="opacity:0.927" fill="#c7cbce" d="M 1193.5,1161.5 C 1196.83,1161.5 1200.17,1161.5 1203.5,1161.5C 1199.37,1162.48 1195.03,1162.82 1190.5,1162.5C 1190.5,1164.83 1190.5,1167.17 1190.5,1169.5C 1202.5,1169.5 1214.5,1169.5 1226.5,1169.5C 1226.5,1167.17 1226.5,1164.83 1226.5,1162.5C 1222.63,1162.81 1218.96,1162.48 1215.5,1161.5C 1219.5,1161.5 1223.5,1161.5 1227.5,1161.5C 1227.5,1164.5 1227.5,1167.5 1227.5,1170.5C 1223.17,1170.5 1218.83,1170.5 1214.5,1170.5C 1206.17,1170.5 1197.83,1170.5 1189.5,1170.5C 1189.5,1167.5 1189.5,1164.5 1189.5,1161.5C 1190.83,1161.5 1192.17,1161.5 1193.5,1161.5 Z"/></g>
<g><path style="opacity:0.898" fill="#4d5d65" d="M 1227.5,1161.5 C 1228.48,1164.62 1228.81,1167.96 1228.5,1171.5C 1223.64,1171.82 1218.97,1171.49 1214.5,1170.5C 1218.83,1170.5 1223.17,1170.5 1227.5,1170.5C 1227.5,1167.5 1227.5,1164.5 1227.5,1161.5 Z"/></g>
<g><path style="opacity:0.998" fill="#fafaf8" d="M 1025.5,1195.5 C 1019.11,1193.31 1013.78,1189.65 1009.5,1184.5C 1010.75,1182.86 1012.42,1181.7 1014.5,1181C 1018.15,1180.5 1021.82,1180.33 1025.5,1180.5C 1025.5,1185.5 1025.5,1190.5 1025.5,1195.5 Z"/></g>
<g><path style="opacity:0.999" fill="#f6f7f7" d="M 1074.5,1225.5 C 1070.07,1224.79 1066.4,1222.79 1063.5,1219.5C 1063.83,1209.81 1063.5,1200.14 1062.5,1190.5C 1061.89,1190.62 1061.56,1190.96 1061.5,1191.5C 1058.09,1193.29 1054.59,1194.96 1051,1196.5C 1050.23,1196.36 1049.56,1196.02 1049,1195.5C 1048.44,1193.39 1047.61,1191.39 1046.5,1189.5C 1054.18,1182.69 1063.18,1179.36 1073.5,1179.5C 1073.73,1194.84 1074.06,1210.17 1074.5,1225.5 Z"/></g>
<g><path style="opacity:0.999" fill="#f6f7f7" d="M 1108.5,1181.5 C 1122.95,1178.81 1132.12,1184.47 1136,1198.5C 1138.54,1210.29 1136.04,1220.79 1128.5,1230C 1113.3,1238.88 1102.13,1235.38 1095,1219.5C 1092.74,1210.72 1093.07,1202.05 1096,1193.5C 1098.74,1187.92 1102.91,1183.92 1108.5,1181.5 Z"/></g>
<g><path style="opacity:0.999" fill="#f7f8f8" d="M 1160.5,1180.5 C 1174.3,1179.81 1182.8,1186.14 1186,1199.5C 1187.4,1208.63 1186.07,1217.3 1182,1225.5C 1174.45,1234.67 1165.29,1236.83 1154.5,1232C 1149.34,1228.5 1146.17,1223.67 1145,1217.5C 1140.71,1200.82 1145.88,1188.49 1160.5,1180.5 Z"/></g>
<g><path style="opacity:0.999" fill="#f7f7f8" d="M 1208.5,1180.5 C 1220.75,1179.21 1229.25,1184.21 1234,1195.5C 1234.67,1202.83 1234.67,1210.17 1234,1217.5C 1229.2,1231.15 1219.7,1236.32 1205.5,1233C 1192.92,1224.82 1188.76,1213.32 1193,1198.5C 1195.54,1190.14 1200.7,1184.14 1208.5,1180.5 Z"/></g>
<g><path style="opacity:0.999" fill="#071926" d="M 1110.5,1189.5 C 1116.59,1188.1 1120.92,1190.1 1123.5,1195.5C 1123.47,1197.03 1122.8,1198.2 1121.5,1199C 1116.34,1202.75 1111,1206.25 1105.5,1209.5C 1104.34,1205.88 1104.17,1202.21 1105,1198.5C 1106.86,1195.44 1108.69,1192.44 1110.5,1189.5 Z"/></g>
<g><path style="opacity:0.999" fill="#081b27" d="M 1210.5,1188.5 C 1216.96,1187.22 1220.96,1189.72 1222.5,1196C 1216.47,1201.11 1209.97,1205.61 1203,1209.5C 1201.27,1200.84 1203.77,1193.84 1210.5,1188.5 Z"/></g>
<g><path style="opacity:1" fill="#071b28" d="M 1161.5,1189.5 C 1167.65,1187.91 1171.65,1190.08 1173.5,1196C 1168.23,1201.58 1162.07,1206.08 1155,1209.5C 1152.92,1201.25 1155.08,1194.59 1161.5,1189.5 Z"/></g>
<g><path style="opacity:0.999" fill="#001825" d="M 916.5,1194.5 C 927.976,1201.74 939.31,1209.24 950.5,1217C 954.025,1219.7 957.358,1222.53 960.5,1225.5C 958.167,1225.5 955.833,1225.5 953.5,1225.5C 953.223,1228.45 953.556,1231.28 954.5,1234C 961.158,1234.5 967.825,1234.67 974.5,1234.5C 982.66,1240.41 990.993,1246.08 999.5,1251.5C 994.72,1261.26 993.22,1271.6 995,1282.5C 999.914,1296.14 1009.41,1300.64 1023.5,1296C 1031.39,1292.4 1035.39,1286.24 1035.5,1277.5C 1036.48,1276.86 1037.48,1276.19 1038.5,1275.5C 1040.53,1276.84 1042.53,1278.18 1044.5,1279.5C 1046.93,1293.56 1055.26,1299.56 1069.5,1297.5C 1073.36,1298.43 1077.03,1299.93 1080.5,1302C 1086.74,1305.94 1092.74,1310.11 1098.5,1314.5C 1090.56,1326.81 1089.39,1339.81 1095,1353.5C 1099.07,1359.79 1104.91,1362.79 1112.5,1362.5C 1121.04,1362.78 1127.21,1359.12 1131,1351.5C 1133.12,1346.36 1134.28,1341.03 1134.5,1335.5C 1189.09,1364.11 1243.42,1393.11 1297.5,1422.5C 1197.06,1482.56 1096.4,1542.39 995.5,1602C 969.378,1616.02 941.711,1621.19 912.5,1617.5C 913.931,1617.12 914.764,1616.12 915,1614.5C 915.333,1611.83 915.667,1609.17 916,1606.5C 916.5,1469.17 916.667,1331.83 916.5,1194.5 Z"/></g>
<g><path style="opacity:0.963" fill="#b3b9bc" d="M 1061.5,1191.5 C 1061.56,1190.96 1061.89,1190.62 1062.5,1190.5C 1063.5,1200.14 1063.83,1209.81 1063.5,1219.5C 1062.83,1219.5 1062.5,1219.17 1062.5,1218.5C 1062.83,1209.32 1062.49,1200.32 1061.5,1191.5 Z"/></g>
<g><path style="opacity:0.999" fill="#081b27" d="M 1223.5,1205.5 C 1225.88,1213.86 1223.55,1220.7 1216.5,1226C 1214.5,1226.67 1212.5,1226.67 1210.5,1226C 1207.11,1224 1205.61,1221.17 1206,1217.5C 1211.47,1212.86 1217.3,1208.86 1223.5,1205.5 Z"/></g>
<g><path style="opacity:0.999" fill="#051825" d="M 1123.5,1206.5 C 1126.31,1212.67 1125.48,1218.67 1121,1224.5C 1114.22,1228.09 1109.56,1226.43 1107,1219.5C 1112.11,1214.54 1117.61,1210.21 1123.5,1206.5 Z"/></g>
<g><path style="opacity:1" fill="#091b27" d="M 1173.5,1206.5 C 1174.5,1206.5 1175.5,1206.5 1176.5,1206.5C 1176.5,1213.49 1174.5,1219.82 1170.5,1225.5C 1164.11,1228.09 1159.44,1226.43 1156.5,1220.5C 1161.6,1215.05 1167.27,1210.39 1173.5,1206.5 Z"/></g>
<g><path style="opacity:0.998" fill="#f8f8f6" d="M 960.5,1225.5 C 966.19,1227.01 970.857,1230.01 974.5,1234.5C 967.825,1234.67 961.158,1234.5 954.5,1234C 953.556,1231.28 953.223,1228.45 953.5,1225.5C 955.833,1225.5 958.167,1225.5 960.5,1225.5 Z"/></g>
<g><path style="opacity:0.995" fill="#f7f6f2" d="M 1074.5,1225.5 C 1078.5,1225.5 1082.5,1225.5 1086.5,1225.5C 1086.5,1228.17 1086.5,1230.83 1086.5,1233.5C 1081.68,1232 1077.68,1229.34 1074.5,1225.5 Z"/></g>
<g><path style="opacity:0.999" fill="#f5f7f7" d="M 1167.5,1280.5 C 1163.54,1278.53 1159.88,1276.19 1156.5,1273.5C 1156.83,1267.46 1156.5,1261.46 1155.5,1255.5C 1151.96,1257.77 1148.29,1259.77 1144.5,1261.5C 1142.91,1259.33 1141.58,1257 1140.5,1254.5C 1148.08,1247.55 1157.08,1244.22 1167.5,1244.5C 1167.5,1256.5 1167.5,1268.5 1167.5,1280.5 Z"/></g>
<g><path style="opacity:0.998" fill="#f4f5f5" d="M 977.5,1289.5 C 980.962,1290.48 984.629,1290.81 988.5,1290.5C 988.5,1293.17 988.5,1295.83 988.5,1298.5C 976.167,1298.5 963.833,1298.5 951.5,1298.5C 951.5,1295.5 951.5,1292.5 951.5,1289.5C 956.167,1289.5 960.833,1289.5 965.5,1289.5C 965.5,1278.5 965.5,1267.5 965.5,1256.5C 961.181,1257.74 957.015,1259.41 953,1261.5C 951.115,1259.09 950.448,1256.42 951,1253.5C 958.692,1247.24 967.525,1244.24 977.5,1244.5C 977.5,1259.5 977.5,1274.5 977.5,1289.5 Z"/></g>
<g><path style="opacity:0.998" fill="#f3f3f1" d="M 1108.5,1245.5 C 1121.47,1243.14 1129.81,1248.14 1133.5,1260.5C 1127.58,1258.2 1121.91,1255.37 1116.5,1252C 1113.58,1250.05 1110.91,1247.89 1108.5,1245.5 Z"/></g>
<g><path style="opacity:0.999" fill="#f7f7f7" d="M 999.5,1251.5 C 1001.51,1252.23 1003.51,1253.06 1005.5,1254C 1006.25,1254.67 1006.59,1255.5 1006.5,1256.5C 1005.6,1260.28 1004.93,1264.11 1004.5,1268C 1004.83,1269.5 1005.17,1271 1005.5,1272.5C 1009.72,1269.56 1014.06,1266.89 1018.5,1264.5C 1024.17,1267.17 1029.83,1269.83 1035.5,1272.5C 1035.5,1274.17 1035.5,1275.83 1035.5,1277.5C 1035.39,1286.24 1031.39,1292.4 1023.5,1296C 1009.41,1300.64 999.914,1296.14 995,1282.5C 993.22,1271.6 994.72,1261.26 999.5,1251.5 Z"/></g>
<g><path style="opacity:0.914" fill="#bdc6cc" d="M 882.5,1170.5 C 883.167,1170.5 883.5,1170.83 883.5,1171.5C 883.5,1199.83 883.5,1228.17 883.5,1256.5C 812.5,1256.5 741.5,1256.5 670.5,1256.5C 740.998,1255.5 811.665,1255.17 882.5,1255.5C 882.5,1227.17 882.5,1198.83 882.5,1170.5 Z"/></g>
<g><path style="opacity:0.998" fill="#0b1c28" d="M 1006.5,1256.5 C 1011.51,1257.67 1015.51,1260.34 1018.5,1264.5C 1014.06,1266.89 1009.72,1269.56 1005.5,1272.5C 1005.17,1271 1004.83,1269.5 1004.5,1268C 1004.93,1264.11 1005.6,1260.28 1006.5,1256.5 Z"/></g>
<g><path style="opacity:1" fill="#081b27" d="M 1023.5,1269.5 C 1024.5,1269.5 1025.5,1269.5 1026.5,1269.5C 1026.42,1275.08 1025.25,1280.41 1023,1285.5C 1016.77,1292.41 1011.27,1291.75 1006.5,1283.5C 1007.98,1281.52 1009.65,1279.68 1011.5,1278C 1015.74,1275.39 1019.74,1272.56 1023.5,1269.5 Z"/></g>
<g><path style="opacity:0.998" fill="#f4f3f2" d="M 1044.5,1279.5 C 1052.14,1284.32 1059.81,1289.16 1067.5,1294C 1068.82,1294.82 1069.49,1295.98 1069.5,1297.5C 1055.26,1299.56 1046.93,1293.56 1044.5,1279.5 Z"/></g>
<g><path style="opacity:0.999" fill="#fbfbfb" d="M 679.5,1288.5 C 692.649,1287.24 703.315,1291.74 711.5,1302C 768.166,1302.5 824.832,1302.67 881.5,1302.5C 881.333,1330.84 881.5,1359.17 882,1387.5C 899.617,1398.61 902.117,1412.44 889.5,1429C 877.885,1436.78 865.885,1437.45 853.5,1431C 842.583,1420.88 840.75,1409.38 848,1396.5C 851.367,1392.8 855.034,1389.46 859,1386.5C 859.5,1364.84 859.667,1343.17 859.5,1321.5C 809.833,1321.5 760.167,1321.5 710.5,1321.5C 708.017,1330.15 702.351,1335.65 693.5,1338C 681.264,1339.57 671.097,1335.74 663,1326.5C 655.016,1308.12 660.516,1295.46 679.5,1288.5 Z"/></g>
<g><path style="opacity:0.983" fill="#909aa0" d="M 977.5,1289.5 C 981.5,1289.5 985.5,1289.5 989.5,1289.5C 989.5,1292.83 989.5,1296.17 989.5,1299.5C 976.656,1299.83 963.989,1299.5 951.5,1298.5C 963.833,1298.5 976.167,1298.5 988.5,1298.5C 988.5,1295.83 988.5,1293.17 988.5,1290.5C 984.629,1290.81 980.962,1290.48 977.5,1289.5 Z"/></g>
<g><path style="opacity:0.999" fill="#f7f7f8" d="M 964.5,1309.5 C 978.879,1307.38 987.712,1313.38 991,1327.5C 993.655,1339.86 990.489,1350.36 981.5,1359C 963.873,1366.94 953.04,1361.44 949,1342.5C 946.243,1327.54 951.41,1316.54 964.5,1309.5 Z"/></g>
<g><path style="opacity:0.999" fill="#f8f8f9" d="M 1013.5,1309.5 C 1016.17,1309.5 1018.83,1309.5 1021.5,1309.5C 1021.33,1324.5 1021.5,1339.5 1022,1354.5C 1025.75,1355.3 1029.58,1355.8 1033.5,1356C 1034.44,1358.72 1034.78,1361.55 1034.5,1364.5C 1021.83,1364.5 1009.17,1364.5 996.5,1364.5C 996.5,1361.5 996.5,1358.5 996.5,1355.5C 1001.17,1355.5 1005.83,1355.5 1010.5,1355.5C 1010.83,1344.15 1010.5,1332.81 1009.5,1321.5C 1006.17,1323.17 1002.83,1324.83 999.5,1326.5C 997.777,1324.22 996.444,1321.72 995.5,1319C 1001.13,1315.02 1007.13,1311.85 1013.5,1309.5 Z"/></g>
<g><path style="opacity:0.999" fill="#fafafb" d="M 1070.5,1333.5 C 1070.5,1340.83 1070.5,1348.17 1070.5,1355.5C 1074.83,1355.5 1079.17,1355.5 1083.5,1355.5C 1083.5,1358.17 1083.5,1360.83 1083.5,1363.5C 1070.83,1363.5 1058.17,1363.5 1045.5,1363.5C 1045.5,1360.83 1045.5,1358.17 1045.5,1355.5C 1049.97,1354.51 1054.64,1354.18 1059.5,1354.5C 1059.5,1343.5 1059.5,1332.5 1059.5,1321.5C 1055.3,1322.6 1051.3,1324.26 1047.5,1326.5C 1045.55,1324.14 1044.71,1321.47 1045,1318.5C 1052.36,1312.37 1060.86,1309.37 1070.5,1309.5C 1070.5,1317.5 1070.5,1325.5 1070.5,1333.5 Z"/></g>
<g><path style="opacity:0.999" fill="#f4f5f5" d="M 1098.5,1314.5 C 1102.14,1314.65 1104.81,1316.32 1106.5,1319.5C 1102.64,1324.99 1101.64,1330.99 1103.5,1337.5C 1109.21,1334.32 1114.54,1330.65 1119.5,1326.5C 1125.01,1328.75 1130.01,1331.75 1134.5,1335.5C 1134.28,1341.03 1133.12,1346.36 1131,1351.5C 1127.21,1359.12 1121.04,1362.78 1112.5,1362.5C 1104.91,1362.79 1099.07,1359.79 1095,1353.5C 1089.39,1339.81 1090.56,1326.81 1098.5,1314.5 Z"/></g>
<g><path style="opacity:0.999" fill="#071a26" d="M 968.5,1316.5 C 974.512,1316.68 977.678,1319.68 978,1325.5C 972.579,1330.09 966.745,1334.09 960.5,1337.5C 957.904,1328.38 960.57,1321.38 968.5,1316.5 Z"/></g>
<g><path style="opacity:0.999" fill="#071925" d="M 1106.5,1319.5 C 1111.57,1320.59 1115.9,1322.92 1119.5,1326.5C 1114.54,1330.65 1109.21,1334.32 1103.5,1337.5C 1101.64,1330.99 1102.64,1324.99 1106.5,1319.5 Z"/></g>
<g><path style="opacity:0.999" fill="#051825" d="M 978.5,1334.5 C 981.09,1340.1 980.59,1345.77 977,1351.5C 973.662,1354.32 969.829,1355.15 965.5,1354C 962.808,1352.12 961.641,1349.62 962,1346.5C 967.656,1342.6 973.156,1338.6 978.5,1334.5 Z"/></g>
<g><path style="opacity:0.999" fill="#061a27" d="M 1121.5,1334.5 C 1124.07,1339.63 1123.9,1344.96 1121,1350.5C 1117.15,1354.67 1112.65,1355.5 1107.5,1353C 1105.38,1351.26 1104.54,1349.1 1105,1346.5C 1110.4,1342.25 1115.9,1338.25 1121.5,1334.5 Z"/></g>
<g><path style="opacity:0.982" fill="#55656d" d="M 1070.5,1333.5 C 1071.49,1340.31 1071.82,1347.31 1071.5,1354.5C 1075.7,1354.18 1079.7,1354.52 1083.5,1355.5C 1079.17,1355.5 1074.83,1355.5 1070.5,1355.5C 1070.5,1348.17 1070.5,1340.83 1070.5,1333.5 Z"/></g>
<g><path style="opacity:0.914" fill="#909a9f" d="M 1045.5,1355.5 C 1045.5,1358.17 1045.5,1360.83 1045.5,1363.5C 1058.17,1363.5 1070.83,1363.5 1083.5,1363.5C 1070.68,1364.5 1057.68,1364.83 1044.5,1364.5C 1044.19,1361.29 1044.52,1358.29 1045.5,1355.5 Z"/></g>
<g><path style="opacity:0.999" fill="#f8f9f9" d="M 968.5,1374.5 C 971.167,1374.5 973.833,1374.5 976.5,1374.5C 976.171,1389.34 976.504,1404.01 977.5,1418.5C 981.5,1418.5 985.5,1418.5 989.5,1418.5C 989.5,1421.5 989.5,1424.5 989.5,1427.5C 976.833,1427.5 964.167,1427.5 951.5,1427.5C 951.5,1424.83 951.5,1422.17 951.5,1419.5C 956.5,1419.5 961.5,1419.5 966.5,1419.5C 966.828,1407.99 966.495,1396.65 965.5,1385.5C 961.615,1387.03 957.781,1388.69 954,1390.5C 952.744,1388.25 951.577,1385.91 950.5,1383.5C 955.399,1378.38 961.399,1375.38 968.5,1374.5 Z"/></g>
<g><path style="opacity:0.999" fill="#f6f6f7" d="M 1015.5,1373.5 C 1028.24,1373.74 1036.08,1380.08 1039,1392.5C 1040.6,1402.99 1038.6,1412.66 1033,1421.5C 1025.26,1427.97 1016.76,1429.13 1007.5,1425C 998.263,1416.96 994.763,1406.79 997,1394.5C 999.179,1383.83 1005.35,1376.83 1015.5,1373.5 Z"/></g>
<g><path style="opacity:0.999" fill="#071926" d="M 1013.5,1382.5 C 1019.86,1381.18 1024.53,1383.35 1027.5,1389C 1021.52,1393.99 1015.18,1398.49 1008.5,1402.5C 1006.42,1394.81 1008.09,1388.15 1013.5,1382.5 Z"/></g>
<g><path style="opacity:0.95" fill="#bfc4c7" d="M 968.5,1374.5 C 971.287,1373.52 974.287,1373.19 977.5,1373.5C 977.5,1388.5 977.5,1403.5 977.5,1418.5C 976.504,1404.01 976.171,1389.34 976.5,1374.5C 973.833,1374.5 971.167,1374.5 968.5,1374.5 Z"/></g>
<g><path style="opacity:0.957" fill="#40515b" d="M 965.5,1385.5 C 966.495,1396.65 966.828,1407.99 966.5,1419.5C 961.5,1419.5 956.5,1419.5 951.5,1419.5C 955.97,1418.51 960.637,1418.18 965.5,1418.5C 965.5,1407.5 965.5,1396.5 965.5,1385.5 Z"/></g>
<g><path style="opacity:0.999" fill="#071926" d="M 1026.5,1399.5 C 1029.31,1405.16 1028.81,1410.83 1025,1416.5C 1021.21,1419.8 1017.04,1420.3 1012.5,1418C 1010.67,1416.51 1009.83,1414.68 1010,1412.5C 1015.11,1407.54 1020.61,1403.21 1026.5,1399.5 Z"/></g>
</svg>
