<?xml version="1.0" encoding="UTF-8"?>
<!DOCTYPE svg PUBLIC "-//W3C//DTD SVG 1.1//EN" "http://www.w3.org/Graphics/SVG/1.1/DTD/svg11.dtd">
<svg xmlns="http://www.w3.org/2000/svg" version="1.1" width="200px" height="200px" style="shape-rendering:geometricPrecision; text-rendering:geometricPrecision; image-rendering:optimizeQuality; fill-rule:evenodd; clip-rule:evenodd" xmlns:xlink="http://www.w3.org/1999/xlink">
<g><path style="opacity:1" fill="#fdfdfd" d="M -0.5,-0.5 C 66.1667,-0.5 132.833,-0.5 199.5,-0.5C 199.5,66.1667 199.5,132.833 199.5,199.5C 132.833,199.5 66.1667,199.5 -0.5,199.5C -0.5,132.833 -0.5,66.1667 -0.5,-0.5 Z"/></g>
<g><path style="opacity:1" fill="#69536c" d="M 151.5,44.5 C 150.833,44.5 150.5,44.8333 150.5,45.5C 147.853,44.335 145.186,43.1684 142.5,42C 146.034,41.1361 149.034,41.9694 151.5,44.5 Z"/></g>
<g><path style="opacity:1" fill="#69516c" d="M 45.5,46.5 C 45.5,45.1667 44.8333,44.5 43.5,44.5C 46.4562,42.4275 49.7896,41.5942 53.5,42C 50.4076,42.8536 47.7409,44.3536 45.5,46.5 Z"/></g>
<g><path style="opacity:1" fill="#6c3c72" d="M 43.5,44.5 C 44.8333,44.5 45.5,45.1667 45.5,46.5C 44.6851,47.4293 43.8518,48.4293 43,49.5C 42.5017,52.8168 42.335,56.1501 42.5,59.5C 41.5166,55.7016 41.1832,51.7016 41.5,47.5C 40.5,47.5 39.5,47.5 38.5,47.5C 39.6594,45.7497 41.326,44.7497 43.5,44.5 Z"/></g>
<g><path style="opacity:1" fill="#a2a9c0" d="M 111.5,53.5 C 117.319,52.3475 123.319,52.1808 129.5,53C 130.71,54.0391 131.71,55.2058 132.5,56.5C 131.735,56.9234 130.902,57.2568 130,57.5C 124.388,53.8996 118.221,52.5663 111.5,53.5 Z"/></g>
<g><path style="opacity:1" fill="#ab8baf" d="M 86.5,52.5 C 85.5,52.5 84.5,52.5 83.5,52.5C 83.5,53.5 83.5,54.5 83.5,55.5C 79.5397,56.1268 77.2064,58.4601 76.5,62.5C 74.9578,57.7398 76.6245,54.2398 81.5,52C 83.3869,51.2204 85.0536,51.3871 86.5,52.5 Z"/></g>
<g><path style="opacity:1" fill="#4e5787" d="M 111.5,53.5 C 118.221,52.5663 124.388,53.8996 130,57.5C 130.902,57.2568 131.735,56.9234 132.5,56.5C 133.977,59.761 133.311,62.5943 130.5,65C 124.944,66.2392 119.278,66.9059 113.5,67C 111.093,67.2572 109.427,68.4238 108.5,70.5C 108.5,69.1667 108.5,67.8333 108.5,66.5C 114.734,65.0629 121.067,64.2296 127.5,64C 128.428,63.6121 129.095,62.9454 129.5,62C 127.618,59.2561 125.285,56.9228 122.5,55C 116.805,54.3742 111.138,54.5409 105.5,55.5C 107.214,54.2616 109.214,53.595 111.5,53.5 Z"/></g>
<g><path style="opacity:1" fill="#691576" d="M 157.5,47.5 C 158.906,47.9731 159.573,48.9731 159.5,50.5C 161.18,55.6098 161.847,60.9431 161.5,66.5C 161.167,68.5 160.833,70.5 160.5,72.5C 159.834,75.3583 159.167,78.3583 158.5,81.5C 157.476,80.1468 156.143,79.4802 154.5,79.5C 153.741,68.7652 153.741,58.0985 154.5,47.5C 155.5,47.5 156.5,47.5 157.5,47.5 Z"/></g>
<g><path style="opacity:1" fill="#632a6d" d="M 86.5,52.5 C 92.5798,55.1133 94.0798,59.4466 91,65.5C 88.0052,68.2648 84.5052,69.0981 80.5,68C 78.5359,66.549 77.2026,64.7157 76.5,62.5C 77.2064,58.4601 79.5397,56.1268 83.5,55.5C 83.5,54.5 83.5,53.5 83.5,52.5C 84.5,52.5 85.5,52.5 86.5,52.5 Z"/></g>
<g><path style="opacity:1" fill="#6a0f78" d="M 83.5,55.5 C 87.9453,53.9238 90.2786,55.5905 90.5,60.5C 89.7585,66.0401 86.7585,67.7068 81.5,65.5C 78.6362,64.2421 77.9696,62.2421 79.5,59.5C 80.6888,58.5713 82.0222,58.238 83.5,58.5C 83.5,57.5 83.5,56.5 83.5,55.5 Z"/></g>
<g><path style="opacity:1" fill="#6b3b73" d="M 159.5,50.5 C 160.966,51.347 161.8,52.6803 162,54.5C 162.812,58.6888 162.645,62.6888 161.5,66.5C 161.847,60.9431 161.18,55.6098 159.5,50.5 Z"/></g>
<g><path style="opacity:1" fill="#661475" d="M 38.5,47.5 C 39.5,47.5 40.5,47.5 41.5,47.5C 41.1832,51.7016 41.5166,55.7016 42.5,59.5C 42.99,66.3933 42.3233,73.0599 40.5,79.5C 39.1667,79.5 37.8333,79.5 36.5,79.5C 36.5843,72.5934 35.9176,65.7601 34.5,59C 33.9079,55.7985 35.0746,53.6319 38,52.5C 38.4935,50.8659 38.6602,49.1992 38.5,47.5 Z"/></g>
<g><path style="opacity:1" fill="#e1cee4" d="M 152.5,63.5 C 151.287,68.9034 151.62,74.2367 153.5,79.5C 152.307,79.0296 151.64,78.0296 151.5,76.5C 151.085,74.1785 150.751,71.8451 150.5,69.5C 150.361,67.1175 151.028,65.1175 152.5,63.5 Z"/></g>
<g><path style="opacity:1" fill="#65316d" d="M 151.5,44.5 C 154.089,44.461 156.089,45.461 157.5,47.5C 156.5,47.5 155.5,47.5 154.5,47.5C 153.741,58.0985 153.741,68.7652 154.5,79.5C 154.167,79.5 153.833,79.5 153.5,79.5C 151.62,74.2367 151.287,68.9034 152.5,63.5C 154.405,57.0951 153.738,51.0951 150.5,45.5C 150.5,44.8333 150.833,44.5 151.5,44.5 Z"/></g>
<g><path style="opacity:1" fill="#3e4c93" d="M 108.5,70.5 C 107.662,70.8417 107.328,71.5084 107.5,72.5C 106.176,77.5673 106.176,82.734 107.5,88C 114.794,87.4858 122.128,87.4858 129.5,88C 130.795,90.8007 130.795,93.6341 129.5,96.5C 122.833,97.8333 116.167,97.8333 109.5,96.5C 108.175,93.6708 106.175,93.0042 103.5,94.5C 104.689,95.4287 106.022,95.762 107.5,95.5C 107.5,96.8333 107.5,98.1667 107.5,99.5C 106.238,106.969 105.571,114.635 105.5,122.5C 102.167,122.5 100.5,124.167 100.5,127.5C 93.825,127.666 87.1583,127.5 80.5,127C 79.1859,126.015 78.1859,124.848 77.5,123.5C 77.5,111.5 77.5,99.5 77.5,87.5C 72.8333,87.5 68.1667,87.5 63.5,87.5C 57.5419,78.2824 60.2086,74.2824 71.5,75.5C 75.8514,75.7093 80.1847,76.0427 84.5,76.5C 86.4788,77.8121 88.1455,79.4788 89.5,81.5C 90.4988,92.4798 90.8321,103.48 90.5,114.5C 91.791,114.737 92.791,114.404 93.5,113.5C 94.3311,99.6727 94.8311,85.6727 95,71.5C 97.1147,65.226 100.615,59.8927 105.5,55.5C 111.138,54.5409 116.805,54.3742 122.5,55C 125.285,56.9228 127.618,59.2561 129.5,62C 129.095,62.9454 128.428,63.6121 127.5,64C 121.067,64.2296 114.734,65.0629 108.5,66.5C 108.5,67.8333 108.5,69.1667 108.5,70.5 Z"/></g>
<g><path style="opacity:1" fill="#4b5580" d="M 86.5,74.5 C 85.8333,75.1667 85.1667,75.8333 84.5,76.5C 80.1847,76.0427 75.8514,75.7093 71.5,75.5C 60.2086,74.2824 57.5419,78.2824 63.5,87.5C 62.8333,87.5 62.1667,87.5 61.5,87.5C 57.5579,83.3761 57.5579,79.2095 61.5,75C 69.8267,74.5003 78.16,74.3336 86.5,74.5 Z"/></g>
<g><path style="opacity:1" fill="#5f6990" d="M 105.5,55.5 C 100.615,59.8927 97.1147,65.226 95,71.5C 94.8311,85.6727 94.3311,99.6727 93.5,113.5C 93.3334,98.4963 93.5001,83.4963 94,68.5C 96.2664,62.7363 100.1,58.4029 105.5,55.5 Z"/></g>
<g><path style="opacity:1" fill="#4e5787" d="M 107.5,72.5 C 107.5,76.8333 107.5,81.1667 107.5,85.5C 115.253,85.1039 122.92,85.6039 130.5,87C 134.758,91.7211 134.091,95.7211 128.5,99C 121.508,99.4996 114.508,99.6663 107.5,99.5C 107.5,98.1667 107.5,96.8333 107.5,95.5C 106.022,95.762 104.689,95.4287 103.5,94.5C 106.175,93.0042 108.175,93.6708 109.5,96.5C 116.167,97.8333 122.833,97.8333 129.5,96.5C 130.795,93.6341 130.795,90.8007 129.5,88C 122.128,87.4858 114.794,87.4858 107.5,88C 106.176,82.734 106.176,77.5673 107.5,72.5 Z"/></g>
<g><path style="opacity:1" fill="#68336f" d="M 160.5,72.5 C 160.211,75.6492 160.711,78.6492 162,81.5C 165.026,84.0263 168.193,86.3596 171.5,88.5C 167.381,90.3144 163.881,92.9811 161,96.5C 160.474,103.072 160.974,109.572 162.5,116C 162.494,118.033 162.161,119.866 161.5,121.5C 160.2,112.911 159.533,104.244 159.5,95.5C 158.5,95.5 157.5,95.5 156.5,95.5C 158.483,92.5252 161.15,90.1919 164.5,88.5C 160.524,86.1895 157.191,83.1895 154.5,79.5C 156.143,79.4802 157.476,80.1468 158.5,81.5C 159.167,78.3583 159.834,75.3583 160.5,72.5 Z"/></g>
<g><path style="opacity:1" fill="#693470" d="M 38.5,47.5 C 38.6602,49.1992 38.4935,50.8659 38,52.5C 35.0746,53.6319 33.9079,55.7985 34.5,59C 35.9176,65.7601 36.5843,72.5934 36.5,79.5C 37.8333,79.5 39.1667,79.5 40.5,79.5C 42.3233,73.0599 42.99,66.3933 42.5,59.5C 47.0285,72.1324 43.3618,81.799 31.5,88.5C 34.6136,90.3797 37.2802,92.713 39.5,95.5C 38.4168,95.4606 37.4168,95.1272 36.5,94.5C 35.6143,95.325 35.281,96.325 35.5,97.5C 32.495,93.8123 28.8284,90.8123 24.5,88.5C 26.4566,86.5152 28.7899,85.0152 31.5,84C 33.0488,82.786 34.2155,81.286 35,79.5C 34.4483,70.8499 34.1149,62.1832 34,53.5C 35.2775,51.2528 36.7775,49.2528 38.5,47.5 Z"/></g>
<g><path style="opacity:1" fill="#c6cfe1" d="M 61.5,87.5 C 62.1667,87.5 62.8333,87.5 63.5,87.5C 68.1667,87.5 72.8333,87.5 77.5,87.5C 77.5,99.5 77.5,111.5 77.5,123.5C 76.5051,112.012 76.1717,100.345 76.5,88.5C 71.3054,88.8205 66.3054,88.4872 61.5,87.5 Z"/></g>
<g><path style="opacity:1" fill="#9599b7" d="M 86.5,74.5 C 88.7525,74.9156 90.2525,76.249 91,78.5C 90.8503,90.543 91.6837,102.21 93.5,113.5C 92.791,114.404 91.791,114.737 90.5,114.5C 90.8321,103.48 90.4988,92.4798 89.5,81.5C 88.1455,79.4788 86.4788,77.8121 84.5,76.5C 85.1667,75.8333 85.8333,75.1667 86.5,74.5 Z"/></g>
<g><path style="opacity:1" fill="#6a2c73" d="M 39.5,95.5 C 41.2225,97.2528 42.7225,99.2528 44,101.5C 43.0701,110.083 42.7368,118.749 43,127.5C 44.7073,129.037 46.2073,130.704 47.5,132.5C 47.1583,133.338 46.4916,133.672 45.5,133.5C 43.6916,133.509 42.0249,133.009 40.5,132C 35.7194,127.769 33.386,122.436 33.5,116C 34.7547,109.894 35.4214,103.728 35.5,97.5C 35.281,96.325 35.6143,95.325 36.5,94.5C 37.4168,95.1272 38.4168,95.4606 39.5,95.5 Z"/></g>
<g><path style="opacity:1" fill="#691177" d="M 38.5,101.5 C 39.8221,101.33 40.9887,101.663 42,102.5C 42.4966,104.81 42.6633,107.143 42.5,109.5C 40.5165,109.383 38.8498,110.05 37.5,111.5C 37.1667,110.5 36.8333,109.5 36.5,108.5C 36.8864,106.068 37.5531,103.734 38.5,101.5 Z"/></g>
<g><path style="opacity:1" fill="#691475" d="M 156.5,95.5 C 157.5,95.5 158.5,95.5 159.5,95.5C 159.533,104.244 160.2,112.911 161.5,121.5C 161.539,124.089 160.539,126.089 158.5,127.5C 157.5,127.5 156.5,127.5 155.5,127.5C 155.702,118.927 154.702,110.594 152.5,102.5C 152.998,99.6737 154.331,97.3403 156.5,95.5 Z"/></g>
<g><path style="opacity:1" fill="#6b1078" d="M 39.5,111.5 C 40.6491,111.791 41.3158,112.624 41.5,114C 40.9035,118.859 40.5702,123.693 40.5,128.5C 39.2746,126.042 37.7746,123.708 36,121.5C 35.1816,118.773 35.3483,116.106 36.5,113.5C 38.3957,114.639 39.3957,113.973 39.5,111.5 Z"/></g>
<g><path style="opacity:1" fill="#4d5687" d="M 107.5,99.5 C 107.666,107.174 107.5,114.841 107,122.5C 106.418,126.251 104.251,127.918 100.5,127.5C 100.5,124.167 102.167,122.5 105.5,122.5C 105.571,114.635 106.238,106.969 107.5,99.5 Z"/></g>
<g><path style="opacity:1" fill="#683170" d="M 152.5,102.5 C 154.702,110.594 155.702,118.927 155.5,127.5C 156.5,127.5 157.5,127.5 158.5,127.5C 156.977,130.937 154.311,132.937 150.5,133.5C 149.508,133.672 148.842,133.338 148.5,132.5C 150.168,130.66 151.668,128.66 153,126.5C 153.446,119.615 152.946,112.782 151.5,106C 151.514,104.615 151.848,103.449 152.5,102.5 Z"/></g>
<g><path style="opacity:1" fill="#7a6e7a" d="M 47.5,132.5 C 49.5932,133.045 51.5932,133.878 53.5,135C 50.6363,135.193 47.9696,134.693 45.5,133.5C 46.4916,133.672 47.1583,133.338 47.5,132.5 Z"/></g>
<g><path style="opacity:1" fill="#837385" d="M 148.5,132.5 C 148.842,133.338 149.508,133.672 150.5,133.5C 148.086,134.933 145.419,135.433 142.5,135C 144.407,133.878 146.407,133.045 148.5,132.5 Z"/></g>
<g><path style="opacity:1" fill="#2f2f2f" d="M 21.5,156.5 C 21.5,158.833 21.5,161.167 21.5,163.5C 20.5,163.5 19.5,163.5 18.5,163.5C 18.8064,160.615 18.4731,157.948 17.5,155.5C 15.46,152.866 13.2933,152.866 11,155.5C 10.502,158.482 10.3354,161.482 10.5,164.5C 9.5,164.5 8.5,164.5 7.5,164.5C 7.3347,160.818 7.50137,157.152 8,153.5C 14.1171,147.655 18.6171,148.655 21.5,156.5 Z"/></g>
<g><path style="opacity:1" fill="#656565" d="M 121.5,150.5 C 122.209,149.596 123.209,149.263 124.5,149.5C 124.5,154.5 124.5,159.5 124.5,164.5C 123.209,164.737 122.209,164.404 121.5,163.5C 122.8,161.777 123.467,159.61 123.5,157C 123.467,154.39 122.8,152.223 121.5,150.5 Z"/></g>
<g><path style="opacity:1" fill="#b1b1b1" d="M 5.5,150.5 C 5.16667,150.5 4.83333,150.5 4.5,150.5C 2.56977,154.373 1.9031,158.706 2.5,163.5C 1.51388,159.03 1.18054,154.363 1.5,149.5C 3.09903,149.232 4.43236,149.566 5.5,150.5 Z"/></g>
<g><path style="opacity:1" fill="#575757" d="M 4.5,150.5 C 4.83333,150.5 5.16667,150.5 5.5,150.5C 5.5,155.167 5.5,159.833 5.5,164.5C 4.20895,164.737 3.20895,164.404 2.5,163.5C 4.43023,159.627 5.0969,155.294 4.5,150.5 Z"/></g>
<g><path style="opacity:1" fill="#4c4c4c" d="M 130.5,150.5 C 131.946,149.387 133.613,149.22 135.5,150C 136.973,150.71 137.64,151.876 137.5,153.5C 135.833,153.5 134.167,153.5 132.5,153.5C 135.04,151.334 134.373,150.334 130.5,150.5 Z"/></g>
<g><path style="opacity:1" fill="#2c2c2c" d="M 30.5,158.5 C 29.1667,158.5 27.8333,158.5 26.5,158.5C 26.5,160.167 26.5,161.833 26.5,163.5C 25.5,163.5 24.5,163.5 23.5,163.5C 23.3343,159.154 23.501,154.821 24,150.5C 25.5707,148.077 27.7374,146.744 30.5,146.5C 30.3385,148.824 29.1718,150.491 27,151.5C 26.51,152.793 26.3433,154.127 26.5,155.5C 27.8333,155.5 29.1667,155.5 30.5,155.5C 30.5,156.5 30.5,157.5 30.5,158.5 Z"/></g>
<g><path style="opacity:1" fill="#242424" d="M 52.5,155.5 C 51.8343,158.028 51.1676,160.694 50.5,163.5C 49.5159,160.572 49.1826,157.572 49.5,154.5C 51.7943,150.748 55.1277,149.581 59.5,151C 60.8333,151.667 60.8333,152.333 59.5,153C 57.5,153.333 55.5,153.667 53.5,154C 52.944,154.383 52.6107,154.883 52.5,155.5 Z"/></g>
<g><path style="opacity:1" fill="#272727" d="M 88.5,155.5 C 88.5,158.167 88.5,160.833 88.5,163.5C 87.5,163.5 86.5,163.5 85.5,163.5C 85.8174,160.428 85.4841,157.428 84.5,154.5C 82.2984,153.22 80.1317,153.22 78,154.5C 77.502,157.482 77.3354,160.482 77.5,163.5C 76.5,163.5 75.5,163.5 74.5,163.5C 74.8174,160.428 74.4841,157.428 73.5,154.5C 71.2984,153.22 69.1317,153.22 67,154.5C 66.0296,157.444 65.1962,160.444 64.5,163.5C 62.712,158.811 63.3787,154.644 66.5,151C 72.5,151.667 78.5,151.667 84.5,151C 86.751,151.748 88.0844,153.248 88.5,155.5 Z"/></g>
<g><path style="opacity:1" fill="#202020" d="M 121.5,150.5 C 122.8,152.223 123.467,154.39 123.5,157C 123.467,159.61 122.8,161.777 121.5,163.5C 121.5,159.167 121.5,154.833 121.5,150.5 Z"/></g>
<g><path style="opacity:1" fill="#313131" d="M 104.5,155.5 C 104.5,158.167 104.5,160.833 104.5,163.5C 103.5,163.5 102.5,163.5 101.5,163.5C 98.2047,165.009 95.2047,164.509 92.5,162C 88.9652,155.741 90.6319,151.908 97.5,150.5C 101.244,150.25 103.578,151.917 104.5,155.5 Z"/></g>
<g><path style="opacity:1" fill="#303030" d="M 168.5,150.5 C 177.942,149.613 181.942,153.946 180.5,163.5C 177.962,163.507 175.462,163.841 173,164.5C 165.054,161.948 163.554,157.282 168.5,150.5 Z"/></g>
<g><path style="opacity:1" fill="#e7e7e7" d="M 170.5,153.5 C 176.704,153.314 178.037,155.814 174.5,161C 170.945,162.123 168.945,160.789 168.5,157C 168.978,155.697 169.645,154.531 170.5,153.5 Z"/></g>
<g><path style="opacity:1" fill="#f0f0f0" d="M 95.5,153.5 C 101.704,153.314 103.037,155.814 99.5,161C 94.6325,160.711 93.2991,158.211 95.5,153.5 Z"/></g>
<g><path style="opacity:1" fill="#212121" d="M 4.5,150.5 C 5.0969,155.294 4.43023,159.627 2.5,163.5C 1.9031,158.706 2.56977,154.373 4.5,150.5 Z"/></g>
<g><path style="opacity:1" fill="#5f5f5f" d="M 104.5,155.5 C 105.477,158.287 105.81,161.287 105.5,164.5C 103.901,164.768 102.568,164.434 101.5,163.5C 102.5,163.5 103.5,163.5 104.5,163.5C 104.5,160.833 104.5,158.167 104.5,155.5 Z"/></g>
<g><path style="opacity:1" fill="#cfcfcf" d="M 160.5,146.5 C 160.5,152.167 160.5,157.833 160.5,163.5C 161.5,163.5 162.5,163.5 163.5,163.5C 163.5,157.833 163.5,152.167 163.5,146.5C 164.49,152.31 164.823,158.31 164.5,164.5C 162.833,164.5 161.167,164.5 159.5,164.5C 159.177,158.31 159.51,152.31 160.5,146.5 Z"/></g>
<g><path style="opacity:1" fill="#2c2c2c" d="M 160.5,146.5 C 161.5,146.5 162.5,146.5 163.5,146.5C 163.5,152.167 163.5,157.833 163.5,163.5C 162.5,163.5 161.5,163.5 160.5,163.5C 160.5,157.833 160.5,152.167 160.5,146.5 Z"/></g>
<g><path style="opacity:1" fill="#282828" d="M 130.5,150.5 C 134.373,150.334 135.04,151.334 132.5,153.5C 131.504,153.414 130.671,153.748 130,154.5C 128.812,159.98 130.812,161.98 136,160.5C 136.692,161.025 137.192,161.692 137.5,162.5C 129.195,165.026 125.695,162.026 127,153.5C 128.039,152.29 129.206,151.29 130.5,150.5 Z"/></g>
<g><path style="opacity:1" fill="#2e2e2e" d="M 182.5,146.5 C 183.5,146.5 184.5,146.5 185.5,146.5C 185.12,150.157 186.453,151.157 189.5,149.5C 195.941,151.382 197.774,155.382 195,161.5C 190.615,165.756 186.615,165.423 183,160.5C 182.501,155.845 182.334,151.179 182.5,146.5 Z"/></g>
<g><path style="opacity:1" fill="#e7e7e7" d="M 186.5,153.5 C 193.004,153.138 194.671,155.638 191.5,161C 185.785,161.401 184.119,158.901 186.5,153.5 Z"/></g>
<g><path style="opacity:1" fill="#929292" d="M 88.5,155.5 C 89.4767,158.287 89.81,161.287 89.5,164.5C 87.901,164.768 86.5676,164.434 85.5,163.5C 86.5,163.5 87.5,163.5 88.5,163.5C 88.5,160.833 88.5,158.167 88.5,155.5 Z"/></g>
<g><path style="opacity:1" fill="#bcbcbc" d="M 17.5,155.5 C 18.4731,157.948 18.8064,160.615 18.5,163.5C 19.5,163.5 20.5,163.5 21.5,163.5C 21.5,161.167 21.5,158.833 21.5,156.5C 22.4731,158.948 22.8064,161.615 22.5,164.5C 20.8333,164.5 19.1667,164.5 17.5,164.5C 17.5,161.5 17.5,158.5 17.5,155.5 Z"/></g>
<g><path style="opacity:1" fill="#999999" d="M 30.5,158.5 C 29.791,159.404 28.791,159.737 27.5,159.5C 27.5,161.167 27.5,162.833 27.5,164.5C 25.901,164.768 24.5676,164.434 23.5,163.5C 24.5,163.5 25.5,163.5 26.5,163.5C 26.5,161.833 26.5,160.167 26.5,158.5C 27.8333,158.5 29.1667,158.5 30.5,158.5 Z"/></g>
<g><path style="opacity:1" fill="#7f7f7f" d="M 49.5,154.5 C 49.1826,157.572 49.5159,160.572 50.5,163.5C 51.1676,160.694 51.8343,158.028 52.5,155.5C 52.5,158.5 52.5,161.5 52.5,164.5C 51.1667,164.5 49.8333,164.5 48.5,164.5C 48.1872,160.958 48.5206,157.625 49.5,154.5 Z"/></g>
<g><path style="opacity:1" fill="#303030" d="M 107.5,149.5 C 108.5,149.5 109.5,149.5 110.5,149.5C 110.5,150.833 110.5,152.167 110.5,153.5C 111.833,153.5 113.167,153.5 114.5,153.5C 114.5,154.5 114.5,155.5 114.5,156.5C 113.167,156.5 111.833,156.5 110.5,156.5C 110.8,160.976 112.967,162.31 117,160.5C 118.78,162.95 117.947,164.284 114.5,164.5C 111.786,164.06 109.62,162.726 108,160.5C 107.501,156.848 107.335,153.182 107.5,149.5 Z"/></g>
<g><path style="opacity:1" fill="#292929" d="M 35.5,150.5 C 43.8246,148.993 47.3246,152.327 46,160.5C 42.2685,164.05 38.2685,164.383 34,161.5C 31.8417,157.461 32.3417,153.794 35.5,150.5 Z"/></g>
<g><path style="opacity:1" fill="#e6e6e6" d="M 37.5,153.5 C 43.704,153.314 45.0374,155.814 41.5,161C 38.4808,161.33 36.4808,159.997 35.5,157C 35.8618,155.566 36.5285,154.399 37.5,153.5 Z"/></g>
<g><path style="opacity:1" fill="#3b3b3b" d="M 144.5,149.5 C 145.978,149.238 147.311,149.571 148.5,150.5C 146.026,153.981 144.859,157.981 145,162.5C 143.89,164.037 142.39,164.703 140.5,164.5C 141.716,159.396 143.05,154.396 144.5,149.5 Z"/></g>
</svg>
