<?xml version="1.0" encoding="UTF-8"?>
<!DOCTYPE svg PUBLIC "-//W3C//DTD SVG 1.1//EN" "http://www.w3.org/Graphics/SVG/1.1/DTD/svg11.dtd">
<svg xmlns="http://www.w3.org/2000/svg" version="1.1" width="3081px" height="3508px" style="shape-rendering:geometricPrecision; text-rendering:geometricPrecision; image-rendering:optimizeQuality; fill-rule:evenodd; clip-rule:evenodd" xmlns:xlink="http://www.w3.org/1999/xlink">
<g><path style="opacity:0.997" fill="#b11116" d="M 1554.5,867.5 C 1554.5,751.5 1554.5,635.5 1554.5,519.5C 1578.4,500.464 1604.07,483.964 1631.5,470C 1680.08,449.682 1730.75,438.682 1783.5,437C 1831.83,435.786 1880.16,434.786 1928.5,434C 1968.94,432.857 2009.27,430.19 2049.5,426C 2065.54,424.518 2081.37,422.018 2097,418.5C 2097.5,522.499 2097.67,626.499 2097.5,730.5C 2060.43,736.897 2023.09,741.064 1985.5,743C 1934.5,743.333 1883.5,743.667 1832.5,744C 1782.46,743.815 1733.79,751.815 1686.5,768C 1632.55,788.28 1588.72,821.78 1555,868.5C 1554.6,868.272 1554.43,867.938 1554.5,867.5 Z"/></g>
<g><path style="opacity:0.997" fill="#ed1c23" d="M 1554.5,519.5 C 1554.5,635.5 1554.5,751.5 1554.5,867.5C 1506.22,804.147 1442.55,765.647 1363.5,752C 1334.71,747.021 1305.71,744.355 1276.5,744C 1225.83,743.667 1175.17,743.333 1124.5,743C 1086.85,741.372 1049.52,737.039 1012.5,730C 1011.33,626.237 1011.17,522.403 1012,418.5C 1046.84,425.001 1082.01,429.168 1117.5,431C 1138.49,432.299 1159.49,433.299 1180.5,434C 1228.84,434.781 1277.17,435.781 1325.5,437C 1377.48,438.728 1427.48,449.394 1475.5,469C 1503.9,482.849 1530.23,499.683 1554.5,519.5 Z"/></g>
<g><path style="opacity:0.998" fill="#808184" d="M 1368.5,1460.5 C 1367.5,1629.67 1367.17,1799 1367.5,1968.5C 1216.23,1909.4 1109.73,1804.73 1048,1654.5C 1028.76,1604.21 1017.09,1552.21 1013,1498.5C 1011.53,1343.84 1011.03,1189.18 1011.5,1034.5C 1096.5,1034.33 1181.5,1034.5 1266.5,1035C 1319,1042.17 1351.17,1071.67 1363,1123.5C 1364.87,1131.75 1366.21,1140.08 1367,1148.5C 1368.46,1252.49 1368.96,1356.49 1368.5,1460.5 Z"/></g>
<g><path style="opacity:0.999" fill="#808184" d="M 1742.5,1968.5 C 1741.5,1801.67 1741.17,1634.67 1741.5,1467.5C 1741.33,1362.17 1741.5,1256.83 1742,1151.5C 1743.63,1120.95 1753.63,1093.62 1772,1069.5C 1791.15,1049.34 1814.65,1037.84 1842.5,1035C 1927.5,1034.5 2012.5,1034.33 2097.5,1034.5C 2097.67,1185.17 2097.5,1335.83 2097,1486.5C 2085.22,1649.57 2016.39,1782.41 1890.5,1885C 1845.36,1919.75 1796.03,1947.58 1742.5,1968.5 Z"/></g>
<g><path style="opacity:0.998" fill="#58585a" d="M 1368.5,1460.5 C 1370.88,1531.45 1402.21,1585.28 1462.5,1622C 1524.67,1654.96 1586.67,1654.62 1648.5,1621C 1705.17,1585.51 1736.17,1534.35 1741.5,1467.5C 1741.17,1634.67 1741.5,1801.67 1742.5,1968.5C 1651.7,2002.41 1558.37,2011.24 1462.5,1995C 1429.79,1989.41 1398.12,1980.58 1367.5,1968.5C 1367.17,1799 1367.5,1629.67 1368.5,1460.5 Z"/></g>
<g><path style="opacity:0.993" fill="#000000" d="M 436.5,2149.5 C 545.167,2149.33 653.834,2149.5 762.5,2150C 777.333,2152.83 786.167,2161.67 789,2176.5C 789.859,2186.22 789.526,2195.89 788,2205.5C 783.156,2218.84 773.656,2226.34 759.5,2228C 722.835,2228.5 686.168,2228.67 649.5,2228.5C 649.667,2358.5 649.5,2488.5 649,2618.5C 644.609,2633.12 634.776,2641.29 619.5,2643C 603.797,2643.88 588.131,2643.55 572.5,2642C 560.559,2638.39 553.059,2630.56 550,2618.5C 549.5,2488.5 549.333,2358.5 549.5,2228.5C 513.165,2228.67 476.832,2228.5 440.5,2228C 425.742,2226.9 415.909,2219.4 411,2205.5C 408.758,2193.41 409.091,2181.41 412,2169.5C 417.093,2158.89 425.26,2152.23 436.5,2149.5 Z"/></g>
<g><path style="opacity:0.99" fill="#000000" d="M 1178.5,2149.5 C 1193.84,2149.33 1209.17,2149.5 1224.5,2150C 1239.22,2153.05 1248.38,2161.88 1252,2176.5C 1252.67,2323.17 1252.67,2469.83 1252,2616.5C 1248.15,2632.02 1238.32,2640.85 1222.5,2643C 1208.83,2643.67 1195.17,2643.67 1181.5,2643C 1165.68,2640.85 1155.85,2632.02 1152,2616.5C 1151.33,2469.5 1151.33,2322.5 1152,2175.5C 1155.45,2161.22 1164.28,2152.55 1178.5,2149.5 Z"/></g>
<g><path style="opacity:0.989" fill="#000000" d="M 1365.5,2149.5 C 1382.22,2149.07 1398.88,2149.57 1415.5,2151C 1425.84,2154.01 1433.01,2160.51 1437,2170.5C 1438.32,2254.12 1438.99,2337.79 1439,2421.5C 1478.04,2376.79 1516.71,2331.79 1555,2286.5C 1560.83,2279.01 1568.33,2274.17 1577.5,2272C 1602.83,2271.33 1628.17,2271.33 1653.5,2272C 1664.09,2277.44 1666.92,2285.6 1662,2296.5C 1618.67,2341.82 1576.84,2388.32 1536.5,2436C 1581.27,2495.77 1626.44,2555.27 1672,2614.5C 1678.06,2631.21 1672.23,2640.71 1654.5,2643C 1629.83,2643.67 1605.17,2643.67 1580.5,2643C 1575.36,2642.1 1570.7,2640.1 1566.5,2637C 1558.94,2630.34 1552.44,2622.84 1547,2614.5C 1510.75,2563.68 1474.75,2512.68 1439,2461.5C 1438.67,2513.83 1438.33,2566.17 1438,2618.5C 1434.93,2630.57 1427.43,2638.4 1415.5,2642C 1397.5,2644 1379.5,2644 1361.5,2642C 1347.46,2637.63 1339.63,2628.13 1338,2613.5C 1337.33,2468.83 1337.33,2324.17 1338,2179.5C 1340.45,2163.22 1349.62,2153.22 1365.5,2149.5 Z"/></g>
<g><path style="opacity:0.992" fill="#000000" d="M 852.5,2270.5 C 897.501,2270.33 942.501,2270.5 987.5,2271C 1034.85,2277.68 1065.68,2303.85 1080,2349.5C 1084.25,2371.43 1084.58,2393.43 1081,2415.5C 1068.62,2462.55 1038.45,2490.05 990.5,2498C 946.501,2498.5 902.501,2498.67 858.5,2498.5C 858.333,2512.84 858.5,2527.17 859,2541.5C 861.723,2553.22 868.89,2560.72 880.5,2564C 935.167,2564.33 989.833,2564.67 1044.5,2565C 1062.49,2571.46 1070.49,2584.29 1068.5,2603.5C 1070.63,2623.78 1061.96,2636.61 1042.5,2642C 981.499,2642.67 920.499,2643 859.5,2643C 815.15,2639.64 783.65,2617.81 765,2577.5C 761.411,2568.48 759.078,2559.15 758,2549.5C 757.333,2487.83 757.333,2426.17 758,2364.5C 767.459,2310.87 798.959,2279.54 852.5,2270.5 Z M 883.5,2348.5 C 908.169,2348.33 932.836,2348.5 957.5,2349C 976.022,2354.23 984.355,2366.56 982.5,2386C 984.484,2405.07 976.484,2417.41 958.5,2423C 925.168,2423.5 891.835,2423.67 858.5,2423.5C 858.053,2405.11 858.553,2386.78 860,2368.5C 864.354,2357.64 872.187,2350.97 883.5,2348.5 Z"/></g>
<g><path style="opacity:0.989" fill="#000000" d="M 1803.5,2270.5 C 1848.5,2270.33 1893.5,2270.5 1938.5,2271C 1986.28,2277.79 2017.12,2304.29 2031,2350.5C 2032.77,2357.73 2033.77,2365.06 2034,2372.5C 2034.67,2428.83 2034.67,2485.17 2034,2541.5C 2030.68,2585.33 2009.18,2616.5 1969.5,2635C 1957.3,2639.88 1944.63,2642.55 1931.5,2643C 1891.17,2643.67 1850.83,2643.67 1810.5,2643C 1760.71,2639.2 1727.88,2613.7 1712,2566.5C 1710.74,2561.55 1709.74,2556.55 1709,2551.5C 1708.33,2488.5 1708.33,2425.5 1709,2362.5C 1716.72,2317.11 1742.56,2287.61 1786.5,2274C 1792.26,2272.61 1797.93,2271.45 1803.5,2270.5 Z M 1836.5,2348.5 C 1861.54,2348.05 1886.54,2348.55 1911.5,2350C 1920.84,2352.74 1927.34,2358.57 1931,2367.5C 1932.65,2426.11 1932.99,2484.78 1932,2543.5C 1928.98,2552.52 1923.15,2559.02 1914.5,2563C 1886.56,2564.64 1858.56,2564.97 1830.5,2564C 1821.48,2560.98 1814.98,2555.15 1811,2546.5C 1809.35,2488.21 1809.02,2429.88 1810,2371.5C 1814.09,2358.23 1822.93,2350.57 1836.5,2348.5 Z"/></g>
<g><path style="opacity:0.99" fill="#000000" d="M 2146.5,2270.5 C 2161.5,2270.33 2176.5,2270.5 2191.5,2271C 2198.41,2271.96 2204.41,2274.79 2209.5,2279.5C 2221.43,2274.93 2233.76,2272.1 2246.5,2271C 2264.83,2270.33 2283.17,2270.33 2301.5,2271C 2323.53,2273.06 2343.19,2280.89 2360.5,2294.5C 2380.71,2280.82 2403.04,2272.98 2427.5,2271C 2445.83,2270.33 2464.17,2270.33 2482.5,2271C 2533.77,2277.94 2565.94,2306.44 2579,2356.5C 2579.93,2361.8 2580.6,2367.13 2581,2372.5C 2581.67,2453.17 2581.67,2533.83 2581,2614.5C 2578.04,2631.13 2568.21,2640.63 2551.5,2643C 2537.83,2643.67 2524.17,2643.67 2510.5,2643C 2495.24,2641.3 2485.4,2633.13 2481,2618.5C 2480.67,2542.17 2480.33,2465.83 2480,2389.5C 2477.24,2368.14 2465.41,2354.97 2444.5,2350C 2428.39,2348.54 2412.73,2350.54 2397.5,2356C 2398.86,2360.36 2399.69,2364.86 2400,2369.5C 2400.67,2451.83 2400.67,2534.17 2400,2616.5C 2396.15,2632.02 2386.32,2640.85 2370.5,2643C 2356.83,2643.67 2343.17,2643.67 2329.5,2643C 2314.12,2640.95 2304.28,2632.45 2300,2617.5C 2299.67,2540.83 2299.33,2464.17 2299,2387.5C 2295.99,2368.83 2285.49,2356.66 2267.5,2351C 2259.23,2349.46 2250.9,2349.13 2242.5,2350C 2234.77,2351.31 2227.11,2352.81 2219.5,2354.5C 2219.99,2443.54 2219.49,2532.54 2218,2621.5C 2212.78,2634.39 2203.28,2641.56 2189.5,2643C 2173.79,2643.9 2158.13,2643.57 2142.5,2642C 2129.37,2637.87 2121.53,2629.03 2119,2615.5C 2118.33,2509.83 2118.33,2404.17 2119,2298.5C 2122.35,2283.32 2131.51,2273.99 2146.5,2270.5 Z"/></g>
<g><path style="opacity:0.985" fill="#000000" d="M 563.5,2703.5 C 574.505,2703.33 585.505,2703.5 596.5,2704C 603.237,2705.74 607.737,2709.9 610,2716.5C 610.333,2787.83 610.667,2859.17 611,2930.5C 613.057,2944.22 620.89,2952.39 634.5,2955C 650.833,2955.67 667.167,2955.67 683.5,2955C 695.473,2953.03 702.973,2946.19 706,2934.5C 706.012,2861.46 706.679,2788.46 708,2715.5C 710.659,2709.51 715.159,2705.67 721.5,2704C 732.167,2703.33 742.833,2703.33 753.5,2704C 761,2706.17 765.833,2711 768,2718.5C 768.667,2794.17 768.667,2869.83 768,2945.5C 761.817,2979.35 741.651,2998.52 707.5,3003C 675.167,3003.67 642.833,3003.67 610.5,3003C 577.276,2998.78 557.109,2980.28 550,2947.5C 549.333,2870.83 549.333,2794.17 550,2717.5C 552.687,2710.98 557.187,2706.31 563.5,2703.5 Z"/></g>
<g><path style="opacity:0.972" fill="#000000" d="M 1080.5,2703.5 C 1091.51,2703.33 1102.51,2703.5 1113.5,2704C 1120.43,2706.59 1124.93,2711.43 1127,2718.5C 1127.67,2724.5 1127.67,2730.5 1127,2736.5C 1125.26,2743.24 1121.1,2747.74 1114.5,2750C 1102.83,2750.67 1091.17,2750.67 1079.5,2750C 1073.75,2747.92 1069.59,2744.09 1067,2738.5C 1064.29,2728.69 1065.29,2719.36 1070,2710.5C 1073,2707.26 1076.5,2704.93 1080.5,2703.5 Z"/></g>
<g><path style="opacity:0.972" fill="#000000" d="M 2078.5,2703.5 C 2089.51,2703.33 2100.51,2703.5 2111.5,2704C 2119.89,2706.39 2124.72,2711.89 2126,2720.5C 2128.3,2731.38 2125.47,2740.55 2117.5,2748C 2115.91,2748.86 2114.25,2749.53 2112.5,2750C 2100.83,2750.67 2089.17,2750.67 2077.5,2750C 2070.9,2747.74 2066.74,2743.24 2065,2736.5C 2064.33,2730.5 2064.33,2724.5 2065,2718.5C 2067.29,2711.38 2071.79,2706.38 2078.5,2703.5 Z"/></g>
<g><path style="opacity:0.984" fill="#000000" d="M 2222.5,2703.5 C 2233.51,2703.33 2244.51,2703.5 2255.5,2704C 2262.24,2705.74 2266.74,2709.9 2269,2716.5C 2269.5,2736.83 2269.67,2757.16 2269.5,2777.5C 2289.84,2777.33 2310.17,2777.5 2330.5,2778C 2340,2782.65 2344.33,2790.32 2343.5,2801C 2344.84,2812 2340.5,2819.67 2330.5,2824C 2310.21,2825.44 2289.88,2825.94 2269.5,2825.5C 2270.28,2864.82 2270.78,2904.16 2271,2943.5C 2273.9,2950.4 2279.07,2954.23 2286.5,2955C 2303.83,2955.33 2321.17,2955.67 2338.5,2956C 2345.84,2958.68 2350.34,2963.85 2352,2971.5C 2354.65,2982.76 2351.81,2992.26 2343.5,3000C 2340.75,3001.75 2337.75,3002.75 2334.5,3003C 2312.17,3003.67 2289.83,3003.67 2267.5,3003C 2235.15,2998.65 2215.65,2980.48 2209,2948.5C 2208.5,2907.5 2208.33,2866.5 2208.5,2825.5C 2196.45,2825.89 2184.45,2825.39 2172.5,2824C 2162.99,2819.31 2158.65,2811.64 2159.5,2801C 2158.65,2790.36 2162.99,2782.69 2172.5,2778C 2184.5,2777.5 2196.5,2777.33 2208.5,2777.5C 2208.33,2757.5 2208.5,2737.5 2209,2717.5C 2211.69,2710.98 2216.19,2706.31 2222.5,2703.5 Z"/></g>
<g><path style="opacity:0.981" fill="#000000" d="M 835.5,2776.5 C 846.564,2776.09 857.564,2776.59 868.5,2778C 874.088,2780.59 877.921,2784.75 880,2790.5C 888.795,2784.01 898.628,2779.84 909.5,2778C 928.555,2775.76 947.555,2776.09 966.5,2779C 994.181,2787.86 1010.01,2806.69 1014,2835.5C 1014.67,2886.17 1014.67,2936.83 1014,2987.5C 1012.02,2996.41 1006.52,3001.58 997.5,3003C 988.167,3003.67 978.833,3003.67 969.5,3003C 960,3001.5 954.5,2996 953,2986.5C 952.667,2939.83 952.333,2893.17 952,2846.5C 946.755,2832.45 936.589,2825.12 921.5,2824.5C 906.921,2824.75 893.754,2829.08 882,2837.5C 881.667,2886.83 881.333,2936.17 881,2985.5C 879.167,2995.33 873.333,3001.17 863.5,3003C 854.5,3003.67 845.5,3003.67 836.5,3003C 827.886,3001.72 822.386,2996.89 820,2988.5C 819.333,2922.83 819.333,2857.17 820,2791.5C 822.455,2783.54 827.621,2778.54 835.5,2776.5 Z"/></g>
<g><path style="opacity:0.979" fill="#000000" d="M 1082.5,2776.5 C 1092.17,2776.33 1101.84,2776.5 1111.5,2777C 1119.56,2778.73 1124.73,2783.56 1127,2791.5C 1127.67,2857.17 1127.67,2922.83 1127,2988.5C 1124.64,2996.86 1119.14,3001.69 1110.5,3003C 1099.77,3003.9 1089.11,3003.57 1078.5,3002C 1071.28,2998.78 1067.11,2993.28 1066,2985.5C 1065.33,2921.83 1065.33,2858.17 1066,2794.5C 1067.9,2785.1 1073.4,2779.1 1082.5,2776.5 Z"/></g>
<g><path style="opacity:0.98" fill="#000000" d="M 1665.5,2776.5 C 1676.56,2776.09 1687.56,2776.59 1698.5,2778C 1704.09,2780.59 1707.92,2784.75 1710,2790.5C 1718.81,2784.01 1728.64,2779.84 1739.5,2778C 1754.46,2776.46 1769.46,2776.12 1784.5,2777C 1793,2778.83 1798.17,2784 1800,2792.5C 1802.93,2804.14 1800.1,2813.97 1791.5,2822C 1789.91,2822.86 1788.25,2823.53 1786.5,2824C 1770.47,2824.15 1754.47,2824.82 1738.5,2826C 1728.62,2827.52 1719.79,2831.36 1712,2837.5C 1711.67,2886.5 1711.33,2935.5 1711,2984.5C 1709.61,2994.89 1703.78,3001.06 1693.5,3003C 1683.11,3003.9 1672.77,3003.57 1662.5,3002C 1655.93,2999.76 1651.76,2995.26 1650,2988.5C 1649.33,2922.83 1649.33,2857.17 1650,2791.5C 1652.45,2783.54 1657.62,2778.54 1665.5,2776.5 Z"/></g>
<g><path style="opacity:0.979" fill="#000000" d="M 2080.5,2776.5 C 2091.56,2776.09 2102.56,2776.59 2113.5,2778C 2120.72,2781.22 2124.89,2786.72 2126,2794.5C 2126.67,2858.17 2126.67,2921.83 2126,2985.5C 2124.29,2994.88 2118.79,3000.72 2109.5,3003C 2098.77,3003.9 2088.11,3003.57 2077.5,3002C 2070.93,2999.76 2066.76,2995.26 2065,2988.5C 2064.33,2922.83 2064.33,2857.17 2065,2791.5C 2067.45,2783.54 2072.62,2778.54 2080.5,2776.5 Z"/></g>
<g><path style="opacity:0.982" fill="#000000" d="M 2401.5,2776.5 C 2412.56,2776.09 2423.56,2776.59 2434.5,2778C 2440.06,2780.56 2443.89,2784.73 2446,2790.5C 2446.33,2840.5 2446.67,2890.5 2447,2940.5C 2448.61,2949.11 2453.78,2953.94 2462.5,2955C 2482.16,2955.5 2501.83,2955.67 2521.5,2955.5C 2521.33,2901.5 2521.5,2847.5 2522,2793.5C 2523.5,2784 2529,2778.5 2538.5,2777C 2548.17,2776.33 2557.83,2776.33 2567.5,2777C 2575.56,2778.72 2580.72,2783.56 2583,2791.5C 2583.67,2867.5 2583.67,2943.5 2583,3019.5C 2577.06,3051.11 2558.22,3069.61 2526.5,3075C 2487.5,3075.67 2448.5,3075.67 2409.5,3075C 2398.4,3071.54 2393.07,3063.87 2393.5,3052C 2393.2,3039.31 2399.2,3031.64 2411.5,3029C 2445.23,3028.98 2478.89,3028.31 2512.5,3027C 2515.67,3025.17 2518.17,3022.67 2520,3019.5C 2521.36,3013.59 2521.86,3007.59 2521.5,3001.5C 2495.16,3001.67 2468.83,3001.5 2442.5,3001C 2414.16,2996.67 2395.66,2980.83 2387,2953.5C 2385.97,2949.23 2385.3,2944.89 2385,2940.5C 2384.33,2891.83 2384.33,2843.17 2385,2794.5C 2386.9,2785.1 2392.4,2779.1 2401.5,2776.5 Z"/></g>
<g><path style="opacity:0.981" fill="#000000" d="M 1166.5,2777.5 C 1181.5,2777.33 1196.5,2777.5 1211.5,2778C 1218.66,2780.81 1223.16,2785.97 1225,2793.5C 1244.14,2845.91 1263.47,2898.24 1283,2950.5C 1300.21,2895.34 1317.87,2840.34 1336,2785.5C 1338.69,2781.81 1342.19,2779.31 1346.5,2778C 1356.17,2777.33 1365.83,2777.33 1375.5,2778C 1382.13,2781.09 1384.63,2786.26 1383,2793.5C 1360.53,2859.91 1337.86,2926.24 1315,2992.5C 1313.47,2998.03 1309.97,3001.53 1304.5,3003C 1285.83,3003.67 1267.17,3003.67 1248.5,3003C 1242.25,3001.96 1237.42,2998.79 1234,2993.5C 1209,2926.83 1184,2860.17 1159,2793.5C 1157.57,2786.26 1160.07,2780.93 1166.5,2777.5 Z"/></g>
<g><path style="opacity:0.985" fill="#000000" d="M 1458.5,2777.5 C 1489.5,2777.33 1520.5,2777.5 1551.5,2778C 1579.76,2784.59 1596.92,2802.09 1603,2830.5C 1608.31,2857.46 1601.48,2880.63 1582.5,2900C 1573.14,2907.68 1562.47,2912.68 1550.5,2915C 1522.84,2915.5 1495.17,2915.67 1467.5,2915.5C 1467.33,2924.51 1467.5,2933.51 1468,2942.5C 1470.35,2949.52 1475.19,2953.68 1482.5,2955C 1515.5,2955.33 1548.5,2955.67 1581.5,2956C 1591.73,2960.42 1596.4,2968.25 1595.5,2979.5C 1596.17,2991.99 1590.5,2999.82 1578.5,3003C 1540.83,3003.67 1503.17,3003.67 1465.5,3003C 1431.22,2998.72 1411.39,2979.56 1406,2945.5C 1405.04,2906.47 1405.37,2867.47 1407,2828.5C 1414.12,2801.21 1431.29,2784.21 1458.5,2777.5 Z M 1482.5,2824.5 C 1497.17,2824.33 1511.84,2824.5 1526.5,2825C 1535.33,2826.5 1540.5,2831.67 1542,2840.5C 1544.38,2850.83 1541.88,2859.67 1534.5,2867C 1532.91,2867.86 1531.25,2868.53 1529.5,2869C 1508.84,2869.5 1488.17,2869.67 1467.5,2869.5C 1467.33,2859.16 1467.5,2848.83 1468,2838.5C 1470.12,2830.87 1474.96,2826.21 1482.5,2824.5 Z"/></g>
<g><path style="opacity:0.985" fill="#000000" d="M 1876.5,2777.5 C 1917.5,2777.33 1958.5,2777.5 1999.5,2778C 2006.07,2780.24 2010.24,2784.74 2012,2791.5C 2012.67,2797.83 2012.67,2804.17 2012,2810.5C 2010.33,2816.84 2006.49,2821.34 2000.5,2824C 1964.55,2825.31 1928.55,2825.97 1892.5,2826C 1880,2832.84 1877.17,2842.67 1884,2855.5C 1885.94,2858.11 1888.44,2859.94 1891.5,2861C 1918.48,2862.02 1945.48,2863.02 1972.5,2864C 1999.3,2871.13 2015.46,2888.3 2021,2915.5C 2021.67,2927.17 2021.67,2938.83 2021,2950.5C 2016.92,2970.5 2006.08,2985.67 1988.5,2996C 1981.49,2999.34 1974.16,3001.67 1966.5,3003C 1926.5,3003.67 1886.5,3003.67 1846.5,3003C 1835.7,2999.01 1830.7,2991.18 1831.5,2979.5C 1830.95,2969.43 1834.95,2961.93 1843.5,2957C 1879.44,2955.69 1915.44,2955.02 1951.5,2955C 1963.45,2949.84 1967.28,2941.01 1963,2928.5C 1961.17,2924 1958,2920.83 1953.5,2919C 1927.87,2917.71 1902.21,2917.05 1876.5,2917C 1847.68,2910.84 1830.18,2893.34 1824,2864.5C 1818.38,2836.87 1825.21,2813.04 1844.5,2793C 1854.07,2785.38 1864.74,2780.21 1876.5,2777.5 Z"/></g>
</svg>
